<?xml version="1.0" encoding="UTF-8" standalone="no"?>
<svg
   xmlns:dc="http://purl.org/dc/elements/1.1/"
   xmlns:cc="http://creativecommons.org/ns#"
   xmlns:rdf="http://www.w3.org/1999/02/22-rdf-syntax-ns#"
   xmlns:svg="http://www.w3.org/2000/svg"
   xmlns="http://www.w3.org/2000/svg"
   viewBox="0 0 6666.6665 6666.6665"
   height="6666.6665"
   width="6666.6665"
   xml:space="preserve"
   id="svg2"
   version="1.1"><metadata
     id="metadata8"><rdf:RDF><cc:Work
         rdf:about=""><dc:format>image/svg+xml</dc:format><dc:type
           rdf:resource="http://purl.org/dc/dcmitype/StillImage" /><dc:title></dc:title></cc:Work></rdf:RDF></metadata><defs
     id="defs6"><clipPath
       id="clipPath18"
       clipPathUnits="userSpaceOnUse"><path
         id="path16"
         d="M 0,5000 H 5000 V 0 H 0 Z" /></clipPath></defs><g
     transform="matrix(1.3333333,0,0,-1.3333333,0,6666.6667)"
     id="g10"><g
       id="g14"
       clip-path="url(#clipPath18)"><g
         id="g20"
         transform="translate(778.2681,2350.8896)"><path
           d="M 0,0 C 394.543,-446.904 1297.241,-173.458 2111.058,-19.805 2386.437,32.17 3251.312,212.197 3443.463,-234.466 2614.333,312.041 549.936,-848.259 0,0"
           style="fill:#488f1a;fill-opacity:1;fill-rule:nonzero;stroke:none"
           id="path22" /></g><g
         id="g24"
         transform="translate(3975.0938,1922.1475)"><path
           d="m 0,0 c 90.521,314.263 -1069.972,174.811 -1229.809,152.35 181.621,63.228 648.669,143.654 978.775,111.822 C -123.947,251.902 253.979,158.146 -0.001,0.048 Z"
           style="fill:#7fc41c;fill-opacity:1;fill-rule:nonzero;stroke:none"
           id="path26" /></g><g
         id="g28"
         transform="translate(3779.5605,2686.8887)"><path
           d="m 0,0 c 2.608,0.193 4.106,0 4.3,-1.256 1.062,-5.796 6.52,-5.362 7.583,-7.632 1.014,-2.366 6.328,-1.642 5.99,0.58 -0.339,2.174 -9.274,11.544 -5.41,12.462 3.912,0.918 2.366,3.381 3.477,4.058 1.112,0.676 4.009,-2.657 4.589,-5.459 0.628,-2.801 2.802,-3.912 2.802,-3.236 0.048,0.676 -0.435,12.8 0.966,12.559 1.401,-0.242 2.077,1.884 2.415,2.801 0.29,0.966 3.962,0.677 3.962,0.677 0,0 2.125,7.535 5.748,2.705 3.671,-4.831 2.028,-6.762 2.028,-6.762 0,0 2.753,5.892 4.927,2.898 2.174,-2.995 1.739,-2.754 4.058,-5.845 2.367,-3.14 4.685,0.097 5.555,-1.981 0.869,-2.125 5.12,-2.125 5.12,-2.125 0,0 -0.676,9.709 1.207,9.66 1.933,-0.144 5.024,-0.917 5.024,-4.685 0,-3.671 2.898,-3.526 2.898,-3.526 0,0 -1.593,7.777 0.097,8.984 1.643,1.305 1.835,-1.738 3.815,-2.994 1.981,-1.256 3.382,3.575 4.058,-0.242 0.725,-3.816 2.754,-0.241 2.416,2.463 -0.29,2.754 -5.556,0.87 -5.507,4.155 0.048,3.236 0.289,4.54 0.289,4.54 0,0 4.638,0.967 6.135,3.14 1.449,2.174 4.01,-5.072 4.01,-5.072 0,0 4.492,6.328 0.579,9.275 -3.912,2.898 -1.546,6.955 0.967,8.211 2.511,1.304 2.415,-3.478 3.815,-3.719 1.4,-0.242 2.512,-4.396 2.512,-4.396 0,0 2.898,11.883 5.651,13.767 2.802,1.787 5.072,4.105 6.087,3.478 1.063,-0.774 4.782,-6.039 4.782,-6.039 0,0 -1.546,14.588 0.628,15.602 2.174,1.015 5.12,0.339 5.12,0.339 l 0.822,-6.135 c 0,0 3.912,10.096 5.554,10.434 1.643,0.338 4.734,-1.305 4.734,-1.305 0,0 -1.981,-5.313 -0.145,-6.086 1.835,-0.821 3.622,3.333 4.057,3.768 0.434,0.483 2.608,3.526 2.754,5.652 0.193,2.222 0.724,1.062 1.69,-2.078 0.966,-3.091 2.415,-1.062 2.609,2.319 0.193,3.333 -1.063,3.333 0.628,4.54 1.642,1.16 8.694,19.419 11.158,25.214 2.415,5.75 9.177,20.144 13.524,23.621 4.348,3.43 5.894,10.289 5.894,10.289 0,0 -5.314,-3.72 -5.12,0 0.192,3.719 1.98,5.7 2.607,7.535 0.628,1.884 1.305,6.956 0.628,15.747 -0.676,8.791 3.816,9.517 4.348,12.511 0.531,2.995 -4.009,5.99 -4.009,5.99 l 4.491,6.955 c 0,0 -12.848,1.643 -13.187,-5.313 -0.337,-6.956 5.411,-14.83 0.533,-18.549 -4.831,-3.719 -9.516,-7.825 -10.724,-12.511 -1.256,-4.636 -4.202,-11.592 -9.612,-12.945 -5.362,-1.4 -9.709,3.044 -5.893,5.555 3.863,2.56 6.086,7.874 8.163,10.386 2.076,2.56 4.83,13.862 5.893,13.862 1.062,0 1.932,2.126 3.671,2.126 1.739,0 4.347,-3.284 5.217,9.95 0.87,13.187 4.202,14.347 4.202,14.347 0,0 9.371,9.709 9.902,16.665 0.532,6.955 0.869,8.501 1.884,9.032 1.063,0.435 5.024,9.468 4.154,19.177 -0.869,9.757 -1.546,17.582 -1.546,17.582 0,0 -7.825,-6.714 -7.486,-16.423 0.338,-9.757 -5.748,-6.714 -13.38,-12.269 -7.633,-5.507 -10.435,-8.791 -12.85,-15.699 -2.415,-6.955 -11.302,-1.4 -12.124,-9.033 -0.869,-7.631 -6.762,-6.521 -7.148,-3.961 -0.338,2.561 -3.43,12.318 1.4,12.994 4.879,0.676 6.618,2.802 7.633,10.192 1.062,7.391 2.27,8.067 4.878,10.192 2.608,2.078 5.024,7.391 5.024,7.391 0,0 -6.667,0.483 -7.632,4.733 -0.966,4.3 1.883,2.802 2.415,4.3 0.531,1.545 3.816,12.752 2.801,15.795 -1.062,2.995 -4.443,-0.724 -4.443,-0.724 l 2.705,-1.498 c 0,0 -2.222,11.11 -0.677,13.525 1.546,2.415 5.217,2.077 5.217,2.077 0,0 3.381,8.501 -3.767,11.593 -7.15,2.995 -8.163,-0.483 -7.15,-1.642 1.063,-1.208 8.164,-1.45 8.164,-1.45 0,0 -5.893,16.713 -0.339,17.39 5.556,0.676 7.971,-2.802 8.696,0 0.676,2.753 -0.532,6.472 -1.546,12.269 -1.015,5.797 5.892,7.149 6.956,7.149 1.061,0 -6.956,2.077 -4.541,7.439 2.463,5.313 7.825,3.719 7.825,3.719 0,0 -3.623,23.379 0.531,26.18 4.155,2.802 2.609,9.951 5.555,12.752 2.995,2.754 6.811,10.144 6.811,10.144 0,0 -17.196,-3.236 -18.404,-6.907 -1.207,-3.768 -5.361,4.589 -5.554,5.989 -0.194,1.401 -10.242,-5.361 -11.449,-14.394 -1.256,-8.984 -9.419,-18.452 -19.659,-25.408 -10.241,-6.955 -15.265,0.725 -13.235,5.797 2.125,5.071 -4.348,-0.724 4.879,6.473 9.225,7.197 9.95,16.23 9.95,18.306 0,2.029 4.975,-6.472 4.975,-6.472 l 2.078,11.785 c 0,0 1.738,-3.719 4.878,-0.434 3.139,3.236 -2.222,13.332 0.87,15.409 3.139,2.077 6.134,-1.594 5.844,2.608 -0.338,4.106 -7.1,5.603 -6.231,8.647 0.869,2.995 7.197,5.893 7.197,5.893 0,0 -0.338,11.158 -4.105,5.796 -3.72,-5.313 -5.266,1.836 -7.873,-3.333 -2.61,-5.217 -1.402,-6.811 -0.194,-9.95 1.207,-3.14 0.338,-6.376 -1.401,-4.83 -1.738,1.497 -2.077,5.023 -4.009,3.091 -1.884,-1.981 -7.197,-5.459 -8.163,-2.319 -0.966,3.091 -4.492,3.333 -0.629,5.893 3.913,2.561 3.913,2.415 4.059,3.865 0.193,1.352 -7.44,-7.295 -9.516,-1.981 -2.078,5.313 -3.574,7.536 -0.628,9.854 2.947,2.27 2.609,4.975 5.555,4.975 2.946,0 6.859,0.917 3.043,4.058 -3.817,3.091 -4.444,8.115 -4.348,10.627 0.097,2.56 -1.884,14.297 2.271,17.051 4.153,2.802 -0.097,8.018 1.11,10.385 1.208,2.463 4.444,4.879 4.444,4.879 0,0 0.338,5.555 -2.85,5.313 -3.188,-0.241 -6.665,-1.545 -6.617,1.498 0.096,3.042 6.956,0.724 8.502,4.202 1.545,3.478 -1.836,7.294 -2.658,11.593 -0.917,4.25 -3.09,17.002 0.146,25.263 3.187,8.163 2.415,21.253 3.043,26.325 0.628,5.12 3.14,1.642 3.14,8.115 0,6.472 -1.305,11.593 -1.305,11.593 0,0 -4.444,-2.995 -4.25,-11.835 0.192,-8.791 -2.174,-12.849 -6.232,-6.956 -4.057,5.893 -4.251,8.067 -8.355,4.396 -4.059,-3.671 -6.667,-2.656 -7.198,2.657 -0.531,5.314 -8.598,9.516 1.352,8.115 9.999,-1.401 11.207,1.739 11.207,1.739 0,0 -10.966,3.719 -9.274,7.197 1.69,3.478 2.898,4.396 4.202,5.893 1.305,1.497 0,15.457 0,15.457 0,0 -5.12,-6.086 -5.217,-10.965 -0.097,-4.83 -3.767,-12.607 -5.989,-8.55 -2.271,4.106 -6.618,0.822 -7.294,6.473 -0.676,5.7 -1.159,5.411 0.29,9.854 1.353,4.444 1.449,7.198 0.338,10.434 -1.159,3.188 -0.097,14.926 -0.097,14.926 0,0 -11.255,-7.68 -10.578,-17.341 0.676,-9.758 0.53,-13.719 -2.27,-15.796 -2.802,-2.077 -4.493,2.415 -4.493,3.14 0,0.677 -1.98,2.319 -2.705,-3.574 -0.675,-5.845 1.497,-6.812 -1.352,-7.777 -2.899,-0.918 -5.99,-3.865 -5.99,-3.865 0,0 -3.236,8.55 -0.724,10.869 2.559,2.318 -2.657,13.09 0.386,14.395 3.044,1.255 7.439,2.317 8.26,5.989 0.773,3.719 4.057,23.378 0.966,32.894 -3.139,9.468 -5.941,10.82 -5.941,10.82 0,0 2.077,-10.82 -3.285,-16.664 -5.41,-5.748 -9.033,-14.588 -9.033,-14.588 0,0 -10.433,14.346 -4.685,20.094 5.748,5.797 5.556,15.989 5.556,15.989 0,0 8.694,8.115 11.109,33.136 2.415,24.973 0.339,31.494 0.339,31.494 0,0 -7.971,-26.856 -7.488,-32.412 0.532,-5.555 -8.695,-17.63 -11.303,-17.147 -2.609,0.482 -3.816,8.356 -4.685,12.51 -0.87,4.154 -7.295,-0.435 -4.203,6.28 3.14,6.713 0.725,4.637 4.348,3.478 3.623,-1.16 -0.725,8.742 2.753,14.587 3.478,5.748 0.87,15.023 3.816,25.456 2.946,10.386 -5.41,15.264 -5.41,15.264 0,0 -8.84,-21.108 -13.042,-25.021 -4.153,-3.961 -8.501,-6.666 -9.371,-0.918 -0.821,5.797 -9.902,0.242 -7.777,10.192 2.078,9.95 -8.502,10.869 -3.285,12.752 5.217,1.836 14.057,-0.483 14.057,-0.483 0,0 -14.057,13.187 -14.057,17.341 0,4.203 2.077,5.796 8.647,-1.594 6.618,-7.438 6.182,-2.125 6.182,-2.125 0,0 1.402,11.013 -1.738,13.863 -3.14,2.898 0.773,7.97 2.077,5.458 1.305,-2.56 3.768,-6.279 3.768,-6.279 0,0 -2.802,7.632 0.676,11.11 3.526,3.478 5.121,1.159 5.652,5.893 0.531,4.782 -0.387,9.854 -0.387,9.854 0,0 -2.028,-10.096 -6.087,-9.854 -4.057,0.241 -2.946,8.404 -2.415,11.11 0.532,2.656 -2.269,22.219 -2.269,22.219 0,0 -0.677,-16.037 -3.14,-14.201 -2.415,1.836 -5.556,7.052 -6.666,2.415 -1.159,-4.589 -2.995,-3.816 -4.251,-12.124 -1.304,-8.308 -5.797,-2.319 -6.52,0.676 -0.725,2.995 3.043,1.015 3.38,7.052 0.338,5.99 -2.173,22.8 0.338,24.684 2.513,1.787 2.513,9.805 2.513,9.805 0,0 -3.961,-2.898 -4.348,2.898 -0.338,5.797 1.256,9.275 1.256,9.275 l 1.159,9.95 c 0,0 -3.815,-7.825 -6.231,-3.333 -2.415,4.493 -6.811,7.584 -8.212,8.309 -1.351,0.676 -11.158,35.406 -11.158,35.406 0.145,-9.999 -11.834,-30.19 -12.413,-37.387 -1.692,-23.186 6.907,-39.367 0.531,-37.145 -5.7,1.98 2.076,-23.475 -0.918,-21.205 -2.947,2.318 -8.356,7.052 -7.922,3.67 0.435,-3.332 3.381,-4.636 3.043,-8.791 -0.387,-4.203 0.677,-10.095 -1.836,-8.549 -2.511,1.497 -4.878,8.308 -7.632,9.805 -2.801,1.546 -5.989,-5.748 -5.12,-7.825 0.87,-2.125 5.362,0.048 6.86,-9.516 1.497,-9.564 1.739,-11.544 2.849,-12.8 1.112,-1.256 7.488,-0.773 5.217,-8.695 -2.222,-7.825 -4.927,-0.87 -4.299,-4.734 0.58,-3.864 7.053,-2.898 8.937,-6.956 1.883,-4.057 -1.546,-4.878 -4.01,-5.119 -2.415,-0.291 -3.14,-4.686 -3.14,-4.686 0,0 4.009,1.691 4.589,-2.415 0.628,-4.057 3.768,-5.555 4.058,-9.709 0.338,-4.155 -3.382,-12.511 -6.038,-9.178 -2.705,3.333 -5.652,15.167 -8.598,19.66 -2.947,4.492 -2.126,6.134 -5.99,11.254 -3.912,5.072 -2.609,21.495 -2.609,21.495 0,0 -7.197,-2.656 -6.568,-7.728 0.579,-5.12 2.366,-17.727 0.435,-18.645 -1.885,-0.918 -4.589,-2.995 -3.044,-8.308 1.546,-5.362 3.623,-8.937 3.623,-10.772 0,-1.836 7.633,-8.405 4.879,-10.724 -2.802,-2.318 -9.709,-2.995 -8.502,-8.114 1.208,-5.12 9.177,0 8.841,-4.638 -0.339,-4.588 -6.57,0 -4.494,-8.984 2.029,-9.033 2.802,5.072 9.178,0.193 6.425,-4.83 0.387,-7.825 2.077,-12.704 1.74,-4.879 2.223,5.748 3.72,6.618 1.546,0.772 -1.208,-5.941 0.725,-9.274 1.932,-3.382 2.608,7.631 4.685,4.54 2.077,-3.14 0.338,-7.632 0.725,-9.033 0.338,-1.4 -3.478,-3.961 -3.043,-7.294 0.434,-3.333 4.878,-3.236 2.946,-5.168 -1.885,-1.98 -5.99,-5.7 -6.425,-9.661 -0.434,-3.913 -5.748,-5.555 -5.217,2.367 0.532,7.825 -2.125,17.921 -4.492,20.674 -2.366,2.802 -11.013,-5.314 -11.737,-7.631 -0.726,-2.319 -7.148,1.931 -5.361,11.93 1.738,9.95 -5.218,7.197 -8.02,8.598 -2.753,1.401 -7.437,2.319 -6.762,-6.763 0.676,-9.032 0.676,-34.73 0.676,-34.73 0,0 -5.748,-3.091 -7.294,-0.193 -1.545,2.85 -6.52,-2.801 -4.684,-5.555 1.835,-2.802 3.332,-3.623 3.671,-4.202 0.337,-0.58 3.38,-0.193 3.815,-6.569 0.435,-6.425 -5.651,-2.223 -3.236,-5.7 2.464,-3.43 3.768,-2.753 4.347,-5.169 0.628,-2.463 2.368,-6.617 2.368,-6.617 0,0 2.511,-2.705 0.434,-4.299 -2.077,-1.691 1.015,-5.121 0.338,-6.57 -0.725,-1.546 -7.148,-1.787 -7.729,1.16 -0.627,2.85 -1.11,4.299 -1.303,7.583 -0.194,3.382 -3.237,3.72 -4.107,8.502 -0.869,4.685 -2.415,11.544 -2.415,11.544 0,0 -3.284,0.097 -2.656,-5.217 0.58,-5.265 0.482,-11.109 0.097,-11.206 -0.435,-0.097 -3.237,-2.415 -2.705,-4.734 0.531,-2.318 1.932,-6.956 0.337,-9.757 -1.544,-2.753 -6.278,0 -0.869,-7.197 5.363,-7.15 9.709,-4.782 9.709,-8.067 0,-3.236 0.194,-2.077 -8.84,-13.187 -9.032,-11.158 -13.138,-4.299 -11.06,1.933 2.076,6.278 3.235,5.458 3.284,8.308 0.097,2.898 -1.208,3.622 -3.043,1.159 -1.787,-2.463 -9.709,-4.058 -9.661,-5.989 0.097,-2.03 0.338,-7.778 0.338,-9.758 0,-1.932 -5.168,-0.483 -6.521,4.589 -1.4,5.071 -7.631,3.719 -7.149,0.241 0.532,-3.478 3.816,-3.236 1.739,-6.714 -2.076,-3.477 -6.424,-4.299 -5.458,-6.231 0.966,-1.98 2.077,-1.159 3.14,-3.575 1.015,-2.463 5.651,1.353 7.294,-0.483 1.642,-1.883 0.339,-3.961 -2.705,-6.521 -3.043,-2.512 -3.188,-9.612 -1.207,-11.254 1.979,-1.595 7.776,-8.212 7.776,-13.139 0,-4.975 -1.642,-7.632 1.498,-9.033 3.14,-1.449 11.979,-7.197 13.911,-10.82 1.884,-3.526 3.14,-14.636 -1.593,-13.766 -4.687,0.966 -5.122,-0.725 -9.034,8.55 -3.912,9.274 -11.255,15.167 -11.255,15.167 0,0 -0.338,-7.922 1.256,-16.762 1.546,-8.791 -1.594,-12.365 1.159,-15.07 2.802,-2.657 6.86,-0.773 6.86,-5.845 0,-5.12 2.318,-8.357 4.54,-10.047 2.174,-1.739 -2.415,-0.145 2.657,-5.941 5.168,-5.797 5.748,-7.198 5.748,-7.198 l -7.294,-2.415 7.97,-4.299 c 0,0 -4.54,-3.478 -3.72,-4.589 0.726,-1.207 15.699,1.933 15.892,-1.545 0.145,-3.43 -1.545,-5.507 0.435,-6.328 1.981,-0.773 3.671,2.415 4.976,-2.56 1.305,-4.976 -0.967,-4.637 4.879,-4.976 5.796,-0.338 5.555,-0.724 6.23,-3.912 0.677,-3.285 4.058,-5.072 3.913,-9.95 -0.193,-4.879 -6.231,-6.28 -7.825,1.593 -1.546,7.874 -1.401,5.797 -8.694,5.072 -7.295,-0.676 -11.98,-2.077 -13.043,6.038 -1.062,8.115 -2.802,12.753 -11.641,18.742 -8.84,5.99 -0.531,5.99 -10.578,10.627 -10.096,4.637 -12.511,8.308 -12.848,13.187 -0.339,4.878 -3.961,16.471 -3.961,16.471 0,0 -6.086,-13.186 -4.204,-27.098 1.933,-13.912 6.764,-8.308 8.502,-19.031 1.739,-10.627 -4.154,-9.034 4.685,-18.984 8.841,-9.95 6.28,-16.906 6.28,-16.906 0,0 -10.965,-6.714 -15.458,-2.27 -4.54,4.395 -4.926,8.791 -1.303,10.53 3.67,1.69 -7.874,5.844 -7.97,10.868 -0.098,4.976 1.207,4.395 0.096,7.391 -1.16,3.043 -2.511,8.114 -2.463,9.177 0.096,1.014 -4.348,-2.995 -4.879,-7.535 -0.532,-4.493 3.285,-10.675 2.946,-13.429 -0.338,-2.753 -0.772,-14.201 -0.772,-14.201 0,0 -4.251,-2.366 -5.121,5.748 -0.87,8.116 -4.637,8.936 -4.637,8.936 0,0 1.063,-4.975 -0.338,-7.196 -1.401,-2.223 -3.381,-4.638 -3.526,-5.217 -0.193,-0.58 4.927,-3.575 4.927,-3.575 0,0 1.497,-2.898 3.719,-12.801 2.27,-9.95 -0.869,-9.95 7.826,-16.471 8.694,-6.473 10.578,-8.743 5.699,-9.226 -4.878,-0.435 -12.51,3.478 -12.51,0.725 0,-2.753 5.023,-4.155 7.969,-6.714 2.947,-2.609 0.87,-7.874 0.87,-9.951 0,-2.125 7.439,12.897 8.309,8.743 0.917,-4.202 -3.623,-14.588 1.062,-17.341 4.685,-2.754 6.617,1.642 6.956,-2.512 0.339,-4.154 1.4,-7.632 2.221,-7.632 0.87,0 2.271,19.418 4.01,9.468 1.739,-9.903 4.154,-8.985 1.594,-13.863 -2.609,-4.831 -11.979,-9.71 -12.849,-3.961 -0.869,5.796 -0.193,9.08 -8.163,14.587 -7.97,5.555 -15.07,6.715 -17.872,19.66 -2.802,12.993 -8.695,13.428 -8.695,13.428 0,0 0,-20.819 0.725,-32.846 0.724,-12.076 4.202,-10.675 7.632,-20.385 3.478,-9.708 6.279,-15.263 8.357,-16.664 2.076,-1.353 5.216,-3.671 4.541,-7.825 -0.726,-4.154 -2.802,-9.709 -1.74,-14.347 1.015,-4.636 12.8,0 12.8,0 0,0 2.271,-12.993 -3.815,-15.312 -6.087,-2.27 -11.834,7.198 -13.042,12.318 -1.208,5.072 -16.665,9.467 -17.341,16.665 -0.725,7.196 -6.474,9.032 -7.487,17.582 -1.063,8.598 -4.879,14.153 -4.879,14.153 0,0 -0.532,-7.294 -0.773,-9.613 -0.241,-2.318 1.305,-6.279 2.609,-11.834 1.303,-5.507 -4.589,-10.095 -1.45,-14.056 3.14,-3.912 6.232,-5.651 6.329,-6.811 0.047,-1.159 -2.996,-8.453 5.361,-29.32 8.356,-20.819 20.48,-27.775 20.48,-27.775 0,0 -6.617,-5.989 -18.017,0.966 -11.495,6.908 -14.249,9.226 -14.249,14.781 0,5.555 -9.709,12.946 -9.709,12.946 0,0 -0.725,-17.583 0.338,-21.302 1.014,-3.671 7.294,2.753 8.694,-8.792 1.353,-11.544 -5.94,-9.226 2.077,-15.698 8.019,-6.473 25.36,-2.802 25.36,-2.802 0,0 -15.458,-15.747 -22.268,-8.067 -6.763,7.632 -9.371,1.159 -8.163,-0.676 1.207,-1.835 1.738,-7.197 13.718,-9.709 11.689,-2.512 13.138,-1.014 11.448,-7.197 l -4.299,4.83 -20.239,-23.089 c 2.753,-1.787 6.134,-3.333 6.81,-3.574 1.208,-0.435 2.561,2.898 4.155,-0.532 1.593,-3.381 -3.189,-9.419 -3.189,-9.419 0,0 4.735,-1.111 7.777,-0.096 3.091,0.966 4.396,1.546 9.129,-2.03 3.817,-2.801 6.086,-3.284 8.888,-1.448 2.367,0.144 4.928,1.063 7.053,1.255 1.594,-1.932 2.753,-4.975 3.333,-5.989 0.097,-0.145 0.145,-0.339 0.193,-0.531 -0.918,-1.643 -2.56,-3.092 -4.202,-4.493 -1.062,-0.048 -2.223,0.339 -3.43,1.305 -4.782,3.912 -8.453,-7.053 -14.056,-4.976 -5.603,2.125 -9.419,1.691 -18.162,-1.546 -8.744,-3.139 -11.739,-10.24 -16.665,-4.057 -4.975,6.231 -14.491,3.526 -14.491,3.526 0,0 3.719,-5.362 8.308,-12.028 4.54,-6.617 12.462,-8.646 13.477,-8.018 1.013,0.628 2.173,-0.048 6.279,-3.816 4.154,-3.815 16.471,-1.594 16.471,-1.594 0,0 3.091,2.126 10.917,-5.12 7.728,-7.246 7.97,-3.043 9.274,-1.594 1.305,1.497 3.043,1.015 3.864,1.932 0.773,0.87 8.985,-3.623 11.931,-3.333 2.946,0.242 7.535,-1.062 11.738,0.676 0.145,0.049 0.29,0.097 0.483,0.145 0.627,-0.821 1.4,-1.787 2.173,-2.705 -0.434,-1.835 -1.835,-4.154 -4.008,-5.893 -4.831,-3.816 -10.772,-2.076 -14.202,-0.387 -3.43,1.788 -9.178,0.243 -14.83,-1.689 -5.65,-1.933 -5.554,7.728 -9.563,11.688 -4.009,3.913 -12.849,-8.114 -12.849,-8.114 l 7.149,-0.339 c 0,0 -1.787,-5.699 0.242,-7.052 2.028,-1.401 5.748,2.077 9.999,-3.864 4.202,-5.941 7.486,-8.405 8.935,-9.033 1.45,-0.579 3.913,-0.242 6.039,-2.367 2.125,-2.077 -3.865,-4.347 -3.865,-4.347 0,0 4.879,-2.802 10.047,-1.208 4.202,1.352 24.007,-44.149 44.874,-36.131 1.884,0.725 0.966,-0.338 2.899,-2.173 1.931,-1.884 4.105,-1.643 3.187,0.82 -0.869,2.464 -1.111,3.382 -0.482,3.093 11.737,-9.42 22.605,-9.42 33.329,-12.801 48.207,-15.168 20.626,-234.755 15.312,-295.425 L 4.64,-306.582 C 4.64,-249.295 -27.724,-16.665 0.051,0 Z"
           style="fill:#488f1a;fill-opacity:1;fill-rule:nonzero;stroke:none"
           id="path30" /></g><g
         id="g32"
         transform="translate(3397.1416,2591.4409)"><path
           d="m 0,0 c 2.125,0.193 3.382,0 3.526,-1.015 0.87,-4.781 5.362,-4.395 6.231,-6.278 0.869,-1.933 5.217,-1.353 4.928,0.482 -0.29,1.788 -7.633,9.516 -4.445,10.241 3.237,0.773 1.933,2.753 2.85,3.333 0.918,0.579 3.285,-2.174 3.767,-4.493 0.533,-2.27 2.32,-3.236 2.32,-2.656 0.048,0.579 -0.339,10.53 0.772,10.337 1.159,-0.194 1.739,1.545 1.981,2.318 0.241,0.822 3.236,0.58 3.236,0.58 0,0 1.738,6.231 4.733,2.222 2.996,-4.009 1.643,-5.555 1.643,-5.555 0,0 2.271,4.83 4.058,2.367 1.787,-2.464 1.401,-2.27 3.333,-4.831 1.932,-2.608 3.864,0.097 4.588,-1.594 0.725,-1.738 4.203,-1.738 4.203,-1.738 0,0 -0.579,8.018 1.014,7.921 1.594,-0.096 4.155,-0.772 4.155,-3.864 0,-2.995 2.366,-2.899 2.366,-2.899 0,0 -1.304,6.377 0.049,7.391 1.352,1.063 1.497,-1.4 3.139,-2.463 1.643,-1.063 2.802,2.946 3.333,-0.193 0.58,-3.14 2.271,-0.194 2.029,2.028 -0.242,2.27 -4.54,0.725 -4.54,3.43 0.047,2.657 0.241,3.72 0.241,3.72 0,0 3.816,0.82 5.023,2.608 1.208,1.787 3.284,-4.154 3.284,-4.154 0,0 3.72,5.216 0.484,7.631 -3.237,2.367 -1.256,5.7 0.821,6.763 2.077,1.063 1.981,-2.85 3.14,-3.043 1.159,-0.193 2.077,-3.623 2.077,-3.623 0,0 2.366,9.806 4.637,11.352 2.27,1.497 4.154,3.381 5.024,2.849 0.869,-0.628 3.912,-4.975 3.912,-4.975 0,0 -1.304,12.028 0.531,12.849 1.787,0.821 4.203,0.29 4.203,0.29 l 0.676,-5.072 c 0,0 3.237,8.308 4.54,8.598 1.353,0.289 3.913,-1.063 3.913,-1.063 0,0 -1.642,-4.347 -0.096,-5.024 1.497,-0.676 2.995,2.754 3.332,3.092 0.339,0.386 2.174,2.899 2.271,4.637 0.145,1.836 0.579,0.869 1.401,-1.691 0.772,-2.56 1.98,-0.869 2.125,1.884 0.144,2.754 -0.87,2.754 0.482,3.719 1.354,0.967 7.149,15.989 9.179,20.771 1.979,4.734 7.535,16.569 11.157,19.418 3.575,2.851 4.831,8.454 4.831,8.454 0,0 -4.348,-3.044 -4.203,0 0.145,3.091 1.643,4.685 2.126,6.182 0.531,1.546 1.062,5.7 0.531,12.945 -0.579,7.198 3.14,7.826 3.574,10.289 0.436,2.463 -3.284,4.927 -3.284,4.927 l 3.72,5.7 c 0,0 -10.579,1.353 -10.869,-4.396 -0.289,-5.748 4.444,-12.172 0.434,-15.264 -4.008,-3.043 -7.824,-6.472 -8.839,-10.288 -1.014,-3.816 -3.429,-9.516 -7.874,-10.676 -4.443,-1.11 -7.969,2.513 -4.83,4.589 3.14,2.077 5.024,6.473 6.715,8.55 1.69,2.126 4.009,11.4 4.83,11.4 0.869,0 1.594,1.739 2.994,1.739 1.45,0 3.576,-2.705 4.3,8.212 0.725,10.867 3.43,11.785 3.43,11.785 0,0 7.728,7.971 8.163,13.719 0.435,5.699 0.725,7.004 1.546,7.439 0.869,0.337 4.153,7.776 3.43,15.795 -0.725,8.018 -1.256,14.491 -1.256,14.491 0,0 -6.425,-5.555 -6.135,-13.526 0.289,-8.017 -4.733,-5.554 -11.014,-10.095 -6.279,-4.54 -8.598,-7.245 -10.578,-12.945 -2.029,-5.7 -9.323,-1.111 -9.999,-7.439 -0.724,-6.279 -5.556,-5.361 -5.892,-3.236 -0.29,2.077 -2.851,10.144 1.158,10.675 4.058,0.58 5.41,2.27 6.28,8.405 0.869,6.086 1.884,6.618 4.009,8.357 2.174,1.69 4.154,6.085 4.154,6.085 0,0 -5.507,0.387 -6.279,3.913 -0.774,3.526 1.546,2.319 1.979,3.526 0.436,1.256 3.141,10.53 2.32,12.994 -0.869,2.463 -3.671,-0.58 -3.671,-0.58 l 2.221,-1.208 c 0,0 -1.835,9.13 -0.579,11.11 1.304,1.981 4.299,1.74 4.299,1.74 0,0 2.801,7.004 -3.092,9.516 -5.844,2.463 -6.714,-0.387 -5.844,-1.353 0.869,-0.966 6.714,-1.208 6.714,-1.208 0,0 -4.831,13.718 -0.29,14.298 4.589,0.58 6.57,-2.27 7.149,0 0.531,2.27 -0.435,5.314 -1.305,10.095 -0.869,4.782 4.879,5.894 5.7,5.894 0.87,0 -5.7,1.69 -3.719,6.086 2.029,4.396 6.424,3.043 6.424,3.043 0,0 -2.995,19.225 0.435,21.543 3.43,2.271 2.174,8.164 4.541,10.483 2.464,2.27 5.603,8.356 5.603,8.356 0,0 -14.153,-2.657 -15.167,-5.7 -0.966,-3.091 -4.396,3.767 -4.54,4.927 -0.146,1.159 -8.455,-4.396 -9.42,-11.835 -1.015,-7.39 -7.729,-15.167 -16.182,-20.915 -8.453,-5.7 -12.559,0.58 -10.868,4.782 1.738,4.202 -3.574,-0.58 4.01,5.313 7.583,5.894 8.163,13.332 8.163,15.072 0,1.69 4.105,-5.314 4.105,-5.314 l 1.738,9.709 c 0,0 1.45,-3.043 4.01,-0.387 2.561,2.657 -1.836,10.965 0.725,12.656 2.56,1.69 5.071,-1.304 4.782,2.125 -0.29,3.381 -5.845,4.638 -5.12,7.101 0.725,2.464 5.941,4.83 5.941,4.83 0,0 -0.29,9.178 -3.382,4.783 -3.042,-4.396 -4.347,1.497 -6.472,-2.754 -2.174,-4.299 -1.159,-5.603 -0.146,-8.163 1.015,-2.608 0.29,-5.265 -1.159,-4.01 -1.4,1.208 -1.738,4.155 -3.284,2.56 -1.546,-1.642 -5.941,-4.491 -6.714,-1.932 -0.773,2.561 -3.72,2.754 -0.483,4.831 3.236,2.077 3.236,1.98 3.333,3.14 0.145,1.111 -6.135,-5.99 -7.825,-1.643 -1.691,4.396 -2.947,6.183 -0.532,8.115 2.415,1.884 2.126,4.106 4.589,4.106 2.415,0 5.652,0.773 2.512,3.333 -3.14,2.56 -3.671,6.714 -3.574,8.743 0.048,2.077 -1.546,11.738 1.883,14.008 3.43,2.319 -0.047,6.569 0.918,8.55 1.015,2.028 3.623,4.009 3.623,4.009 0,0 0.29,4.541 -2.367,4.396 -2.608,-0.194 -5.507,-1.257 -5.41,1.207 0.049,2.512 5.749,0.58 7.004,3.478 1.256,2.85 -1.497,6.038 -2.174,9.516 -0.724,3.478 -2.512,13.96 0.146,20.77 2.656,6.714 1.98,17.487 2.464,21.689 0.531,4.202 2.607,1.352 2.607,6.665 0,5.314 -1.062,9.516 -1.062,9.516 0,0 -3.671,-2.463 -3.526,-9.709 0.146,-7.245 -1.787,-10.578 -5.12,-5.7 -3.382,4.831 -3.526,6.667 -6.859,3.623 -3.381,-3.043 -5.507,-2.174 -5.942,2.174 -0.434,4.347 -7.1,7.825 1.112,6.666 8.259,-1.16 9.225,1.449 9.225,1.449 0,0 -8.984,3.043 -7.632,5.941 1.353,2.85 2.367,3.623 3.43,4.831 1.062,1.207 0,12.752 0,12.752 0,0 -4.202,-5.024 -4.3,-9.033 -0.048,-4.01 -3.091,-10.337 -4.927,-7.053 -1.835,3.382 -5.41,0.677 -6.038,5.314 -0.53,4.685 -0.917,4.444 0.242,8.115 1.111,3.623 1.208,5.893 0.29,8.598 -0.917,2.657 -0.096,12.318 -0.096,12.318 0,0 -9.275,-6.329 -8.695,-14.298 0.532,-8.019 0.435,-11.304 -1.884,-12.994 -2.27,-1.739 -3.719,1.98 -3.719,2.56 0,0.58 -1.643,1.884 -2.223,-2.947 -0.531,-4.83 1.208,-5.603 -1.111,-6.376 -2.366,-0.724 -4.927,-3.14 -4.927,-3.14 0,0 -2.656,7.053 -0.579,8.985 2.076,1.932 -2.223,10.772 0.289,11.834 2.513,1.063 6.135,1.884 6.811,4.927 0.628,3.044 3.333,19.225 0.772,27.05 -2.559,7.826 -4.878,8.937 -4.878,8.937 0,0 1.74,-8.937 -2.705,-13.67 -4.443,-4.734 -7.438,-11.98 -7.438,-11.98 0,0 -8.55,11.835 -3.865,16.568 4.734,4.782 4.541,13.139 4.541,13.139 0,0 7.149,6.666 9.129,27.292 1.981,20.528 0.29,25.89 0.29,25.89 0,0 -6.569,-22.123 -6.134,-26.664 0.434,-4.589 -7.149,-14.49 -9.275,-14.104 -2.125,0.435 -3.139,6.859 -3.864,10.289 -0.725,3.43 -5.989,-0.387 -3.43,5.168 2.609,5.507 0.579,3.816 3.575,2.85 2.995,-0.966 -0.58,7.197 2.27,12.027 2.85,4.735 0.725,12.366 3.14,20.965 2.416,8.549 -4.445,12.558 -4.445,12.558 0,0 -7.293,-17.341 -10.722,-20.577 -3.43,-3.236 -7.004,-5.507 -7.729,-0.773 -0.676,4.782 -8.114,0.193 -6.425,8.405 1.74,8.163 -7.004,8.936 -2.704,10.482 4.299,1.497 11.544,-0.387 11.544,-0.387 0,0 -11.544,10.869 -11.544,14.298 0,3.478 1.739,4.782 7.149,-1.304 5.458,-6.135 5.071,-1.739 5.071,-1.739 0,0 1.16,9.081 -1.448,11.399 -2.561,2.415 0.628,6.57 1.689,4.493 1.064,-2.078 3.093,-5.169 3.093,-5.169 0,0 -2.271,6.28 0.53,9.13 2.899,2.85 4.251,0.966 4.638,4.83 0.435,3.913 -0.338,8.115 -0.338,8.115 0,0 -1.643,-8.308 -5.023,-8.115 -3.382,0.193 -2.415,6.956 -2.03,9.13 0.436,2.222 -1.883,18.258 -1.883,18.258 0,0 -0.58,-13.235 -2.561,-11.689 -1.98,1.497 -4.589,5.796 -5.458,1.98 -0.966,-3.768 -2.463,-3.14 -3.526,-9.95 -1.062,-6.859 -4.782,-1.932 -5.362,0.58 -0.58,2.463 2.513,0.821 2.802,5.796 0.29,4.927 -1.787,18.742 0.29,20.287 2.077,1.498 2.077,8.067 2.077,8.067 0,0 -3.284,-2.367 -3.575,2.367 -0.289,4.782 1.015,7.632 1.015,7.632 l 0.966,8.212 c 0,0 -3.14,-6.473 -5.121,-2.754 -1.979,3.719 -5.602,6.232 -6.761,6.811 -1.111,0.58 -9.179,29.127 -9.179,29.127 0.145,-8.26 -9.757,-24.828 -10.191,-30.769 -1.401,-19.08 5.7,-32.412 0.434,-30.577 -4.684,1.643 1.692,-19.321 -0.724,-17.437 -2.416,1.884 -6.859,5.796 -6.521,3.043 0.338,-2.754 2.802,-3.816 2.512,-7.245 -0.289,-3.43 0.531,-8.308 -1.497,-7.053 -2.077,1.208 -4.009,6.859 -6.281,8.067 -2.317,1.256 -4.925,-4.733 -4.202,-6.473 0.677,-1.738 4.445,0.049 5.653,-7.825 1.255,-7.873 1.448,-9.516 2.366,-10.53 0.918,-1.015 6.135,-0.676 4.299,-7.149 -1.835,-6.473 -4.057,-0.725 -3.575,-3.864 0.484,-3.141 5.797,-2.415 7.343,-5.7 1.546,-3.334 -1.256,-4.01 -3.285,-4.203 -2.028,-0.241 -2.56,-3.864 -2.56,-3.864 0,0 3.285,1.353 3.768,-1.98 0.531,-3.333 3.092,-4.541 3.333,-7.971 0.29,-3.429 -2.802,-10.288 -4.976,-7.535 -2.222,2.754 -4.637,12.463 -7.052,16.182 -2.415,3.72 -1.739,5.072 -4.927,9.226 -3.236,4.202 -2.174,17.679 -2.174,17.679 0,0 -5.892,-2.174 -5.41,-6.328 0.483,-4.251 1.933,-14.587 0.339,-15.36 -1.546,-0.773 -3.769,-2.464 -2.513,-6.86 1.305,-4.395 2.995,-7.342 2.995,-8.887 0,-1.498 6.28,-6.908 4.009,-8.84 -2.269,-1.932 -8.018,-2.464 -7.004,-6.666 1.015,-4.202 7.584,0 7.294,-3.816 -0.29,-3.767 -5.409,0 -3.671,-7.39 1.691,-7.439 2.271,4.154 7.535,0.145 5.314,-3.961 0.29,-6.425 1.691,-10.434 1.449,-4.009 1.836,4.734 3.092,5.459 1.304,0.676 -1.015,-4.879 0.579,-7.633 1.594,-2.753 2.126,6.28 3.865,3.72 1.689,-2.609 0.289,-6.279 0.579,-7.439 0.29,-1.159 -2.85,-3.236 -2.512,-5.989 0.387,-2.754 4.009,-2.657 2.415,-4.251 -1.546,-1.594 -4.926,-4.686 -5.313,-7.922 -0.386,-3.236 -4.734,-4.54 -4.299,1.981 0.435,6.424 -1.739,14.732 -3.72,17.002 -1.931,2.319 -9.081,-4.395 -9.66,-6.28 -0.58,-1.883 -5.893,1.595 -4.444,9.806 1.401,8.213 -4.299,5.942 -6.57,7.052 -2.269,1.112 -6.133,1.885 -5.554,-5.554 0.58,-7.391 0.58,-28.595 0.58,-28.595 0,0 -4.734,-2.561 -5.99,-0.146 -1.304,2.367 -5.362,-2.27 -3.865,-4.588 1.498,-2.319 2.754,-2.947 2.995,-3.431 0.291,-0.482 2.802,-0.192 3.14,-5.409 0.338,-5.265 -4.685,-1.836 -2.657,-4.686 2.029,-2.849 3.093,-2.27 3.575,-4.25 0.531,-2.029 1.933,-5.41 1.933,-5.41 0,0 2.076,-2.222 0.385,-3.526 -1.738,-1.353 0.87,-4.203 0.29,-5.411 -0.58,-1.255 -5.844,-1.449 -6.375,0.967 -0.483,2.367 -0.918,3.526 -1.063,6.231 -0.145,2.802 -2.656,3.043 -3.381,7.004 -0.725,3.864 -1.98,9.516 -1.98,9.516 0,0 -2.706,0.096 -2.223,-4.299 0.482,-4.348 0.387,-9.13 0.049,-9.227 -0.387,-0.096 -2.656,-1.98 -2.223,-3.912 0.436,-1.932 1.595,-5.748 0.29,-8.019 -1.303,-2.27 -5.169,0 -0.724,-5.941 4.395,-5.844 7.97,-3.961 7.97,-6.617 0,-2.657 0.145,-1.691 -7.295,-10.82 -7.437,-9.178 -10.771,-3.526 -9.08,1.594 1.739,5.169 2.657,4.492 2.704,6.859 0.049,2.367 -1.014,2.946 -2.51,0.966 -1.498,-2.029 -8.02,-3.334 -7.923,-4.927 0.097,-1.643 0.29,-6.424 0.29,-8.018 0,-1.595 -4.251,-0.387 -5.361,3.767 -1.16,4.203 -6.28,3.091 -5.893,0.193 0.435,-2.85 3.14,-2.705 1.448,-5.506 -1.739,-2.85 -5.264,-3.526 -4.492,-5.169 0.821,-1.642 1.739,-0.966 2.561,-2.946 0.821,-2.029 4.636,1.111 5.989,-0.386 1.352,-1.546 0.29,-3.237 -2.222,-5.363 -2.512,-2.076 -2.608,-7.922 -0.967,-9.274 1.644,-1.304 6.425,-6.762 6.425,-10.819 0,-4.106 -1.352,-6.28 1.208,-7.391 2.609,-1.159 9.854,-5.941 11.447,-8.888 1.546,-2.898 2.561,-12.075 -1.303,-11.303 -3.865,0.773 -4.202,-0.58 -7.44,7.004 -3.235,7.632 -9.273,12.462 -9.273,12.462 0,0 -0.29,-6.521 1.014,-13.814 1.256,-7.198 -1.304,-10.144 0.966,-12.366 2.319,-2.174 5.652,-0.628 5.652,-4.831 0,-4.202 1.932,-6.859 3.719,-8.259 1.788,-1.449 -1.98,-0.145 2.222,-4.879 4.251,-4.782 4.733,-5.941 4.733,-5.941 l -5.989,-1.981 6.57,-3.526 c 0,0 -3.719,-2.898 -3.092,-3.768 0.628,-1.014 12.897,1.594 13.091,-1.255 0.144,-2.85 -1.305,-4.541 0.337,-5.217 1.643,-0.676 2.996,1.98 4.058,-2.126 1.063,-4.106 -0.821,-3.815 4.01,-4.106 4.782,-0.289 4.54,-0.579 5.12,-3.187 0.579,-2.706 3.381,-4.203 3.236,-8.212 -0.145,-4.009 -5.12,-5.168 -6.425,1.304 -1.255,6.473 -1.159,4.782 -7.148,4.202 -5.99,-0.579 -9.854,-1.69 -10.724,4.976 -0.869,6.666 -2.27,10.482 -9.564,15.408 -7.293,4.927 -0.435,4.927 -8.694,8.743 -8.308,3.817 -10.288,6.859 -10.578,10.82 -0.291,4.01 -3.286,13.526 -3.286,13.526 0,0 -5.022,-10.869 -3.429,-22.268 1.594,-11.449 5.603,-6.86 7.005,-15.651 1.448,-8.743 -3.43,-7.39 3.864,-15.602 7.293,-8.211 5.168,-13.911 5.168,-13.911 0,0 -9.032,-5.506 -12.703,-1.884 -3.72,3.623 -4.059,7.245 -1.064,8.646 3.044,1.401 -6.472,4.83 -6.569,8.936 -0.048,4.058 1.014,3.623 0.098,6.087 -0.967,2.511 -2.079,6.665 -2.03,7.584 0.049,0.82 -3.574,-2.464 -4.009,-6.232 -0.434,-3.72 2.705,-8.791 2.415,-11.061 -0.29,-2.27 -0.627,-11.689 -0.627,-11.689 0,0 -3.527,-1.933 -4.204,4.733 -0.723,6.666 -3.815,7.342 -3.815,7.342 0,0 0.869,-4.106 -0.29,-5.941 -1.159,-1.836 -2.753,-3.816 -2.899,-4.299 -0.144,-0.483 4.058,-2.947 4.058,-2.947 0,0 1.208,-2.366 3.092,-10.529 1.835,-8.165 -0.725,-8.165 6.424,-13.526 7.149,-5.313 8.695,-7.197 4.685,-7.584 -4.009,-0.386 -10.289,2.899 -10.289,0.58 0,-2.27 4.155,-3.429 6.57,-5.507 2.415,-2.125 0.725,-6.472 0.725,-8.163 0,-1.738 6.134,10.627 6.81,7.197 0.725,-3.429 -2.994,-11.979 0.87,-14.298 3.864,-2.27 5.458,1.353 5.699,-2.076 0.29,-3.43 1.16,-6.28 1.836,-6.28 0.725,0 1.836,15.989 3.285,7.826 1.448,-8.165 3.429,-7.391 1.304,-11.4 -2.125,-4.01 -9.854,-8.019 -10.578,-3.285 -0.725,4.782 -0.146,7.439 -6.715,12.028 -6.568,4.589 -12.414,5.554 -14.733,16.181 -2.27,10.675 -7.148,11.062 -7.148,11.062 0,0 0,-17.148 0.579,-27.05 0.58,-9.951 3.43,-8.792 6.279,-16.81 2.899,-7.97 5.169,-12.559 6.86,-13.718 1.69,-1.111 4.299,-3.044 3.72,-6.473 -0.581,-3.43 -2.271,-8.018 -1.402,-11.786 0.821,-3.815 10.53,0 10.53,0 0,0 1.884,-10.675 -3.139,-12.607 -5.024,-1.884 -9.709,5.941 -10.724,10.144 -1.014,4.154 -13.718,7.776 -14.297,13.718 -0.58,5.941 -5.313,7.438 -6.134,14.491 -0.871,7.052 -4.009,11.641 -4.009,11.641 0,0 -0.436,-5.99 -0.629,-7.921 -0.194,-1.884 1.063,-5.169 2.126,-9.71 1.062,-4.54 -3.769,-8.308 -1.208,-11.544 2.56,-3.236 5.12,-4.638 5.217,-5.604 0.048,-0.965 -2.464,-6.955 4.395,-24.103 6.859,-17.148 16.858,-22.847 16.858,-22.847 0,0 -5.41,-4.928 -14.829,0.773 -9.467,5.699 -11.738,7.583 -11.738,12.172 0,4.589 -7.97,10.675 -7.97,10.675 0,0 -0.58,-14.491 0.289,-17.534 0.822,-3.043 5.991,2.27 7.15,-7.245 1.111,-9.517 -4.879,-7.584 1.69,-12.946 6.57,-5.314 20.867,-2.319 20.867,-2.319 0,0 -12.704,-12.945 -18.306,-6.665 -5.556,6.279 -7.68,0.966 -6.714,-0.58 1.014,-1.498 1.4,-5.893 11.254,-8.018 9.612,-2.077 10.82,-0.822 9.419,-5.942 l -3.526,3.961 -16.665,-18.983 c 2.271,-1.449 5.024,-2.753 5.603,-2.946 1.015,-0.387 2.078,2.367 3.382,-0.435 1.304,-2.802 -2.609,-7.777 -2.609,-7.777 0,0 3.865,-0.918 6.424,-0.097 2.561,0.773 3.623,1.256 7.536,-1.69 3.14,-2.319 5.024,-2.706 7.294,-1.208 1.932,0.097 4.057,0.869 5.796,1.014 1.305,-1.594 2.271,-4.106 2.754,-4.927 0.096,-0.096 0.145,-0.29 0.145,-0.434 -0.773,-1.353 -2.125,-2.561 -3.478,-3.72 -0.869,-0.048 -1.835,0.29 -2.85,1.063 -3.913,3.236 -6.956,-5.797 -11.544,-4.106 -4.589,1.739 -7.729,1.401 -14.926,-1.256 -7.198,-2.608 -9.661,-8.404 -13.718,-3.333 -4.106,5.12 -11.932,2.898 -11.932,2.898 0,0 3.092,-4.395 6.86,-9.902 3.767,-5.458 10.24,-7.149 11.109,-6.617 0.821,0.531 1.787,-0.049 5.169,-3.14 3.429,-3.14 13.524,-1.304 13.524,-1.304 0,0 2.561,1.739 8.985,-4.202 6.376,-5.942 6.569,-2.512 7.633,-1.304 1.062,1.207 2.511,0.82 3.187,1.593 0.628,0.725 7.391,-2.947 9.806,-2.753 2.415,0.193 6.183,-0.87 9.66,0.579 0.145,0.049 0.242,0.097 0.387,0.145 0.532,-0.676 1.159,-1.449 1.787,-2.222 -0.338,-1.497 -1.497,-3.429 -3.332,-4.83 -3.961,-3.139 -8.889,-1.739 -11.69,-0.338 -2.801,1.497 -7.535,0.193 -12.221,-1.352 -4.637,-1.595 -4.589,6.327 -7.873,9.612 -3.286,3.236 -10.579,-6.666 -10.579,-6.666 l 5.893,-0.289 c 0,0 -1.449,-4.687 0.193,-5.797 1.643,-1.111 4.734,1.691 8.212,-3.14 3.478,-4.878 6.134,-6.956 7.342,-7.439 1.207,-0.483 3.188,-0.193 4.976,-1.932 1.739,-1.739 -3.189,-3.574 -3.189,-3.574 0,0 4.01,-2.27 8.261,-0.966 3.477,1.111 19.756,-36.325 36.952,-29.707 1.546,0.58 0.821,-0.29 2.415,-1.787 1.594,-1.546 3.382,-1.353 2.656,0.676 -0.723,2.028 -0.917,2.802 -0.385,2.56 9.66,-7.728 18.596,-7.777 27.435,-10.53 39.658,-12.51 16.955,-193.166 12.609,-243.064 l 54.05,-2.222 c 0,47.145 -26.615,238.571 -3.767,252.29 z"
           style="fill:#488f1a;fill-opacity:1;fill-rule:nonzero;stroke:none"
           id="path34" /></g><g
         id="g36"
         transform="translate(875.5029,2382.9629)"><path
           d="M 0,0 C 467.482,55.887 867.483,604.084 1422.346,565.2 1846.5,535.493 2057.828,206.594 2352.432,150.804 1979.19,127.956 1824.521,404.059 1412.106,440.239 893.23,485.789 745.614,28.354 0.001,0 Z"
           style="fill:#7fc41c;fill-opacity:1;fill-rule:nonzero;stroke:none"
           id="path38" /></g><g
         id="g40"
         transform="translate(1936.5874,2650.2744)"><path
           d="M 0,0 C 158.822,91.536 340.54,105.978 525.156,51.927 -88.009,-54.776 245.286,-258.762 32.798,-350.587 c -117.233,-50.671 -200.75,62.747 -309.915,4.54 -147.181,-78.395 -314.891,-60.041 -486.755,34.248 C -507.477,-286.778 -258.666,-149.113 0,0"
           style="fill:#e6f2cf;fill-opacity:1;fill-rule:nonzero;stroke:none"
           id="path42" /></g><g
         id="g44"
         transform="translate(2908.4063,3280.4912)"><path
           d="m 0,0 c 109.069,0 197.465,-88.396 197.465,-197.514 0,-109.069 -88.396,-197.464 -197.465,-197.464 -109.069,0 -197.513,88.395 -197.513,197.464 C -197.513,-88.444 -109.117,0 0,0"
           style="fill:#f1c50e;fill-opacity:1;fill-rule:nonzero;stroke:none"
           id="path46" /></g></g><path
       d="m 1928.4711,1851.1209 h 15.7813 v -47.8125 h 57.3437 v 47.8125 h 15.7813 v -116.6406 h -15.7813 v 55.5469 h -57.3437 v -55.5469 h -15.7813 z"
       style="font-style:normal;font-weight:normal;font-size:213.33332825px;line-height:1.25;font-family:sans-serif;text-align:center;letter-spacing:0px;word-spacing:0px;text-anchor:middle;fill:#000000;fill-opacity:1;stroke:none;stroke-width:0.75"
       id="path3875" /><path
       d="m 2048.1586,1821.9802 h 14.375 v -87.4999 h -14.375 z m 0,34.0626 h 14.375 v -18.2031 h -14.375 z"
       style="font-style:normal;font-weight:normal;font-size:213.33332825px;line-height:1.25;font-family:sans-serif;text-align:center;letter-spacing:0px;word-spacing:0px;text-anchor:middle;fill:#000000;fill-opacity:1;stroke:none;stroke-width:0.75"
       id="path3877" /><path
       d="m 2092.6117,1856.0428 h 14.375 v -121.5625 h -14.375 z"
       style="font-style:normal;font-weight:normal;font-size:213.33332825px;line-height:1.25;font-family:sans-serif;text-align:center;letter-spacing:0px;word-spacing:0px;text-anchor:middle;fill:#000000;fill-opacity:1;stroke:none;stroke-width:0.75"
       id="path3879" /><path
       d="m 2137.0648,1856.0428 h 14.3751 v -121.5625 h -14.3751 z"
       style="font-style:normal;font-weight:normal;font-size:213.33332825px;line-height:1.25;font-family:sans-serif;text-align:center;letter-spacing:0px;word-spacing:0px;text-anchor:middle;fill:#000000;fill-opacity:1;stroke:none;stroke-width:0.75"
       id="path3881" /><path
       d="m 2320.3461,1842.1365 v -16.6406 q -7.9688,7.4219 -17.0312,11.0937 -8.9844,3.6719 -19.1407,3.6719 -20,0 -30.625,-12.2656 -10.625,-12.1875 -10.625,-35.3125 0,-23.0469 10.625,-35.3125 10.625,-12.1875 30.625,-12.1875 10.1563,0 19.1407,3.6718 9.0624,3.672 17.0312,11.0938 v -16.4844 q -8.2813,-5.625 -17.5781,-8.4375 -9.2188,-2.8125 -19.5313,-2.8125 -26.4844,0 -41.7188,16.1719 -15.2343,16.25 -15.2343,44.2969 0,28.125 15.2343,44.2968 15.2344,16.2501 41.7188,16.2501 10.4688,0 19.6875,-2.8125 9.2969,-2.7344 17.4219,-8.2813 z"
       style="font-style:normal;font-weight:normal;font-size:213.33332825px;line-height:1.25;font-family:sans-serif;text-align:center;letter-spacing:0px;word-spacing:0px;text-anchor:middle;fill:#000000;fill-opacity:1;stroke:none;stroke-width:0.75"
       id="path3883" /><path
       d="m 2378.0023,1811.9021 q -11.5625,0 -18.2812,-9.0625 -6.7187,-8.9844 -6.7187,-24.6875 0,-15.7031 6.6405,-24.7656 6.7188,-8.9844 18.3594,-8.9844 11.4844,0 18.2031,9.0626 6.7188,9.0624 6.7188,24.6874 0,15.5469 -6.7188,24.6094 -6.7187,9.1406 -18.2031,9.1406 z m 0,12.1875 q 18.75,0 29.4531,-12.1875 10.7032,-12.1875 10.7032,-33.75 0,-21.4843 -10.7032,-33.75 -10.7031,-12.1875 -29.4531,-12.1875 -18.8281,0 -29.5312,12.1875 -10.625,12.2657 -10.625,33.75 0,21.5625 10.625,33.75 10.7031,12.1875 29.5312,12.1875 z"
       style="font-style:normal;font-weight:normal;font-size:213.33332825px;line-height:1.25;font-family:sans-serif;text-align:center;letter-spacing:0px;word-spacing:0px;text-anchor:middle;fill:#000000;fill-opacity:1;stroke:none;stroke-width:0.75"
       id="path3885" /><path
       d="m 2440.5023,1769.0115 v 52.9687 h 14.375 v -52.4218 q 0,-12.4219 4.8438,-18.6719 4.8438,-6.1719 14.5312,-6.1719 11.6407,0 18.3594,7.4219 6.7969,7.4219 6.7969,20.2344 v 49.6093 h 14.375 v -87.4999 h -14.375 v 13.4374 q -5.2344,-7.9687 -12.1875,-11.8749 -6.875,-3.8282 -16.0157,-3.8282 -15.078,0 -22.8906,9.375 -7.8125,9.375 -7.8125,27.4219 z m 36.1719,55.0781 z"
       style="font-style:normal;font-weight:normal;font-size:213.33332825px;line-height:1.25;font-family:sans-serif;text-align:center;letter-spacing:0px;word-spacing:0px;text-anchor:middle;fill:#000000;fill-opacity:1;stroke:none;stroke-width:0.75"
       id="path3887" /><path
       d="m 2616.1274,1787.2927 v -52.8124 h -14.3751 v 52.3437 q 0,12.4219 -4.8437,18.5938 -4.8438,6.1719 -14.5312,6.1719 -11.6407,0 -18.3594,-7.422 -6.7188,-7.4218 -6.7188,-20.2343 v -49.4531 h -14.4531 v 87.4999 h 14.4531 v -13.5937 q 5.1563,7.8907 12.1094,11.7969 7.0312,3.9062 16.1719,3.9062 15.0781,0 22.8125,-9.375 7.7344,-9.2968 7.7344,-27.4219 z"
       style="font-style:normal;font-weight:normal;font-size:213.33332825px;line-height:1.25;font-family:sans-serif;text-align:center;letter-spacing:0px;word-spacing:0px;text-anchor:middle;fill:#000000;fill-opacity:1;stroke:none;stroke-width:0.75"
       id="path3889" /><path
       d="m 2659.018,1846.824 v -24.8438 h 29.6093 v -11.1718 h -29.6093 v -47.5 q 0,-10.7032 2.8906,-13.75 2.9688,-3.0469 11.9531,-3.0469 h 14.7656 v -12.0312 h -14.7656 q -16.6406,0 -22.9688,6.1718 -6.3281,6.2501 -6.3281,22.6563 v 47.5 h -10.5469 v 11.1718 h 10.5469 v 24.8438 z"
       style="font-style:normal;font-weight:normal;font-size:213.33332825px;line-height:1.25;font-family:sans-serif;text-align:center;letter-spacing:0px;word-spacing:0px;text-anchor:middle;fill:#000000;fill-opacity:1;stroke:none;stroke-width:0.75"
       id="path3891" /><path
       d="m 2758.2367,1808.5428 q -2.4219,1.4062 -5.3125,2.0312 -2.8125,0.7031 -6.25,0.7031 -12.1875,0 -18.75,-7.9687 -6.4844,-7.8906 -6.4844,-22.7344 v -46.0937 h -14.4531 v 87.4999 h 14.4531 v -13.5937 q 4.5313,7.9687 11.7969,11.7969 7.2656,3.9062 17.6562,3.9062 1.4844,0 3.2813,-0.2344 1.7969,-0.1562 3.9843,-0.5468 z"
       style="font-style:normal;font-weight:normal;font-size:213.33332825px;line-height:1.25;font-family:sans-serif;text-align:center;letter-spacing:0px;word-spacing:0px;text-anchor:middle;fill:#000000;fill-opacity:1;stroke:none;stroke-width:0.75"
       id="path3893" /><path
       d="m 2809.7211,1726.3552 q -6.0937,-15.6249 -11.875,-20.3906 -5.7813,-4.7656 -15.4688,-4.7656 h -11.4844 v 12.0312 h 8.4375 q 5.9376,0 9.2188,2.8125 3.2813,2.8125 7.2656,13.2813 l 2.5782,6.5625 -35.3907,86.0937 h 15.2344 l 27.3437,-68.4375 27.3438,68.4375 h 15.2344 z"
       style="font-style:normal;font-weight:normal;font-size:213.33332825px;line-height:1.25;font-family:sans-serif;text-align:center;letter-spacing:0px;word-spacing:0px;text-anchor:middle;fill:#000000;fill-opacity:1;stroke:none;stroke-width:0.75"
       id="path3895" /><path
       d="m 2989.4086,1847.2927 v -15.3906 q -8.9844,4.2969 -16.9532,6.4063 -7.9687,2.1094 -15.3906,2.1094 -12.8906,0 -19.9218,-5 -6.9531,-5.0001 -6.9531,-14.2188 0,-7.7343 4.6093,-11.7187 4.6875,-3.9063 17.6563,-6.3281 l 9.5312,-1.9532 q 17.6563,-3.3594 26.0156,-11.875 8.4375,-8.4375 8.4375,-22.6563 0,-16.953 -11.4062,-25.7031 -11.3281,-8.75 -33.2812,-8.75 -8.2813,0 -17.6563,1.875 -9.2969,1.875 -19.2969,5.5469 v 16.25 q 9.6094,-5.3906 18.8281,-8.125 9.2188,-2.7343 18.1251,-2.7343 13.5156,0 20.8593,5.3124 7.3437,5.3125 7.3437,15.1563 0,8.5938 -5.3124,13.4375 -5.2344,4.8437 -17.2656,7.2656 l -9.6094,1.875 q -17.6563,3.5156 -25.5469,11.0156 -7.8907,7.5 -7.8907,20.8594 0,15.4688 10.8594,24.375 10.9375,8.9063 30.0782,8.9063 8.2031,0 16.7187,-1.4844 8.5156,-1.4844 17.4219,-4.4532 z"
       style="font-style:normal;font-weight:normal;font-size:213.33332825px;line-height:1.25;font-family:sans-serif;text-align:center;letter-spacing:0px;word-spacing:0px;text-anchor:middle;fill:#000000;fill-opacity:1;stroke:none;stroke-width:0.75"
       id="path3897" /><path
       d="m 3018.9398,1769.0115 v 52.9687 h 14.375 v -52.4218 q 0,-12.4219 4.8438,-18.6719 4.8437,-6.1719 14.5312,-6.1719 11.6406,0 18.3594,7.4219 6.7968,7.4219 6.7968,20.2344 v 49.6093 h 14.3751 v -87.4999 h -14.3751 v 13.4374 q -5.2343,-7.9687 -12.1875,-11.8749 -6.8749,-3.8282 -16.0155,-3.8282 -15.0782,0 -22.8907,9.375 -7.8125,9.375 -7.8125,27.4219 z m 36.1719,55.0781 z"
       style="font-style:normal;font-weight:normal;font-size:213.33332825px;line-height:1.25;font-family:sans-serif;text-align:center;letter-spacing:0px;word-spacing:0px;text-anchor:middle;fill:#000000;fill-opacity:1;stroke:none;stroke-width:0.75"
       id="path3899" /><path
       d="m 3121.8305,1821.9802 h 14.375 v -87.4999 h -14.375 z m 0,34.0626 h 14.375 v -18.2031 h -14.375 z"
       style="font-style:normal;font-weight:normal;font-size:213.33332825px;line-height:1.25;font-family:sans-serif;text-align:center;letter-spacing:0px;word-spacing:0px;text-anchor:middle;fill:#000000;fill-opacity:1;stroke:none;stroke-width:0.75"
       id="path3901" /><path
       d="m 3180.5024,1846.824 v -24.8438 h 29.6094 v -11.1718 h -29.6094 v -47.5 q 0,-10.7032 2.8906,-13.75 2.9687,-3.0469 11.9531,-3.0469 h 14.7657 v -12.0312 h -14.7657 q -16.6406,0 -22.9687,6.1718 -6.3281,6.2501 -6.3281,22.6563 v 47.5 h -10.5469 v 11.1718 h 10.5469 v 24.8438 z"
       style="font-style:normal;font-weight:normal;font-size:213.33332825px;line-height:1.25;font-family:sans-serif;text-align:center;letter-spacing:0px;word-spacing:0px;text-anchor:middle;fill:#000000;fill-opacity:1;stroke:none;stroke-width:0.75"
       id="path3903" /><path
       d="m 3303.8617,1781.824 v -7.0312 h -66.0938 q 0.9375,-14.8438 8.9063,-22.6563 8.0469,-7.7344 22.3438,-7.7344 8.2812,0 16.0155,2.0313 7.8126,2.0312 15.4688,6.0938 v -13.5938 q -7.7344,-3.2812 -15.8594,-5 -8.1249,-1.7188 -16.4844,-1.7188 -20.9374,0 -33.2031,12.1875 -12.1875,12.1875 -12.1875,32.9688 0,21.4844 11.5626,34.0625 11.6406,12.6562 31.3281,12.6562 17.6562,0 27.8906,-11.4062 10.3125,-11.3282 10.3125,-30.8594 z m -14.375,4.2188 q -0.1563,11.7968 -6.6406,18.8281 -6.4063,7.0312 -17.0313,7.0312 -12.0312,0 -19.2968,-6.7969 -7.1876,-6.7968 -8.2813,-19.1406 z"
       style="font-style:normal;font-weight:normal;font-size:213.33332825px;line-height:1.25;font-family:sans-serif;text-align:center;letter-spacing:0px;word-spacing:0px;text-anchor:middle;fill:#000000;fill-opacity:1;stroke:none;stroke-width:0.75"
       id="path3905" /><path
       d="m 3383.2367,1819.4021 v -13.5937 q -6.0938,3.125 -12.6563,4.6875 -6.5625,1.5625 -13.5937,1.5625 -10.7031,0 -16.0938,-3.2812 -5.3124,-3.2813 -5.3124,-9.8438 0,-5 3.828,-7.8907 3.8282,-2.8125 15.3907,-5.3906 l 4.9219,-1.0937 q 15.3124,-3.2813 21.7187,-9.2969 6.4844,-5.9375 6.4844,-16.6406 0,-12.1875 -9.6875,-19.2969 -9.6094,-7.1094 -26.4844,-7.1094 -7.0312,0 -14.6875,1.4063 -7.5781,1.3281 -16.0156,4.0625 v 14.8438 q 7.9688,-4.1407 15.7031,-6.2501 7.7344,-2.0312 15.3125,-2.0312 10.1563,0 15.625,3.4375 5.4687,3.5156 5.4687,9.8437 0,5.8594 -3.9843,8.9844 -3.9063,3.125 -17.2656,6.0156 l -5.0001,1.1719 q -13.3593,2.8125 -19.2968,8.5938 -5.9375,5.8594 -5.9375,16.0156 0,12.3438 8.75,19.0625 8.75,6.7187 24.8438,6.7187 7.9687,0 15,-1.1719 7.0312,-1.1718 12.9687,-3.5156 z"
       style="font-style:normal;font-weight:normal;font-size:213.33332825px;line-height:1.25;font-family:sans-serif;text-align:center;letter-spacing:0px;word-spacing:0px;text-anchor:middle;fill:#000000;fill-opacity:1;stroke:none;stroke-width:0.75"
       id="path3907" /><path
       d="m 2373.6859,1621.746 q 3.1739,-1.0742 6.1524,-4.5899 3.0273,-3.5156 6.0546,-9.6679 l 10.0098,-19.9219 h -10.5957 l -9.3261,18.7012 q -3.6133,7.3242 -7.0313,9.7168 -3.3691,2.3925 -9.2285,2.3925 h -10.7422 v -30.8105 h -9.8633 v 72.9004 h 22.2656 q 12.5,0 18.6524,-5.2246 6.1524,-5.2246 6.1524,-15.7715 0,-6.8848 -3.2227,-11.4257 -3.1739,-4.5411 -9.2774,-6.2989 z m -24.707,30.6152 v -25.8789 h 12.4023 q 7.129,0 10.7423,3.2715 3.6621,3.3203 3.6621,9.7168 0,6.3965 -3.6621,9.6191 -3.6133,3.2715 -10.7423,3.2715 z"
       style="font-style:normal;font-weight:normal;font-size:133.33332825px;line-height:1.25;font-family:sans-serif;text-align:center;letter-spacing:0px;word-spacing:0px;text-anchor:middle;fill:#000000;fill-opacity:1;stroke:none;stroke-width:0.75"
       id="path3909" /><path
       d="m 2450.4925,1617.1561 v -4.3945 h -41.3085 q 0.5859,-9.2773 5.5664,-14.1602 5.0293,-4.8339 13.9648,-4.8339 5.1758,0 10.0098,1.2695 4.8828,1.2695 9.668,3.8086 v -8.4961 q -4.834,-2.0507 -9.9122,-3.125 -5.0781,-1.0742 -10.3027,-1.0742 -13.0859,0 -20.7519,7.6172 -7.6172,7.6172 -7.6172,20.6055 0,13.4277 7.2265,21.289 7.2755,7.9102 19.5801,7.9102 11.0352,0 17.4317,-7.1289 6.4452,-7.0801 6.4452,-19.2872 z m -8.9843,2.6367 q -0.098,7.3731 -4.1504,11.7677 -4.0039,4.3945 -10.6445,4.3945 -7.5195,0 -12.0606,-4.248 -4.4922,-4.2481 -5.1758,-11.963 z"
       style="font-style:normal;font-weight:normal;font-size:133.33332825px;line-height:1.25;font-family:sans-serif;text-align:center;letter-spacing:0px;word-spacing:0px;text-anchor:middle;fill:#000000;fill-opacity:1;stroke:none;stroke-width:0.75"
       id="path3911" /><path
       d="m 2500.102,1640.6425 v -8.4961 q -3.8086,1.9531 -7.9102,2.9297 -4.1015,0.9765 -8.4961,0.9765 -6.6894,0 -10.0586,-2.0507 -3.3203,-2.0508 -3.3203,-6.1524 0,-3.125 2.3925,-4.9316 2.3926,-1.7578 9.6193,-3.3692 l 3.0761,-0.6835 q 9.5703,-2.0508 13.5742,-5.8106 4.0527,-3.7109 4.0527,-10.4004 0,-7.6172 -6.0546,-12.0605 -6.0059,-4.4434 -16.5528,-4.4434 -4.3945,0 -9.1797,0.8789 -4.7363,0.8301 -10.0097,2.5391 v 9.2773 q 4.9804,-2.5879 9.8144,-3.9063 4.834,-1.2695 9.5703,-1.2695 6.3477,0 9.7657,2.1485 3.4179,2.1972 3.4179,6.1523 0,3.6621 -2.4902,5.6152 -2.4414,1.9532 -10.791,3.7598 l -3.125,0.7324 q -8.3497,1.7578 -12.0606,5.3711 -3.7109,3.6622 -3.7109,10.0098 0,7.7149 5.4688,11.914 5.4687,4.1993 15.5273,4.1993 4.9805,0 9.375,-0.7325 4.3946,-0.7323 8.1055,-2.1972 z"
       style="font-style:normal;font-weight:normal;font-size:133.33332825px;line-height:1.25;font-family:sans-serif;text-align:center;letter-spacing:0px;word-spacing:0px;text-anchor:middle;fill:#000000;fill-opacity:1;stroke:none;stroke-width:0.75"
       id="path3913" /><path
       d="m 2538.5297,1635.955 q -7.2266,0 -11.4258,-5.6641 -4.1992,-5.6152 -4.1992,-15.4297 0,-9.8144 4.1504,-15.4785 4.1992,-5.6152 11.4746,-5.6152 7.1778,0 11.3769,5.664 4.1993,5.6641 4.1993,15.4297 0,9.7169 -4.1993,15.3809 -4.1991,5.7129 -11.3769,5.7129 z m 0,7.6172 q 11.7188,0 18.4082,-7.6172 6.6895,-7.6172 6.6895,-21.0938 0,-13.4277 -6.6895,-21.0937 -6.6894,-7.6172 -18.4082,-7.6172 -11.7675,0 -18.457,7.6172 -6.6407,7.666 -6.6407,21.0937 0,13.4766 6.6407,21.0938 6.6895,7.6172 18.457,7.6172 z"
       style="font-style:normal;font-weight:normal;font-size:133.33332825px;line-height:1.25;font-family:sans-serif;text-align:center;letter-spacing:0px;word-spacing:0px;text-anchor:middle;fill:#000000;fill-opacity:1;stroke:none;stroke-width:0.75"
       id="path3915" /><path
       d="m 2610.2094,1633.8553 q -1.5136,0.879 -3.3203,1.2696 -1.7579,0.4395 -3.9062,0.4395 -7.6173,0 -11.7188,-4.9805 -4.0528,-4.9317 -4.0528,-14.209 v -28.8086 h -9.0332 v 54.6875 h 9.0332 v -8.4961 q 2.8321,4.9805 7.3731,7.3731 4.541,2.4414 11.0352,2.4414 0.9277,0 2.0508,-0.1465 1.123,-0.098 2.4902,-0.3418 z"
       style="font-style:normal;font-weight:normal;font-size:133.33332825px;line-height:1.25;font-family:sans-serif;text-align:center;letter-spacing:0px;word-spacing:0px;text-anchor:middle;fill:#000000;fill-opacity:1;stroke:none;stroke-width:0.75"
       id="path3917" /><path
       d="m 2628.5199,1657.7812 v -15.5274 h 18.5059 v -6.9824 h -18.5059 v -29.6875 q 0,-6.6894 1.8067,-8.5938 1.8554,-1.9043 7.4707,-1.9043 h 9.2285 v -7.5195 h -9.2285 q -10.4004,0 -14.3555,3.8574 -3.955,3.9063 -3.955,14.1602 v 29.6875 h -6.5919 v 6.9824 h 6.5919 v 15.5274 z"
       style="font-style:normal;font-weight:normal;font-size:133.33332825px;line-height:1.25;font-family:sans-serif;text-align:center;letter-spacing:0px;word-spacing:0px;text-anchor:middle;fill:#000000;fill-opacity:1;stroke:none;stroke-width:0.75"
       id="path3919" /><path
       d="m 2705.5219,1626.7753 q -4.4434,-3.9551 -6.543,-7.9101 -2.0507,-3.9063 -2.0507,-8.2032 0,-7.1289 5.1757,-11.8652 5.1758,-4.7363 12.9883,-4.7363 4.6387,0 8.6914,1.5136 4.0527,1.5625 7.6172,4.6875 z m 6.8848,5.4687 24.8046,-25.3906 q 2.8809,4.3457 4.4922,9.2773 1.6113,4.9806 1.9044,10.5469 h 9.0819 q -0.5859,-6.4453 -3.1249,-12.7441 -2.5391,-6.2988 -7.0801,-12.4512 l 13.623,-13.916 h -12.3046 l -6.9825,7.1777 q -5.0781,-4.3457 -10.6445,-6.4941 -5.5664,-2.0996 -11.9629,-2.0996 -11.7676,0 -19.2383,6.6895 -7.4707,6.7382 -7.4707,17.2363 0,6.25 3.2715,11.7187 3.2715,5.5176 9.8145,10.3516 -2.3438,3.0762 -3.5645,6.1035 -1.2207,3.0762 -1.2207,6.0058 0,7.9102 5.4199,12.6954 5.4199,4.8339 14.4043,4.8339 4.0527,0 8.0567,-0.8788 4.0527,-0.8789 8.2031,-2.6368 v -8.8867 q -4.2481,2.295 -8.1055,3.4668 -3.8574,1.2207 -7.1777,1.2207 -5.127,0 -8.3497,-2.7344 -3.1737,-2.6855 -3.1737,-6.9824 0,-2.4902 1.416,-5.0293 1.4648,-2.4902 5.9082,-7.0801 z"
       style="font-style:normal;font-weight:normal;font-size:133.33332825px;line-height:1.25;font-family:sans-serif;text-align:center;letter-spacing:0px;word-spacing:0px;text-anchor:middle;fill:#000000;fill-opacity:1;stroke:none;stroke-width:0.75"
       id="path3921" /><path
       d="m 2844.4868,1658.0741 v -9.6191 q -5.6153,2.6855 -10.5958,4.0039 -4.9805,1.3183 -9.6191,1.3183 -8.0567,0 -12.4512,-3.1249 -4.3457,-3.1251 -4.3457,-8.8868 0,-4.834 2.8808,-7.3242 2.9298,-2.4414 11.0352,-3.955 l 5.9571,-1.2207 q 11.0351,-2.0997 16.2597,-7.422 5.2734,-5.2734 5.2734,-14.1601 0,-10.5957 -7.1289,-16.0645 -7.08,-5.4687 -20.8008,-5.4687 -5.1757,0 -11.0351,1.1719 -5.8105,1.1719 -12.0605,3.4668 v 10.1562 q 6.0058,-3.3691 11.7676,-5.0781 5.7617,-1.709 11.328,-1.709 8.4474,0 13.0372,3.3203 4.5898,3.3203 4.5898,9.4727 0,5.3711 -3.3203,8.3984 -3.2715,3.0273 -10.791,4.5411 l -6.0059,1.1718 q -11.0351,2.1972 -15.9667,6.8847 -4.9317,4.6875 -4.9317,13.0372 0,9.668 6.7871,15.2344 6.8359,5.5663 18.7988,5.5663 5.127,0 10.4492,-0.9276 5.3223,-0.9278 10.8888,-2.7833 z"
       style="font-style:normal;font-weight:normal;font-size:133.33332825px;line-height:1.25;font-family:sans-serif;text-align:center;letter-spacing:0px;word-spacing:0px;text-anchor:middle;fill:#000000;fill-opacity:1;stroke:none;stroke-width:0.75"
       id="path3923" /><path
       d="m 2872.5629,1595.7694 v -29.0039 h -9.0332 v 75.4883 h 9.0332 v -8.3007 q 2.832,4.8828 7.1289,7.2265 4.3457,2.3926 10.3516,2.3926 9.9609,0 16.1621,-7.9102 6.25,-7.9102 6.25,-20.8008 0,-12.8906 -6.25,-20.8007 -6.2012,-7.9102 -16.1621,-7.9102 -6.0059,0 -10.3516,2.3438 -4.2969,2.3925 -7.1289,7.2753 z m 30.5664,19.0918 q 0,9.9122 -4.1016,15.5274 -4.0527,5.664 -11.1816,5.664 -7.1289,0 -11.2305,-5.664 -4.0527,-5.6152 -4.0527,-15.5274 0,-9.9121 4.0527,-15.5761 4.1016,-5.6153 11.2305,-5.6153 7.1289,0 11.1816,5.6153 4.1016,5.664 4.1016,15.5761 z"
       style="font-style:normal;font-weight:normal;font-size:133.33332825px;line-height:1.25;font-family:sans-serif;text-align:center;letter-spacing:0px;word-spacing:0px;text-anchor:middle;fill:#000000;fill-opacity:1;stroke:none;stroke-width:0.75"
       id="path3925" /><path
       d="m 2952.2015,1615.0565 q -10.8886,0 -15.0879,-2.4902 -4.1991,-2.4902 -4.1991,-8.4961 0,-4.7851 3.1249,-7.6171 3.1739,-2.7833 8.5938,-2.7833 7.4707,0 11.9629,5.2735 4.541,5.3222 4.541,14.1113 v 2.0019 z m 17.92,3.711 v -31.2012 h -8.9844 v 8.3008 q -3.0762,-4.9805 -7.666,-7.373 -4.5899,-2.3438 -11.2305,-2.3438 -8.3984,0 -13.3789,4.6875 -4.9316,4.7363 -4.9316,12.6465 0,9.2285 6.1523,13.916 6.2012,4.6875 18.457,4.6875 h 12.5977 v 0.8789 q 0,6.2011 -4.1016,9.5703 -4.0527,3.418 -11.4257,3.418 -4.6875,0 -9.1309,-1.1231 -4.4434,-1.123 -8.5449,-3.3691 v 8.3008 q 4.9316,1.9043 9.5703,2.832 4.6387,0.9766 9.0332,0.9766 11.8653,0 17.7246,-6.1523 5.8594,-6.1524 5.8594,-18.6524 z"
       style="font-style:normal;font-weight:normal;font-size:133.33332825px;line-height:1.25;font-family:sans-serif;text-align:center;letter-spacing:0px;word-spacing:0px;text-anchor:middle;fill:#000000;fill-opacity:1;stroke:none;stroke-width:0.75"
       id="path3927" /></g></svg>