<?xml version="1.0" encoding="UTF-8" standalone="no"?>
<svg
   xmlns:dc="http://purl.org/dc/elements/1.1/"
   xmlns:cc="http://creativecommons.org/ns#"
   xmlns:rdf="http://www.w3.org/1999/02/22-rdf-syntax-ns#"
   xmlns:svg="http://www.w3.org/2000/svg"
   xmlns="http://www.w3.org/2000/svg"
   viewBox="0 0 4591.2837 2670.1721"
   height="2670.1721"
   width="4591.2837"
   xml:space="preserve"
   id="svg2"
   version="1.1"><metadata
     id="metadata8"><rdf:RDF><cc:Work
         rdf:about=""><dc:format>image/svg+xml</dc:format><dc:type
           rdf:resource="http://purl.org/dc/dcmitype/StillImage" /><dc:title></dc:title></cc:Work></rdf:RDF></metadata><defs
     id="defs6"><clipPath
       id="clipPath18"
       clipPathUnits="userSpaceOnUse"><path
         id="path16"
         d="M 0,5000 H 5000 V 0 H 0 Z" /></clipPath></defs><g
     transform="matrix(1.3333333,0,0,-1.3333333,-1037.6908,4759.1928)"
     id="g10"><g
       id="g14"
       clip-path="url(#clipPath18)"><g
         id="g20"
         transform="translate(778.2681,2350.8896)"><path
           d="M 0,0 C 394.543,-446.904 1297.241,-173.458 2111.058,-19.805 2386.437,32.17 3251.312,212.197 3443.463,-234.466 2614.333,312.041 549.936,-848.259 0,0"
           style="fill:#488f1a;fill-opacity:1;fill-rule:nonzero;stroke:none"
           id="path22" /></g><g
         id="g24"
         transform="translate(3975.0938,1922.1475)"><path
           d="m 0,0 c 90.521,314.263 -1069.972,174.811 -1229.809,152.35 181.621,63.228 648.669,143.654 978.775,111.822 C -123.947,251.902 253.979,158.146 -0.001,0.048 Z"
           style="fill:#7fc41c;fill-opacity:1;fill-rule:nonzero;stroke:none"
           id="path26" /></g><g
         id="g28"
         transform="translate(3779.5605,2686.8887)"><path
           d="m 0,0 c 2.608,0.193 4.106,0 4.3,-1.256 1.062,-5.796 6.52,-5.362 7.583,-7.632 1.014,-2.366 6.328,-1.642 5.99,0.58 -0.339,2.174 -9.274,11.544 -5.41,12.462 3.912,0.918 2.366,3.381 3.477,4.058 1.112,0.676 4.009,-2.657 4.589,-5.459 0.628,-2.801 2.802,-3.912 2.802,-3.236 0.048,0.676 -0.435,12.8 0.966,12.559 1.401,-0.242 2.077,1.884 2.415,2.801 0.29,0.966 3.962,0.677 3.962,0.677 0,0 2.125,7.535 5.748,2.705 3.671,-4.831 2.028,-6.762 2.028,-6.762 0,0 2.753,5.892 4.927,2.898 2.174,-2.995 1.739,-2.754 4.058,-5.845 2.367,-3.14 4.685,0.097 5.555,-1.981 0.869,-2.125 5.12,-2.125 5.12,-2.125 0,0 -0.676,9.709 1.207,9.66 1.933,-0.144 5.024,-0.917 5.024,-4.685 0,-3.671 2.898,-3.526 2.898,-3.526 0,0 -1.593,7.777 0.097,8.984 1.643,1.305 1.835,-1.738 3.815,-2.994 1.981,-1.256 3.382,3.575 4.058,-0.242 0.725,-3.816 2.754,-0.241 2.416,2.463 -0.29,2.754 -5.556,0.87 -5.507,4.155 0.048,3.236 0.289,4.54 0.289,4.54 0,0 4.638,0.967 6.135,3.14 1.449,2.174 4.01,-5.072 4.01,-5.072 0,0 4.492,6.328 0.579,9.275 -3.912,2.898 -1.546,6.955 0.967,8.211 2.511,1.304 2.415,-3.478 3.815,-3.719 1.4,-0.242 2.512,-4.396 2.512,-4.396 0,0 2.898,11.883 5.651,13.767 2.802,1.787 5.072,4.105 6.087,3.478 1.063,-0.774 4.782,-6.039 4.782,-6.039 0,0 -1.546,14.588 0.628,15.602 2.174,1.015 5.12,0.339 5.12,0.339 l 0.822,-6.135 c 0,0 3.912,10.096 5.554,10.434 1.643,0.338 4.734,-1.305 4.734,-1.305 0,0 -1.981,-5.313 -0.145,-6.086 1.835,-0.821 3.622,3.333 4.057,3.768 0.434,0.483 2.608,3.526 2.754,5.652 0.193,2.222 0.724,1.062 1.69,-2.078 0.966,-3.091 2.415,-1.062 2.609,2.319 0.193,3.333 -1.063,3.333 0.628,4.54 1.642,1.16 8.694,19.419 11.158,25.214 2.415,5.75 9.177,20.144 13.524,23.621 4.348,3.43 5.894,10.289 5.894,10.289 0,0 -5.314,-3.72 -5.12,0 0.192,3.719 1.98,5.7 2.607,7.535 0.628,1.884 1.305,6.956 0.628,15.747 -0.676,8.791 3.816,9.517 4.348,12.511 0.531,2.995 -4.009,5.99 -4.009,5.99 l 4.491,6.955 c 0,0 -12.848,1.643 -13.187,-5.313 -0.337,-6.956 5.411,-14.83 0.533,-18.549 -4.831,-3.719 -9.516,-7.825 -10.724,-12.511 -1.256,-4.636 -4.202,-11.592 -9.612,-12.945 -5.362,-1.4 -9.709,3.044 -5.893,5.555 3.863,2.56 6.086,7.874 8.163,10.386 2.076,2.56 4.83,13.862 5.893,13.862 1.062,0 1.932,2.126 3.671,2.126 1.739,0 4.347,-3.284 5.217,9.95 0.87,13.187 4.202,14.347 4.202,14.347 0,0 9.371,9.709 9.902,16.665 0.532,6.955 0.869,8.501 1.884,9.032 1.063,0.435 5.024,9.468 4.154,19.177 -0.869,9.757 -1.546,17.582 -1.546,17.582 0,0 -7.825,-6.714 -7.486,-16.423 0.338,-9.757 -5.748,-6.714 -13.38,-12.269 -7.633,-5.507 -10.435,-8.791 -12.85,-15.699 -2.415,-6.955 -11.302,-1.4 -12.124,-9.033 -0.869,-7.631 -6.762,-6.521 -7.148,-3.961 -0.338,2.561 -3.43,12.318 1.4,12.994 4.879,0.676 6.618,2.802 7.633,10.192 1.062,7.391 2.27,8.067 4.878,10.192 2.608,2.078 5.024,7.391 5.024,7.391 0,0 -6.667,0.483 -7.632,4.733 -0.966,4.3 1.883,2.802 2.415,4.3 0.531,1.545 3.816,12.752 2.801,15.795 -1.062,2.995 -4.443,-0.724 -4.443,-0.724 l 2.705,-1.498 c 0,0 -2.222,11.11 -0.677,13.525 1.546,2.415 5.217,2.077 5.217,2.077 0,0 3.381,8.501 -3.767,11.593 -7.15,2.995 -8.163,-0.483 -7.15,-1.642 1.063,-1.208 8.164,-1.45 8.164,-1.45 0,0 -5.893,16.713 -0.339,17.39 5.556,0.676 7.971,-2.802 8.696,0 0.676,2.753 -0.532,6.472 -1.546,12.269 -1.015,5.797 5.892,7.149 6.956,7.149 1.061,0 -6.956,2.077 -4.541,7.439 2.463,5.313 7.825,3.719 7.825,3.719 0,0 -3.623,23.379 0.531,26.18 4.155,2.802 2.609,9.951 5.555,12.752 2.995,2.754 6.811,10.144 6.811,10.144 0,0 -17.196,-3.236 -18.404,-6.907 -1.207,-3.768 -5.361,4.589 -5.554,5.989 -0.194,1.401 -10.242,-5.361 -11.449,-14.394 -1.256,-8.984 -9.419,-18.452 -19.659,-25.408 -10.241,-6.955 -15.265,0.725 -13.235,5.797 2.125,5.071 -4.348,-0.724 4.879,6.473 9.225,7.197 9.95,16.23 9.95,18.306 0,2.029 4.975,-6.472 4.975,-6.472 l 2.078,11.785 c 0,0 1.738,-3.719 4.878,-0.434 3.139,3.236 -2.222,13.332 0.87,15.409 3.139,2.077 6.134,-1.594 5.844,2.608 -0.338,4.106 -7.1,5.603 -6.231,8.647 0.869,2.995 7.197,5.893 7.197,5.893 0,0 -0.338,11.158 -4.105,5.796 -3.72,-5.313 -5.266,1.836 -7.873,-3.333 -2.61,-5.217 -1.402,-6.811 -0.194,-9.95 1.207,-3.14 0.338,-6.376 -1.401,-4.83 -1.738,1.497 -2.077,5.023 -4.009,3.091 -1.884,-1.981 -7.197,-5.459 -8.163,-2.319 -0.966,3.091 -4.492,3.333 -0.629,5.893 3.913,2.561 3.913,2.415 4.059,3.865 0.193,1.352 -7.44,-7.295 -9.516,-1.981 -2.078,5.313 -3.574,7.536 -0.628,9.854 2.947,2.27 2.609,4.975 5.555,4.975 2.946,0 6.859,0.917 3.043,4.058 -3.817,3.091 -4.444,8.115 -4.348,10.627 0.097,2.56 -1.884,14.297 2.271,17.051 4.153,2.802 -0.097,8.018 1.11,10.385 1.208,2.463 4.444,4.879 4.444,4.879 0,0 0.338,5.555 -2.85,5.313 -3.188,-0.241 -6.665,-1.545 -6.617,1.498 0.096,3.042 6.956,0.724 8.502,4.202 1.545,3.478 -1.836,7.294 -2.658,11.593 -0.917,4.25 -3.09,17.002 0.146,25.263 3.187,8.163 2.415,21.253 3.043,26.325 0.628,5.12 3.14,1.642 3.14,8.115 0,6.472 -1.305,11.593 -1.305,11.593 0,0 -4.444,-2.995 -4.25,-11.835 0.192,-8.791 -2.174,-12.849 -6.232,-6.956 -4.057,5.893 -4.251,8.067 -8.355,4.396 -4.059,-3.671 -6.667,-2.656 -7.198,2.657 -0.531,5.314 -8.598,9.516 1.352,8.115 9.999,-1.401 11.207,1.739 11.207,1.739 0,0 -10.966,3.719 -9.274,7.197 1.69,3.478 2.898,4.396 4.202,5.893 1.305,1.497 0,15.457 0,15.457 0,0 -5.12,-6.086 -5.217,-10.965 -0.097,-4.83 -3.767,-12.607 -5.989,-8.55 -2.271,4.106 -6.618,0.822 -7.294,6.473 -0.676,5.7 -1.159,5.411 0.29,9.854 1.353,4.444 1.449,7.198 0.338,10.434 -1.159,3.188 -0.097,14.926 -0.097,14.926 0,0 -11.255,-7.68 -10.578,-17.341 0.676,-9.758 0.53,-13.719 -2.27,-15.796 -2.802,-2.077 -4.493,2.415 -4.493,3.14 0,0.677 -1.98,2.319 -2.705,-3.574 -0.675,-5.845 1.497,-6.812 -1.352,-7.777 -2.899,-0.918 -5.99,-3.865 -5.99,-3.865 0,0 -3.236,8.55 -0.724,10.869 2.559,2.318 -2.657,13.09 0.386,14.395 3.044,1.255 7.439,2.317 8.26,5.989 0.773,3.719 4.057,23.378 0.966,32.894 -3.139,9.468 -5.941,10.82 -5.941,10.82 0,0 2.077,-10.82 -3.285,-16.664 -5.41,-5.748 -9.033,-14.588 -9.033,-14.588 0,0 -10.433,14.346 -4.685,20.094 5.748,5.797 5.556,15.989 5.556,15.989 0,0 8.694,8.115 11.109,33.136 2.415,24.973 0.339,31.494 0.339,31.494 0,0 -7.971,-26.856 -7.488,-32.412 0.532,-5.555 -8.695,-17.63 -11.303,-17.147 -2.609,0.482 -3.816,8.356 -4.685,12.51 -0.87,4.154 -7.295,-0.435 -4.203,6.28 3.14,6.713 0.725,4.637 4.348,3.478 3.623,-1.16 -0.725,8.742 2.753,14.587 3.478,5.748 0.87,15.023 3.816,25.456 2.946,10.386 -5.41,15.264 -5.41,15.264 0,0 -8.84,-21.108 -13.042,-25.021 -4.153,-3.961 -8.501,-6.666 -9.371,-0.918 -0.821,5.797 -9.902,0.242 -7.777,10.192 2.078,9.95 -8.502,10.869 -3.285,12.752 5.217,1.836 14.057,-0.483 14.057,-0.483 0,0 -14.057,13.187 -14.057,17.341 0,4.203 2.077,5.796 8.647,-1.594 6.618,-7.438 6.182,-2.125 6.182,-2.125 0,0 1.402,11.013 -1.738,13.863 -3.14,2.898 0.773,7.97 2.077,5.458 1.305,-2.56 3.768,-6.279 3.768,-6.279 0,0 -2.802,7.632 0.676,11.11 3.526,3.478 5.121,1.159 5.652,5.893 0.531,4.782 -0.387,9.854 -0.387,9.854 0,0 -2.028,-10.096 -6.087,-9.854 -4.057,0.241 -2.946,8.404 -2.415,11.11 0.532,2.656 -2.269,22.219 -2.269,22.219 0,0 -0.677,-16.037 -3.14,-14.201 -2.415,1.836 -5.556,7.052 -6.666,2.415 -1.159,-4.589 -2.995,-3.816 -4.251,-12.124 -1.304,-8.308 -5.797,-2.319 -6.52,0.676 -0.725,2.995 3.043,1.015 3.38,7.052 0.338,5.99 -2.173,22.8 0.338,24.684 2.513,1.787 2.513,9.805 2.513,9.805 0,0 -3.961,-2.898 -4.348,2.898 -0.338,5.797 1.256,9.275 1.256,9.275 l 1.159,9.95 c 0,0 -3.815,-7.825 -6.231,-3.333 -2.415,4.493 -6.811,7.584 -8.212,8.309 -1.351,0.676 -11.158,35.406 -11.158,35.406 0.145,-9.999 -11.834,-30.19 -12.413,-37.387 -1.692,-23.186 6.907,-39.367 0.531,-37.145 -5.7,1.98 2.076,-23.475 -0.918,-21.205 -2.947,2.318 -8.356,7.052 -7.922,3.67 0.435,-3.332 3.381,-4.636 3.043,-8.791 -0.387,-4.203 0.677,-10.095 -1.836,-8.549 -2.511,1.497 -4.878,8.308 -7.632,9.805 -2.801,1.546 -5.989,-5.748 -5.12,-7.825 0.87,-2.125 5.362,0.048 6.86,-9.516 1.497,-9.564 1.739,-11.544 2.849,-12.8 1.112,-1.256 7.488,-0.773 5.217,-8.695 -2.222,-7.825 -4.927,-0.87 -4.299,-4.734 0.58,-3.864 7.053,-2.898 8.937,-6.956 1.883,-4.057 -1.546,-4.878 -4.01,-5.119 -2.415,-0.291 -3.14,-4.686 -3.14,-4.686 0,0 4.009,1.691 4.589,-2.415 0.628,-4.057 3.768,-5.555 4.058,-9.709 0.338,-4.155 -3.382,-12.511 -6.038,-9.178 -2.705,3.333 -5.652,15.167 -8.598,19.66 -2.947,4.492 -2.126,6.134 -5.99,11.254 -3.912,5.072 -2.609,21.495 -2.609,21.495 0,0 -7.197,-2.656 -6.568,-7.728 0.579,-5.12 2.366,-17.727 0.435,-18.645 -1.885,-0.918 -4.589,-2.995 -3.044,-8.308 1.546,-5.362 3.623,-8.937 3.623,-10.772 0,-1.836 7.633,-8.405 4.879,-10.724 -2.802,-2.318 -9.709,-2.995 -8.502,-8.114 1.208,-5.12 9.177,0 8.841,-4.638 -0.339,-4.588 -6.57,0 -4.494,-8.984 2.029,-9.033 2.802,5.072 9.178,0.193 6.425,-4.83 0.387,-7.825 2.077,-12.704 1.74,-4.879 2.223,5.748 3.72,6.618 1.546,0.772 -1.208,-5.941 0.725,-9.274 1.932,-3.382 2.608,7.631 4.685,4.54 2.077,-3.14 0.338,-7.632 0.725,-9.033 0.338,-1.4 -3.478,-3.961 -3.043,-7.294 0.434,-3.333 4.878,-3.236 2.946,-5.168 -1.885,-1.98 -5.99,-5.7 -6.425,-9.661 -0.434,-3.913 -5.748,-5.555 -5.217,2.367 0.532,7.825 -2.125,17.921 -4.492,20.674 -2.366,2.802 -11.013,-5.314 -11.737,-7.631 -0.726,-2.319 -7.148,1.931 -5.361,11.93 1.738,9.95 -5.218,7.197 -8.02,8.598 -2.753,1.401 -7.437,2.319 -6.762,-6.763 0.676,-9.032 0.676,-34.73 0.676,-34.73 0,0 -5.748,-3.091 -7.294,-0.193 -1.545,2.85 -6.52,-2.801 -4.684,-5.555 1.835,-2.802 3.332,-3.623 3.671,-4.202 0.337,-0.58 3.38,-0.193 3.815,-6.569 0.435,-6.425 -5.651,-2.223 -3.236,-5.7 2.464,-3.43 3.768,-2.753 4.347,-5.169 0.628,-2.463 2.368,-6.617 2.368,-6.617 0,0 2.511,-2.705 0.434,-4.299 -2.077,-1.691 1.015,-5.121 0.338,-6.57 -0.725,-1.546 -7.148,-1.787 -7.729,1.16 -0.627,2.85 -1.11,4.299 -1.303,7.583 -0.194,3.382 -3.237,3.72 -4.107,8.502 -0.869,4.685 -2.415,11.544 -2.415,11.544 0,0 -3.284,0.097 -2.656,-5.217 0.58,-5.265 0.482,-11.109 0.097,-11.206 -0.435,-0.097 -3.237,-2.415 -2.705,-4.734 0.531,-2.318 1.932,-6.956 0.337,-9.757 -1.544,-2.753 -6.278,0 -0.869,-7.197 5.363,-7.15 9.709,-4.782 9.709,-8.067 0,-3.236 0.194,-2.077 -8.84,-13.187 -9.032,-11.158 -13.138,-4.299 -11.06,1.933 2.076,6.278 3.235,5.458 3.284,8.308 0.097,2.898 -1.208,3.622 -3.043,1.159 -1.787,-2.463 -9.709,-4.058 -9.661,-5.989 0.097,-2.03 0.338,-7.778 0.338,-9.758 0,-1.932 -5.168,-0.483 -6.521,4.589 -1.4,5.071 -7.631,3.719 -7.149,0.241 0.532,-3.478 3.816,-3.236 1.739,-6.714 -2.076,-3.477 -6.424,-4.299 -5.458,-6.231 0.966,-1.98 2.077,-1.159 3.14,-3.575 1.015,-2.463 5.651,1.353 7.294,-0.483 1.642,-1.883 0.339,-3.961 -2.705,-6.521 -3.043,-2.512 -3.188,-9.612 -1.207,-11.254 1.979,-1.595 7.776,-8.212 7.776,-13.139 0,-4.975 -1.642,-7.632 1.498,-9.033 3.14,-1.449 11.979,-7.197 13.911,-10.82 1.884,-3.526 3.14,-14.636 -1.593,-13.766 -4.687,0.966 -5.122,-0.725 -9.034,8.55 -3.912,9.274 -11.255,15.167 -11.255,15.167 0,0 -0.338,-7.922 1.256,-16.762 1.546,-8.791 -1.594,-12.365 1.159,-15.07 2.802,-2.657 6.86,-0.773 6.86,-5.845 0,-5.12 2.318,-8.357 4.54,-10.047 2.174,-1.739 -2.415,-0.145 2.657,-5.941 5.168,-5.797 5.748,-7.198 5.748,-7.198 l -7.294,-2.415 7.97,-4.299 c 0,0 -4.54,-3.478 -3.72,-4.589 0.726,-1.207 15.699,1.933 15.892,-1.545 0.145,-3.43 -1.545,-5.507 0.435,-6.328 1.981,-0.773 3.671,2.415 4.976,-2.56 1.305,-4.976 -0.967,-4.637 4.879,-4.976 5.796,-0.338 5.555,-0.724 6.23,-3.912 0.677,-3.285 4.058,-5.072 3.913,-9.95 -0.193,-4.879 -6.231,-6.28 -7.825,1.593 -1.546,7.874 -1.401,5.797 -8.694,5.072 -7.295,-0.676 -11.98,-2.077 -13.043,6.038 -1.062,8.115 -2.802,12.753 -11.641,18.742 -8.84,5.99 -0.531,5.99 -10.578,10.627 -10.096,4.637 -12.511,8.308 -12.848,13.187 -0.339,4.878 -3.961,16.471 -3.961,16.471 0,0 -6.086,-13.186 -4.204,-27.098 1.933,-13.912 6.764,-8.308 8.502,-19.031 1.739,-10.627 -4.154,-9.034 4.685,-18.984 8.841,-9.95 6.28,-16.906 6.28,-16.906 0,0 -10.965,-6.714 -15.458,-2.27 -4.54,4.395 -4.926,8.791 -1.303,10.53 3.67,1.69 -7.874,5.844 -7.97,10.868 -0.098,4.976 1.207,4.395 0.096,7.391 -1.16,3.043 -2.511,8.114 -2.463,9.177 0.096,1.014 -4.348,-2.995 -4.879,-7.535 -0.532,-4.493 3.285,-10.675 2.946,-13.429 -0.338,-2.753 -0.772,-14.201 -0.772,-14.201 0,0 -4.251,-2.366 -5.121,5.748 -0.87,8.116 -4.637,8.936 -4.637,8.936 0,0 1.063,-4.975 -0.338,-7.196 -1.401,-2.223 -3.381,-4.638 -3.526,-5.217 -0.193,-0.58 4.927,-3.575 4.927,-3.575 0,0 1.497,-2.898 3.719,-12.801 2.27,-9.95 -0.869,-9.95 7.826,-16.471 8.694,-6.473 10.578,-8.743 5.699,-9.226 -4.878,-0.435 -12.51,3.478 -12.51,0.725 0,-2.753 5.023,-4.155 7.969,-6.714 2.947,-2.609 0.87,-7.874 0.87,-9.951 0,-2.125 7.439,12.897 8.309,8.743 0.917,-4.202 -3.623,-14.588 1.062,-17.341 4.685,-2.754 6.617,1.642 6.956,-2.512 0.339,-4.154 1.4,-7.632 2.221,-7.632 0.87,0 2.271,19.418 4.01,9.468 1.739,-9.903 4.154,-8.985 1.594,-13.863 -2.609,-4.831 -11.979,-9.71 -12.849,-3.961 -0.869,5.796 -0.193,9.08 -8.163,14.587 -7.97,5.555 -15.07,6.715 -17.872,19.66 -2.802,12.993 -8.695,13.428 -8.695,13.428 0,0 0,-20.819 0.725,-32.846 0.724,-12.076 4.202,-10.675 7.632,-20.385 3.478,-9.708 6.279,-15.263 8.357,-16.664 2.076,-1.353 5.216,-3.671 4.541,-7.825 -0.726,-4.154 -2.802,-9.709 -1.74,-14.347 1.015,-4.636 12.8,0 12.8,0 0,0 2.271,-12.993 -3.815,-15.312 -6.087,-2.27 -11.834,7.198 -13.042,12.318 -1.208,5.072 -16.665,9.467 -17.341,16.665 -0.725,7.196 -6.474,9.032 -7.487,17.582 -1.063,8.598 -4.879,14.153 -4.879,14.153 0,0 -0.532,-7.294 -0.773,-9.613 -0.241,-2.318 1.305,-6.279 2.609,-11.834 1.303,-5.507 -4.589,-10.095 -1.45,-14.056 3.14,-3.912 6.232,-5.651 6.329,-6.811 0.047,-1.159 -2.996,-8.453 5.361,-29.32 8.356,-20.819 20.48,-27.775 20.48,-27.775 0,0 -6.617,-5.989 -18.017,0.966 -11.495,6.908 -14.249,9.226 -14.249,14.781 0,5.555 -9.709,12.946 -9.709,12.946 0,0 -0.725,-17.583 0.338,-21.302 1.014,-3.671 7.294,2.753 8.694,-8.792 1.353,-11.544 -5.94,-9.226 2.077,-15.698 8.019,-6.473 25.36,-2.802 25.36,-2.802 0,0 -15.458,-15.747 -22.268,-8.067 -6.763,7.632 -9.371,1.159 -8.163,-0.676 1.207,-1.835 1.738,-7.197 13.718,-9.709 11.689,-2.512 13.138,-1.014 11.448,-7.197 l -4.299,4.83 -20.239,-23.089 c 2.753,-1.787 6.134,-3.333 6.81,-3.574 1.208,-0.435 2.561,2.898 4.155,-0.532 1.593,-3.381 -3.189,-9.419 -3.189,-9.419 0,0 4.735,-1.111 7.777,-0.096 3.091,0.966 4.396,1.546 9.129,-2.03 3.817,-2.801 6.086,-3.284 8.888,-1.448 2.367,0.144 4.928,1.063 7.053,1.255 1.594,-1.932 2.753,-4.975 3.333,-5.989 0.097,-0.145 0.145,-0.339 0.193,-0.531 -0.918,-1.643 -2.56,-3.092 -4.202,-4.493 -1.062,-0.048 -2.223,0.339 -3.43,1.305 -4.782,3.912 -8.453,-7.053 -14.056,-4.976 -5.603,2.125 -9.419,1.691 -18.162,-1.546 -8.744,-3.139 -11.739,-10.24 -16.665,-4.057 -4.975,6.231 -14.491,3.526 -14.491,3.526 0,0 3.719,-5.362 8.308,-12.028 4.54,-6.617 12.462,-8.646 13.477,-8.018 1.013,0.628 2.173,-0.048 6.279,-3.816 4.154,-3.815 16.471,-1.594 16.471,-1.594 0,0 3.091,2.126 10.917,-5.12 7.728,-7.246 7.97,-3.043 9.274,-1.594 1.305,1.497 3.043,1.015 3.864,1.932 0.773,0.87 8.985,-3.623 11.931,-3.333 2.946,0.242 7.535,-1.062 11.738,0.676 0.145,0.049 0.29,0.097 0.483,0.145 0.627,-0.821 1.4,-1.787 2.173,-2.705 -0.434,-1.835 -1.835,-4.154 -4.008,-5.893 -4.831,-3.816 -10.772,-2.076 -14.202,-0.387 -3.43,1.788 -9.178,0.243 -14.83,-1.689 -5.65,-1.933 -5.554,7.728 -9.563,11.688 -4.009,3.913 -12.849,-8.114 -12.849,-8.114 l 7.149,-0.339 c 0,0 -1.787,-5.699 0.242,-7.052 2.028,-1.401 5.748,2.077 9.999,-3.864 4.202,-5.941 7.486,-8.405 8.935,-9.033 1.45,-0.579 3.913,-0.242 6.039,-2.367 2.125,-2.077 -3.865,-4.347 -3.865,-4.347 0,0 4.879,-2.802 10.047,-1.208 4.202,1.352 24.007,-44.149 44.874,-36.131 1.884,0.725 0.966,-0.338 2.899,-2.173 1.931,-1.884 4.105,-1.643 3.187,0.82 -0.869,2.464 -1.111,3.382 -0.482,3.093 11.737,-9.42 22.605,-9.42 33.329,-12.801 48.207,-15.168 20.626,-234.755 15.312,-295.425 L 4.64,-306.582 C 4.64,-249.295 -27.724,-16.665 0.051,0 Z"
           style="fill:#488f1a;fill-opacity:1;fill-rule:nonzero;stroke:none"
           id="path30" /></g><g
         id="g32"
         transform="translate(3397.1416,2591.4409)"><path
           d="m 0,0 c 2.125,0.193 3.382,0 3.526,-1.015 0.87,-4.781 5.362,-4.395 6.231,-6.278 0.869,-1.933 5.217,-1.353 4.928,0.482 -0.29,1.788 -7.633,9.516 -4.445,10.241 3.237,0.773 1.933,2.753 2.85,3.333 0.918,0.579 3.285,-2.174 3.767,-4.493 0.533,-2.27 2.32,-3.236 2.32,-2.656 0.048,0.579 -0.339,10.53 0.772,10.337 1.159,-0.194 1.739,1.545 1.981,2.318 0.241,0.822 3.236,0.58 3.236,0.58 0,0 1.738,6.231 4.733,2.222 2.996,-4.009 1.643,-5.555 1.643,-5.555 0,0 2.271,4.83 4.058,2.367 1.787,-2.464 1.401,-2.27 3.333,-4.831 1.932,-2.608 3.864,0.097 4.588,-1.594 0.725,-1.738 4.203,-1.738 4.203,-1.738 0,0 -0.579,8.018 1.014,7.921 1.594,-0.096 4.155,-0.772 4.155,-3.864 0,-2.995 2.366,-2.899 2.366,-2.899 0,0 -1.304,6.377 0.049,7.391 1.352,1.063 1.497,-1.4 3.139,-2.463 1.643,-1.063 2.802,2.946 3.333,-0.193 0.58,-3.14 2.271,-0.194 2.029,2.028 -0.242,2.27 -4.54,0.725 -4.54,3.43 0.047,2.657 0.241,3.72 0.241,3.72 0,0 3.816,0.82 5.023,2.608 1.208,1.787 3.284,-4.154 3.284,-4.154 0,0 3.72,5.216 0.484,7.631 -3.237,2.367 -1.256,5.7 0.821,6.763 2.077,1.063 1.981,-2.85 3.14,-3.043 1.159,-0.193 2.077,-3.623 2.077,-3.623 0,0 2.366,9.806 4.637,11.352 2.27,1.497 4.154,3.381 5.024,2.849 0.869,-0.628 3.912,-4.975 3.912,-4.975 0,0 -1.304,12.028 0.531,12.849 1.787,0.821 4.203,0.29 4.203,0.29 l 0.676,-5.072 c 0,0 3.237,8.308 4.54,8.598 1.353,0.289 3.913,-1.063 3.913,-1.063 0,0 -1.642,-4.347 -0.096,-5.024 1.497,-0.676 2.995,2.754 3.332,3.092 0.339,0.386 2.174,2.899 2.271,4.637 0.145,1.836 0.579,0.869 1.401,-1.691 0.772,-2.56 1.98,-0.869 2.125,1.884 0.144,2.754 -0.87,2.754 0.482,3.719 1.354,0.967 7.149,15.989 9.179,20.771 1.979,4.734 7.535,16.569 11.157,19.418 3.575,2.851 4.831,8.454 4.831,8.454 0,0 -4.348,-3.044 -4.203,0 0.145,3.091 1.643,4.685 2.126,6.182 0.531,1.546 1.062,5.7 0.531,12.945 -0.579,7.198 3.14,7.826 3.574,10.289 0.436,2.463 -3.284,4.927 -3.284,4.927 l 3.72,5.7 c 0,0 -10.579,1.353 -10.869,-4.396 -0.289,-5.748 4.444,-12.172 0.434,-15.264 -4.008,-3.043 -7.824,-6.472 -8.839,-10.288 -1.014,-3.816 -3.429,-9.516 -7.874,-10.676 -4.443,-1.11 -7.969,2.513 -4.83,4.589 3.14,2.077 5.024,6.473 6.715,8.55 1.69,2.126 4.009,11.4 4.83,11.4 0.869,0 1.594,1.739 2.994,1.739 1.45,0 3.576,-2.705 4.3,8.212 0.725,10.867 3.43,11.785 3.43,11.785 0,0 7.728,7.971 8.163,13.719 0.435,5.699 0.725,7.004 1.546,7.439 0.869,0.337 4.153,7.776 3.43,15.795 -0.725,8.018 -1.256,14.491 -1.256,14.491 0,0 -6.425,-5.555 -6.135,-13.526 0.289,-8.017 -4.733,-5.554 -11.014,-10.095 -6.279,-4.54 -8.598,-7.245 -10.578,-12.945 -2.029,-5.7 -9.323,-1.111 -9.999,-7.439 -0.724,-6.279 -5.556,-5.361 -5.892,-3.236 -0.29,2.077 -2.851,10.144 1.158,10.675 4.058,0.58 5.41,2.27 6.28,8.405 0.869,6.086 1.884,6.618 4.009,8.357 2.174,1.69 4.154,6.085 4.154,6.085 0,0 -5.507,0.387 -6.279,3.913 -0.774,3.526 1.546,2.319 1.979,3.526 0.436,1.256 3.141,10.53 2.32,12.994 -0.869,2.463 -3.671,-0.58 -3.671,-0.58 l 2.221,-1.208 c 0,0 -1.835,9.13 -0.579,11.11 1.304,1.981 4.299,1.74 4.299,1.74 0,0 2.801,7.004 -3.092,9.516 -5.844,2.463 -6.714,-0.387 -5.844,-1.353 0.869,-0.966 6.714,-1.208 6.714,-1.208 0,0 -4.831,13.718 -0.29,14.298 4.589,0.58 6.57,-2.27 7.149,0 0.531,2.27 -0.435,5.314 -1.305,10.095 -0.869,4.782 4.879,5.894 5.7,5.894 0.87,0 -5.7,1.69 -3.719,6.086 2.029,4.396 6.424,3.043 6.424,3.043 0,0 -2.995,19.225 0.435,21.543 3.43,2.271 2.174,8.164 4.541,10.483 2.464,2.27 5.603,8.356 5.603,8.356 0,0 -14.153,-2.657 -15.167,-5.7 -0.966,-3.091 -4.396,3.767 -4.54,4.927 -0.146,1.159 -8.455,-4.396 -9.42,-11.835 -1.015,-7.39 -7.729,-15.167 -16.182,-20.915 -8.453,-5.7 -12.559,0.58 -10.868,4.782 1.738,4.202 -3.574,-0.58 4.01,5.313 7.583,5.894 8.163,13.332 8.163,15.072 0,1.69 4.105,-5.314 4.105,-5.314 l 1.738,9.709 c 0,0 1.45,-3.043 4.01,-0.387 2.561,2.657 -1.836,10.965 0.725,12.656 2.56,1.69 5.071,-1.304 4.782,2.125 -0.29,3.381 -5.845,4.638 -5.12,7.101 0.725,2.464 5.941,4.83 5.941,4.83 0,0 -0.29,9.178 -3.382,4.783 -3.042,-4.396 -4.347,1.497 -6.472,-2.754 -2.174,-4.299 -1.159,-5.603 -0.146,-8.163 1.015,-2.608 0.29,-5.265 -1.159,-4.01 -1.4,1.208 -1.738,4.155 -3.284,2.56 -1.546,-1.642 -5.941,-4.491 -6.714,-1.932 -0.773,2.561 -3.72,2.754 -0.483,4.831 3.236,2.077 3.236,1.98 3.333,3.14 0.145,1.111 -6.135,-5.99 -7.825,-1.643 -1.691,4.396 -2.947,6.183 -0.532,8.115 2.415,1.884 2.126,4.106 4.589,4.106 2.415,0 5.652,0.773 2.512,3.333 -3.14,2.56 -3.671,6.714 -3.574,8.743 0.048,2.077 -1.546,11.738 1.883,14.008 3.43,2.319 -0.047,6.569 0.918,8.55 1.015,2.028 3.623,4.009 3.623,4.009 0,0 0.29,4.541 -2.367,4.396 -2.608,-0.194 -5.507,-1.257 -5.41,1.207 0.049,2.512 5.749,0.58 7.004,3.478 1.256,2.85 -1.497,6.038 -2.174,9.516 -0.724,3.478 -2.512,13.96 0.146,20.77 2.656,6.714 1.98,17.487 2.464,21.689 0.531,4.202 2.607,1.352 2.607,6.665 0,5.314 -1.062,9.516 -1.062,9.516 0,0 -3.671,-2.463 -3.526,-9.709 0.146,-7.245 -1.787,-10.578 -5.12,-5.7 -3.382,4.831 -3.526,6.667 -6.859,3.623 -3.381,-3.043 -5.507,-2.174 -5.942,2.174 -0.434,4.347 -7.1,7.825 1.112,6.666 8.259,-1.16 9.225,1.449 9.225,1.449 0,0 -8.984,3.043 -7.632,5.941 1.353,2.85 2.367,3.623 3.43,4.831 1.062,1.207 0,12.752 0,12.752 0,0 -4.202,-5.024 -4.3,-9.033 -0.048,-4.01 -3.091,-10.337 -4.927,-7.053 -1.835,3.382 -5.41,0.677 -6.038,5.314 -0.53,4.685 -0.917,4.444 0.242,8.115 1.111,3.623 1.208,5.893 0.29,8.598 -0.917,2.657 -0.096,12.318 -0.096,12.318 0,0 -9.275,-6.329 -8.695,-14.298 0.532,-8.019 0.435,-11.304 -1.884,-12.994 -2.27,-1.739 -3.719,1.98 -3.719,2.56 0,0.58 -1.643,1.884 -2.223,-2.947 -0.531,-4.83 1.208,-5.603 -1.111,-6.376 -2.366,-0.724 -4.927,-3.14 -4.927,-3.14 0,0 -2.656,7.053 -0.579,8.985 2.076,1.932 -2.223,10.772 0.289,11.834 2.513,1.063 6.135,1.884 6.811,4.927 0.628,3.044 3.333,19.225 0.772,27.05 -2.559,7.826 -4.878,8.937 -4.878,8.937 0,0 1.74,-8.937 -2.705,-13.67 -4.443,-4.734 -7.438,-11.98 -7.438,-11.98 0,0 -8.55,11.835 -3.865,16.568 4.734,4.782 4.541,13.139 4.541,13.139 0,0 7.149,6.666 9.129,27.292 1.981,20.528 0.29,25.89 0.29,25.89 0,0 -6.569,-22.123 -6.134,-26.664 0.434,-4.589 -7.149,-14.49 -9.275,-14.104 -2.125,0.435 -3.139,6.859 -3.864,10.289 -0.725,3.43 -5.989,-0.387 -3.43,5.168 2.609,5.507 0.579,3.816 3.575,2.85 2.995,-0.966 -0.58,7.197 2.27,12.027 2.85,4.735 0.725,12.366 3.14,20.965 2.416,8.549 -4.445,12.558 -4.445,12.558 0,0 -7.293,-17.341 -10.722,-20.577 -3.43,-3.236 -7.004,-5.507 -7.729,-0.773 -0.676,4.782 -8.114,0.193 -6.425,8.405 1.74,8.163 -7.004,8.936 -2.704,10.482 4.299,1.497 11.544,-0.387 11.544,-0.387 0,0 -11.544,10.869 -11.544,14.298 0,3.478 1.739,4.782 7.149,-1.304 5.458,-6.135 5.071,-1.739 5.071,-1.739 0,0 1.16,9.081 -1.448,11.399 -2.561,2.415 0.628,6.57 1.689,4.493 1.064,-2.078 3.093,-5.169 3.093,-5.169 0,0 -2.271,6.28 0.53,9.13 2.899,2.85 4.251,0.966 4.638,4.83 0.435,3.913 -0.338,8.115 -0.338,8.115 0,0 -1.643,-8.308 -5.023,-8.115 -3.382,0.193 -2.415,6.956 -2.03,9.13 0.436,2.222 -1.883,18.258 -1.883,18.258 0,0 -0.58,-13.235 -2.561,-11.689 -1.98,1.497 -4.589,5.796 -5.458,1.98 -0.966,-3.768 -2.463,-3.14 -3.526,-9.95 -1.062,-6.859 -4.782,-1.932 -5.362,0.58 -0.58,2.463 2.513,0.821 2.802,5.796 0.29,4.927 -1.787,18.742 0.29,20.287 2.077,1.498 2.077,8.067 2.077,8.067 0,0 -3.284,-2.367 -3.575,2.367 -0.289,4.782 1.015,7.632 1.015,7.632 l 0.966,8.212 c 0,0 -3.14,-6.473 -5.121,-2.754 -1.979,3.719 -5.602,6.232 -6.761,6.811 -1.111,0.58 -9.179,29.127 -9.179,29.127 0.145,-8.26 -9.757,-24.828 -10.191,-30.769 -1.401,-19.08 5.7,-32.412 0.434,-30.577 -4.684,1.643 1.692,-19.321 -0.724,-17.437 -2.416,1.884 -6.859,5.796 -6.521,3.043 0.338,-2.754 2.802,-3.816 2.512,-7.245 -0.289,-3.43 0.531,-8.308 -1.497,-7.053 -2.077,1.208 -4.009,6.859 -6.281,8.067 -2.317,1.256 -4.925,-4.733 -4.202,-6.473 0.677,-1.738 4.445,0.049 5.653,-7.825 1.255,-7.873 1.448,-9.516 2.366,-10.53 0.918,-1.015 6.135,-0.676 4.299,-7.149 -1.835,-6.473 -4.057,-0.725 -3.575,-3.864 0.484,-3.141 5.797,-2.415 7.343,-5.7 1.546,-3.334 -1.256,-4.01 -3.285,-4.203 -2.028,-0.241 -2.56,-3.864 -2.56,-3.864 0,0 3.285,1.353 3.768,-1.98 0.531,-3.333 3.092,-4.541 3.333,-7.971 0.29,-3.429 -2.802,-10.288 -4.976,-7.535 -2.222,2.754 -4.637,12.463 -7.052,16.182 -2.415,3.72 -1.739,5.072 -4.927,9.226 -3.236,4.202 -2.174,17.679 -2.174,17.679 0,0 -5.892,-2.174 -5.41,-6.328 0.483,-4.251 1.933,-14.587 0.339,-15.36 -1.546,-0.773 -3.769,-2.464 -2.513,-6.86 1.305,-4.395 2.995,-7.342 2.995,-8.887 0,-1.498 6.28,-6.908 4.009,-8.84 -2.269,-1.932 -8.018,-2.464 -7.004,-6.666 1.015,-4.202 7.584,0 7.294,-3.816 -0.29,-3.767 -5.409,0 -3.671,-7.39 1.691,-7.439 2.271,4.154 7.535,0.145 5.314,-3.961 0.29,-6.425 1.691,-10.434 1.449,-4.009 1.836,4.734 3.092,5.459 1.304,0.676 -1.015,-4.879 0.579,-7.633 1.594,-2.753 2.126,6.28 3.865,3.72 1.689,-2.609 0.289,-6.279 0.579,-7.439 0.29,-1.159 -2.85,-3.236 -2.512,-5.989 0.387,-2.754 4.009,-2.657 2.415,-4.251 -1.546,-1.594 -4.926,-4.686 -5.313,-7.922 -0.386,-3.236 -4.734,-4.54 -4.299,1.981 0.435,6.424 -1.739,14.732 -3.72,17.002 -1.931,2.319 -9.081,-4.395 -9.66,-6.28 -0.58,-1.883 -5.893,1.595 -4.444,9.806 1.401,8.213 -4.299,5.942 -6.57,7.052 -2.269,1.112 -6.133,1.885 -5.554,-5.554 0.58,-7.391 0.58,-28.595 0.58,-28.595 0,0 -4.734,-2.561 -5.99,-0.146 -1.304,2.367 -5.362,-2.27 -3.865,-4.588 1.498,-2.319 2.754,-2.947 2.995,-3.431 0.291,-0.482 2.802,-0.192 3.14,-5.409 0.338,-5.265 -4.685,-1.836 -2.657,-4.686 2.029,-2.849 3.093,-2.27 3.575,-4.25 0.531,-2.029 1.933,-5.41 1.933,-5.41 0,0 2.076,-2.222 0.385,-3.526 -1.738,-1.353 0.87,-4.203 0.29,-5.411 -0.58,-1.255 -5.844,-1.449 -6.375,0.967 -0.483,2.367 -0.918,3.526 -1.063,6.231 -0.145,2.802 -2.656,3.043 -3.381,7.004 -0.725,3.864 -1.98,9.516 -1.98,9.516 0,0 -2.706,0.096 -2.223,-4.299 0.482,-4.348 0.387,-9.13 0.049,-9.227 -0.387,-0.096 -2.656,-1.98 -2.223,-3.912 0.436,-1.932 1.595,-5.748 0.29,-8.019 -1.303,-2.27 -5.169,0 -0.724,-5.941 4.395,-5.844 7.97,-3.961 7.97,-6.617 0,-2.657 0.145,-1.691 -7.295,-10.82 -7.437,-9.178 -10.771,-3.526 -9.08,1.594 1.739,5.169 2.657,4.492 2.704,6.859 0.049,2.367 -1.014,2.946 -2.51,0.966 -1.498,-2.029 -8.02,-3.334 -7.923,-4.927 0.097,-1.643 0.29,-6.424 0.29,-8.018 0,-1.595 -4.251,-0.387 -5.361,3.767 -1.16,4.203 -6.28,3.091 -5.893,0.193 0.435,-2.85 3.14,-2.705 1.448,-5.506 -1.739,-2.85 -5.264,-3.526 -4.492,-5.169 0.821,-1.642 1.739,-0.966 2.561,-2.946 0.821,-2.029 4.636,1.111 5.989,-0.386 1.352,-1.546 0.29,-3.237 -2.222,-5.363 -2.512,-2.076 -2.608,-7.922 -0.967,-9.274 1.644,-1.304 6.425,-6.762 6.425,-10.819 0,-4.106 -1.352,-6.28 1.208,-7.391 2.609,-1.159 9.854,-5.941 11.447,-8.888 1.546,-2.898 2.561,-12.075 -1.303,-11.303 -3.865,0.773 -4.202,-0.58 -7.44,7.004 -3.235,7.632 -9.273,12.462 -9.273,12.462 0,0 -0.29,-6.521 1.014,-13.814 1.256,-7.198 -1.304,-10.144 0.966,-12.366 2.319,-2.174 5.652,-0.628 5.652,-4.831 0,-4.202 1.932,-6.859 3.719,-8.259 1.788,-1.449 -1.98,-0.145 2.222,-4.879 4.251,-4.782 4.733,-5.941 4.733,-5.941 l -5.989,-1.981 6.57,-3.526 c 0,0 -3.719,-2.898 -3.092,-3.768 0.628,-1.014 12.897,1.594 13.091,-1.255 0.144,-2.85 -1.305,-4.541 0.337,-5.217 1.643,-0.676 2.996,1.98 4.058,-2.126 1.063,-4.106 -0.821,-3.815 4.01,-4.106 4.782,-0.289 4.54,-0.579 5.12,-3.187 0.579,-2.706 3.381,-4.203 3.236,-8.212 -0.145,-4.009 -5.12,-5.168 -6.425,1.304 -1.255,6.473 -1.159,4.782 -7.148,4.202 -5.99,-0.579 -9.854,-1.69 -10.724,4.976 -0.869,6.666 -2.27,10.482 -9.564,15.408 -7.293,4.927 -0.435,4.927 -8.694,8.743 -8.308,3.817 -10.288,6.859 -10.578,10.82 -0.291,4.01 -3.286,13.526 -3.286,13.526 0,0 -5.022,-10.869 -3.429,-22.268 1.594,-11.449 5.603,-6.86 7.005,-15.651 1.448,-8.743 -3.43,-7.39 3.864,-15.602 7.293,-8.211 5.168,-13.911 5.168,-13.911 0,0 -9.032,-5.506 -12.703,-1.884 -3.72,3.623 -4.059,7.245 -1.064,8.646 3.044,1.401 -6.472,4.83 -6.569,8.936 -0.048,4.058 1.014,3.623 0.098,6.087 -0.967,2.511 -2.079,6.665 -2.03,7.584 0.049,0.82 -3.574,-2.464 -4.009,-6.232 -0.434,-3.72 2.705,-8.791 2.415,-11.061 -0.29,-2.27 -0.627,-11.689 -0.627,-11.689 0,0 -3.527,-1.933 -4.204,4.733 -0.723,6.666 -3.815,7.342 -3.815,7.342 0,0 0.869,-4.106 -0.29,-5.941 -1.159,-1.836 -2.753,-3.816 -2.899,-4.299 -0.144,-0.483 4.058,-2.947 4.058,-2.947 0,0 1.208,-2.366 3.092,-10.529 1.835,-8.165 -0.725,-8.165 6.424,-13.526 7.149,-5.313 8.695,-7.197 4.685,-7.584 -4.009,-0.386 -10.289,2.899 -10.289,0.58 0,-2.27 4.155,-3.429 6.57,-5.507 2.415,-2.125 0.725,-6.472 0.725,-8.163 0,-1.738 6.134,10.627 6.81,7.197 0.725,-3.429 -2.994,-11.979 0.87,-14.298 3.864,-2.27 5.458,1.353 5.699,-2.076 0.29,-3.43 1.16,-6.28 1.836,-6.28 0.725,0 1.836,15.989 3.285,7.826 1.448,-8.165 3.429,-7.391 1.304,-11.4 -2.125,-4.01 -9.854,-8.019 -10.578,-3.285 -0.725,4.782 -0.146,7.439 -6.715,12.028 -6.568,4.589 -12.414,5.554 -14.733,16.181 -2.27,10.675 -7.148,11.062 -7.148,11.062 0,0 0,-17.148 0.579,-27.05 0.58,-9.951 3.43,-8.792 6.279,-16.81 2.899,-7.97 5.169,-12.559 6.86,-13.718 1.69,-1.111 4.299,-3.044 3.72,-6.473 -0.581,-3.43 -2.271,-8.018 -1.402,-11.786 0.821,-3.815 10.53,0 10.53,0 0,0 1.884,-10.675 -3.139,-12.607 -5.024,-1.884 -9.709,5.941 -10.724,10.144 -1.014,4.154 -13.718,7.776 -14.297,13.718 -0.58,5.941 -5.313,7.438 -6.134,14.491 -0.871,7.052 -4.009,11.641 -4.009,11.641 0,0 -0.436,-5.99 -0.629,-7.921 -0.194,-1.884 1.063,-5.169 2.126,-9.71 1.062,-4.54 -3.769,-8.308 -1.208,-11.544 2.56,-3.236 5.12,-4.638 5.217,-5.604 0.048,-0.965 -2.464,-6.955 4.395,-24.103 6.859,-17.148 16.858,-22.847 16.858,-22.847 0,0 -5.41,-4.928 -14.829,0.773 -9.467,5.699 -11.738,7.583 -11.738,12.172 0,4.589 -7.97,10.675 -7.97,10.675 0,0 -0.58,-14.491 0.289,-17.534 0.822,-3.043 5.991,2.27 7.15,-7.245 1.111,-9.517 -4.879,-7.584 1.69,-12.946 6.57,-5.314 20.867,-2.319 20.867,-2.319 0,0 -12.704,-12.945 -18.306,-6.665 -5.556,6.279 -7.68,0.966 -6.714,-0.58 1.014,-1.498 1.4,-5.893 11.254,-8.018 9.612,-2.077 10.82,-0.822 9.419,-5.942 l -3.526,3.961 -16.665,-18.983 c 2.271,-1.449 5.024,-2.753 5.603,-2.946 1.015,-0.387 2.078,2.367 3.382,-0.435 1.304,-2.802 -2.609,-7.777 -2.609,-7.777 0,0 3.865,-0.918 6.424,-0.097 2.561,0.773 3.623,1.256 7.536,-1.69 3.14,-2.319 5.024,-2.706 7.294,-1.208 1.932,0.097 4.057,0.869 5.796,1.014 1.305,-1.594 2.271,-4.106 2.754,-4.927 0.096,-0.096 0.145,-0.29 0.145,-0.434 -0.773,-1.353 -2.125,-2.561 -3.478,-3.72 -0.869,-0.048 -1.835,0.29 -2.85,1.063 -3.913,3.236 -6.956,-5.797 -11.544,-4.106 -4.589,1.739 -7.729,1.401 -14.926,-1.256 -7.198,-2.608 -9.661,-8.404 -13.718,-3.333 -4.106,5.12 -11.932,2.898 -11.932,2.898 0,0 3.092,-4.395 6.86,-9.902 3.767,-5.458 10.24,-7.149 11.109,-6.617 0.821,0.531 1.787,-0.049 5.169,-3.14 3.429,-3.14 13.524,-1.304 13.524,-1.304 0,0 2.561,1.739 8.985,-4.202 6.376,-5.942 6.569,-2.512 7.633,-1.304 1.062,1.207 2.511,0.82 3.187,1.593 0.628,0.725 7.391,-2.947 9.806,-2.753 2.415,0.193 6.183,-0.87 9.66,0.579 0.145,0.049 0.242,0.097 0.387,0.145 0.532,-0.676 1.159,-1.449 1.787,-2.222 -0.338,-1.497 -1.497,-3.429 -3.332,-4.83 -3.961,-3.139 -8.889,-1.739 -11.69,-0.338 -2.801,1.497 -7.535,0.193 -12.221,-1.352 -4.637,-1.595 -4.589,6.327 -7.873,9.612 -3.286,3.236 -10.579,-6.666 -10.579,-6.666 l 5.893,-0.289 c 0,0 -1.449,-4.687 0.193,-5.797 1.643,-1.111 4.734,1.691 8.212,-3.14 3.478,-4.878 6.134,-6.956 7.342,-7.439 1.207,-0.483 3.188,-0.193 4.976,-1.932 1.739,-1.739 -3.189,-3.574 -3.189,-3.574 0,0 4.01,-2.27 8.261,-0.966 3.477,1.111 19.756,-36.325 36.952,-29.707 1.546,0.58 0.821,-0.29 2.415,-1.787 1.594,-1.546 3.382,-1.353 2.656,0.676 -0.723,2.028 -0.917,2.802 -0.385,2.56 9.66,-7.728 18.596,-7.777 27.435,-10.53 39.658,-12.51 16.955,-193.166 12.609,-243.064 l 54.05,-2.222 c 0,47.145 -26.615,238.571 -3.767,252.29 z"
           style="fill:#488f1a;fill-opacity:1;fill-rule:nonzero;stroke:none"
           id="path34" /></g><g
         id="g36"
         transform="translate(875.5029,2382.9629)"><path
           d="M 0,0 C 467.482,55.887 867.483,604.084 1422.346,565.2 1846.5,535.493 2057.828,206.594 2352.432,150.804 1979.19,127.956 1824.521,404.059 1412.106,440.239 893.23,485.789 745.614,28.354 0.001,0 Z"
           style="fill:#7fc41c;fill-opacity:1;fill-rule:nonzero;stroke:none"
           id="path38" /></g><g
         id="g40"
         transform="translate(1936.5874,2650.2744)"><path
           d="M 0,0 C 158.822,91.536 340.54,105.978 525.156,51.927 -88.009,-54.776 245.286,-258.762 32.798,-350.587 c -117.233,-50.671 -200.75,62.747 -309.915,4.54 -147.181,-78.395 -314.891,-60.041 -486.755,34.248 C -507.477,-286.778 -258.666,-149.113 0,0"
           style="fill:#e6f2cf;fill-opacity:1;fill-rule:nonzero;stroke:none"
           id="path42" /></g><g
         id="g44"
         transform="translate(2908.4063,3280.4912)"><path
           d="m 0,0 c 109.069,0 197.465,-88.396 197.465,-197.514 0,-109.069 -88.396,-197.464 -197.465,-197.464 -109.069,0 -197.513,88.395 -197.513,197.464 C -197.513,-88.444 -109.117,0 0,0"
           style="fill:#f1c50e;fill-opacity:1;fill-rule:nonzero;stroke:none"
           id="path46" /></g></g><path
       id="path3875"
       d="m 1889.961,1869.9389 v -18.2022 h 14.3745 v 18.2022 z m 44.4521,0 v -121.5616 h 14.376 v 121.5616 z m 44.4536,0 v -121.5616 h 14.3745 v 121.5616 z m 984.7662,0 v -18.2022 h 14.3745 v 18.2022 z m -838.5938,-2.8125 c -17.6563,0 -31.5625,-5.4161 -41.7187,-16.2495 -10.1562,-10.7812 -15.2344,-25.5469 -15.2344,-44.2969 0,-18.6979 5.0782,-33.4635 15.2344,-44.2968 10.1562,-10.7814 24.0624,-16.1719 41.7187,-16.1719 6.875,0 13.3849,0.9375 19.5308,2.8125 6.1978,1.875 12.0572,4.6875 17.5781,8.4375 v 16.4839 c -5.3126,-4.9479 -10.9901,-8.6453 -17.0318,-11.0933 -5.9895,-2.4479 -12.3687,-3.6724 -19.1396,-3.6724 -13.3333,0 -23.5422,4.0625 -30.6255,12.1875 -7.0834,8.1771 -10.6245,19.9484 -10.6245,35.313 0,15.4167 3.5411,27.188 10.6245,35.313 7.0833,8.1771 17.2922,12.2652 30.6255,12.2652 6.7709,0 13.1501,-1.2245 19.1396,-3.6724 6.0417,-2.4479 11.7192,-6.1454 17.0318,-11.0933 v 16.6407 c -5.4167,3.6978 -11.2235,6.4578 -17.4214,8.2807 -6.1458,1.875 -12.7083,2.8125 -19.6875,2.8125 z m 672.0308,0 c -12.7605,0 -22.786,-2.9687 -30.0777,-8.9062 -7.2396,-5.9375 -10.8603,-14.0625 -10.8603,-24.375 0,-8.9063 2.6306,-15.8595 7.8911,-20.8594 5.2603,-5 13.776,-8.6719 25.5469,-11.0156 l 9.6093,-1.875 c 8.0208,-1.6146 13.7766,-4.0365 17.2662,-7.2657 3.5416,-3.2291 5.3115,-7.7078 5.3115,-13.437 0,-6.5625 -2.4475,-11.6151 -7.3433,-15.1567 -4.8958,-3.5417 -11.849,-5.3116 -20.8594,-5.3116 -5.9375,0 -11.9787,0.9106 -18.1245,2.7335 -6.1458,1.8229 -12.4228,4.5317 -18.8291,8.1255 v -16.2496 c 6.6667,-2.4479 13.0999,-4.2974 19.2979,-5.5473 6.25,-1.25 12.1348,-1.875 17.6557,-1.875 14.6354,0 25.7292,2.9161 33.2813,8.7495 7.6041,5.8333 11.4068,14.4016 11.4068,25.7036 0,9.4792 -2.8125,17.0317 -8.4375,22.6567 -5.5729,5.6771 -14.2449,9.6344 -26.0157,11.8741 l -9.5317,1.954 c -8.646,1.6146 -14.5308,3.724 -17.6558,6.3281 -3.0729,2.6563 -4.6099,6.5626 -4.6099,11.7188 0,6.1458 2.3182,10.8844 6.9537,14.2178 4.6874,3.3333 11.328,5.0009 19.9218,5.0009 4.9479,0 10.0772,-0.703 15.3897,-2.1093 5.3125,-1.4063 10.9645,-3.5427 16.9541,-6.4072 v 15.3911 c -5.9376,1.9792 -11.7458,3.4635 -17.4229,4.4531 -5.677,0.9896 -11.2495,1.4839 -16.7182,1.4839 z M 1770.273,1865.017 v -116.6397 h 15.7807 v 55.5469 h 57.3443 v -55.5469 h 15.7807 v 116.6397 h -15.7807 v -47.8125 h -57.3443 v 47.8125 z m 716.0932,-4.2963 v -24.8438 h -10.5468 v -11.1724 h 10.5468 v -47.499 c 0,-10.9374 2.1094,-18.49 6.3282,-22.6567 4.2188,-4.1146 11.8749,-6.1715 22.9687,-6.1715 h 14.7656 v 12.0309 h -14.7656 c -5.9896,0 -9.9739,1.0155 -11.9531,3.0468 -1.9271,2.0312 -2.8901,6.615 -2.8901,13.7505 v 47.499 h 29.6088 v 11.1724 h -29.6088 v 24.8438 z m 521.4844,0 v -24.8438 h -10.5468 v -11.1724 h 10.5468 v -47.499 c 0,-10.9374 2.1094,-18.49 6.3282,-22.6567 4.2187,-4.1146 11.8749,-6.1715 22.9687,-6.1715 h 14.7656 v 12.0309 h -14.7656 c -5.9896,0 -9.974,1.0155 -11.9531,3.0468 -1.9271,2.0312 -2.8901,6.615 -2.8901,13.7505 v 47.499 h 29.6088 v 11.1724 h -29.6088 v 24.8438 z m -788.0464,-22.7344 c -12.552,0 -22.3959,-4.0625 -29.5312,-12.1875 -7.0834,-8.1251 -10.6245,-19.3751 -10.6245,-33.75 0,-14.3229 3.5411,-25.5729 10.6245,-33.75 7.1353,-8.1251 16.9792,-12.1875 29.5312,-12.1875 12.5,0 22.3182,4.0624 29.4537,12.1875 7.1354,8.1771 10.7021,19.4271 10.7021,33.75 0,14.3749 -3.5667,25.6249 -10.7021,33.75 -7.1355,8.125 -16.9537,12.1875 -29.4537,12.1875 z m 207.5787,0 c -6.0939,0 -11.4845,-1.3026 -16.1719,-3.9068 -4.6355,-2.6041 -8.6724,-6.5359 -12.1099,-11.7963 v 13.5937 h -14.4536 v -87.4996 h 14.4536 v 49.4532 c 0,8.5416 2.24,15.286 6.7193,20.2339 4.479,4.948 10.5984,7.4223 18.3588,7.4223 6.4583,0 11.3021,-2.0582 14.5313,-6.1728 3.2291,-4.1146 4.8442,-10.312 4.8442,-18.5932 v -52.3434 h 14.3745 v 52.8121 c 0,12.0834 -2.5781,21.224 -7.7343,27.4219 -5.1564,6.25 -12.76,9.375 -22.812,9.375 z m 165.312,0 c -6.9271,0 -12.8121,-1.3026 -17.6558,-3.9068 -4.8438,-2.5521 -8.777,-6.4839 -11.7979,-11.7963 v 13.5937 h -14.4521 v -87.4996 h 14.4521 v 46.0929 c 0,9.8958 2.162,17.4739 6.4849,22.7343 4.375,5.3125 10.625,7.9688 18.75,7.9688 2.2916,0 4.3755,-0.2344 6.2505,-0.7031 1.9271,-0.4167 3.6969,-1.0929 5.3115,-2.0304 l -0.078,14.7657 c -1.4583,0.2604 -2.7865,0.4422 -3.9844,0.5464 -1.198,0.1562 -2.2917,0.2344 -3.2812,0.2344 z m 514.7651,0 c -13.125,0 -23.5667,-4.2188 -31.3271,-12.6563 -7.7084,-8.3854 -11.5635,-19.7391 -11.5635,-34.062 0,-13.8542 4.0625,-24.8442 12.1875,-32.9692 8.1771,-8.1251 19.2454,-12.1875 33.2036,-12.1875 5.573,0 11.0673,0.5724 16.4839,1.7182 5.4166,1.1459 10.7035,2.8135 15.8599,5.001 v 13.5937 c -5.1042,-2.7084 -10.2604,-4.7395 -15.4688,-6.0937 -5.1562,-1.3542 -10.4944,-2.0317 -16.0151,-2.0317 -9.5313,0 -16.9802,2.578 -22.3448,7.7344 -5.3125,5.2083 -8.2812,12.7608 -8.9062,22.6566 h 66.0937 v 7.0313 c 0,13.0208 -3.4374,23.3063 -10.3125,30.8584 -6.8229,7.6041 -16.1198,11.4068 -27.8906,11.4068 z m 89.6104,0 c -10.7292,0 -19.0105,-2.2401 -24.8438,-6.7193 -5.8333,-4.4791 -8.751,-10.8328 -8.751,-19.062 0,-6.7708 1.9802,-12.1089 5.9385,-16.0152 3.9583,-3.8541 10.3902,-6.7191 19.2964,-8.5941 l 4.9995,-1.1719 c 8.9062,-1.9271 14.6619,-3.9328 17.2661,-6.0161 2.6562,-2.0834 3.9844,-5.0777 3.9844,-8.9839 0,-4.2188 -1.8225,-7.5001 -5.4682,-9.8438 -3.6459,-2.2917 -8.8547,-3.438 -15.6255,-3.438 -5.0521,0 -10.1558,0.6777 -15.312,2.0318 -5.1563,1.4062 -10.3907,3.49 -15.7032,6.2504 v -14.8447 c 5.625,-1.8229 10.9631,-3.1766 16.0152,-4.062 5.1042,-0.9375 10.0005,-1.4062 14.688,-1.4062 11.25,0 20.0781,2.3692 26.4843,7.1089 6.4584,4.7395 9.687,11.1728 9.687,19.2978 0,7.1354 -2.1619,12.6823 -6.4848,16.6406 -4.2709,4.0104 -11.5095,7.1084 -21.7178,9.2959 l -4.9219,1.0943 c -7.7083,1.7187 -12.839,3.5156 -15.3911,5.3906 -2.552,1.9271 -3.8276,4.5578 -3.8276,7.8911 0,4.375 1.7699,7.6562 5.3115,9.8437 3.5938,2.1875 8.9588,3.2813 16.0942,3.2813 4.6875,0 9.2187,-0.5213 13.5938,-1.563 4.375,-1.0416 8.5937,-2.6042 12.6562,-4.6875 v 13.5938 c -3.9583,1.5625 -8.2808,2.7344 -12.9682,3.5156 -4.6876,0.7813 -9.6876,1.1719 -15,1.1719 z m -1307.1094,-2.1094 v -87.4996 h 14.3745 v 87.4996 z m 392.3437,0 v -52.9687 c 0,-12.0313 2.6037,-21.1719 7.812,-27.4219 5.2084,-6.2501 12.8391,-9.375 22.8912,-9.375 6.0937,0 11.4318,1.2754 16.0151,3.8276 4.6354,2.6042 8.6979,6.563 12.1875,11.8755 v -13.4371 h 14.3745 v 87.4996 h -14.3745 v -49.6099 c 0,-8.5416 -2.2656,-15.2859 -6.7969,-20.2338 -4.4791,-4.948 -10.5985,-7.4224 -18.3589,-7.4224 -6.4583,0 -11.302,2.0582 -14.5312,6.1728 -3.2292,4.1667 -4.8443,10.3897 -4.8443,18.6709 v 52.4224 z m 322.5,0 35.3907,-86.0933 -2.5782,-6.5625 c -2.6562,-6.9792 -5.0781,-11.4067 -7.2656,-13.2817 -2.1875,-1.875 -5.2613,-2.8125 -9.2197,-2.8125 h -8.4375 v -12.0308 h 11.4843 c 6.4584,0 11.6146,1.5881 15.4688,4.7652 3.8542,3.1771 7.813,9.974 11.8755,20.3906 l 38.4375,95.625 h -15.2344 l -27.3442,-68.4375 -27.3428,68.4375 z m 255.9376,0 v -52.9687 c 0,-12.0313 2.6036,-21.1719 7.812,-27.4219 5.2083,-6.2501 12.8389,-9.375 22.8911,-9.375 6.0937,0 11.4318,1.2754 16.0151,3.8276 4.6355,2.6042 8.698,6.563 12.1875,11.8755 v -13.4371 h 14.3745 v 87.4996 h -14.3745 v -49.6099 c 0,-8.5416 -2.2657,-15.2859 -6.7969,-20.2338 -4.4792,-4.948 -10.5984,-7.4224 -18.3588,-7.4224 -6.4584,0 -11.3022,2.0582 -14.5313,6.1728 -3.2292,4.1667 -4.8442,10.3897 -4.8442,18.6709 v 52.4224 z m 102.8906,0 v -87.4996 h 14.3745 v 87.4996 z m -743.8287,-10.0781 c 7.6563,0 13.7245,-3.047 18.2037,-9.1406 4.4791,-6.0417 6.7177,-14.2449 6.7177,-24.6094 0,-10.4167 -2.2386,-18.6455 -6.7177,-24.6871 -4.4792,-6.0417 -10.5474,-9.0629 -18.2037,-9.0629 -7.7604,0 -13.8797,2.9942 -18.3588,8.9839 -4.4271,6.0416 -6.6417,14.2974 -6.6417,24.7661 0,10.4687 2.2401,18.6973 6.7193,24.687 4.4791,6.0416 10.5729,9.063 18.2812,9.063 z m 887.8126,0 c 7.0833,0 12.7608,-2.3438 17.0317,-7.0313 4.3229,-4.6875 6.5359,-10.9631 6.6401,-18.8277 l -51.2505,-0.079 c 0.7292,8.2291 3.4905,14.6099 8.2823,19.1411 4.8437,4.5313 11.2756,6.7969 19.2964,6.7969 z m -550.1851,-150.1172 c -5.9896,0 -10.792,-1.6114 -14.4053,-4.834 -3.6133,-3.1901 -5.4199,-7.4223 -5.4199,-12.6958 0,-1.9531 0.4078,-3.955 1.2216,-6.0058 0.8139,-2.0183 2.0015,-4.0518 3.564,-6.1026 -4.362,-3.2227 -7.6335,-6.6737 -9.8145,-10.3521 -2.181,-3.6458 -3.2709,-7.552 -3.2709,-11.7187 0,-6.9987 2.4902,-12.7447 7.4706,-17.2368 4.9806,-4.4597 11.3928,-6.6885 19.2378,-6.6885 4.2644,0 8.2525,0.6994 11.9634,2.0991 3.711,1.4323 7.2582,3.5965 10.6436,6.4936 l 6.9829,-7.1777 h 12.3047 l -13.6231,13.916 c 3.0274,4.1016 5.3869,8.252 7.0796,12.4512 1.6927,4.1992 2.7354,8.4473 3.126,12.7442 h -9.082 c -0.1955,-3.7109 -0.8301,-7.2265 -1.9043,-10.5469 -1.0742,-3.2878 -2.5721,-6.3797 -4.4927,-9.2769 l -24.8042,25.3901 c -2.9623,3.06 -4.9326,5.421 -5.9092,7.0811 -0.944,1.6927 -1.415,3.3687 -1.415,5.0288 0,2.8646 1.057,5.1926 3.1729,6.983 2.1484,1.8228 4.9315,2.7333 8.3496,2.7333 2.2135,0 4.6061,-0.4064 7.1777,-1.2202 2.5716,-0.7811 5.2744,-1.9373 8.1064,-3.4673 v 8.8872 c -2.7669,1.172 -5.5013,2.0508 -8.2031,2.6367 -2.6693,0.5859 -5.3548,0.879 -8.0566,0.879 z m 107.5195,0 c -7.9753,0 -14.2426,-1.8555 -18.7998,-5.5665 -4.5247,-3.7109 -6.7867,-8.789 -6.7867,-15.2343 0,-5.5665 1.6444,-9.9121 4.9322,-13.0371 3.2878,-3.125 8.6101,-5.42 15.9668,-6.8848 l 6.0059,-1.1719 c 5.013,-1.0092 8.609,-2.5228 10.79,-4.541 2.2135,-2.0182 3.3208,-4.8172 3.3208,-8.3979 0,-4.1016 -1.5295,-7.2596 -4.5894,-9.4732 -3.0598,-2.2135 -7.4055,-3.3208 -13.0371,-3.3208 -3.7108,0 -7.488,0.5702 -11.3291,1.7095 -3.8412,1.1393 -7.7632,2.8325 -11.767,5.0786 v -10.1572 c 4.1666,-1.5299 8.1863,-2.6846 12.06,-3.4658 3.9063,-0.7813 7.5857,-1.1719 11.0361,-1.1719 9.1472,0 16.0808,1.8225 20.8008,5.4682 4.7526,3.6459 7.128,9.0012 7.128,16.065 0,5.9244 -1.7579,10.6436 -5.2735,14.1592 -3.4831,3.5482 -8.903,6.0225 -16.2598,7.4223 l -5.956,1.2203 c -5.4036,1.009 -9.083,2.3274 -11.0361,3.955 -1.9206,1.6601 -2.88,4.1016 -2.88,7.3243 0,3.8411 1.4477,6.8038 4.3448,8.8872 2.9296,2.0833 7.0801,3.1245 12.4512,3.1245 3.0924,0 6.2992,-0.4395 9.6196,-1.3184 3.3203,-0.8789 6.8517,-2.2131 10.5952,-4.0034 v 9.6196 c -3.711,1.237 -7.34,2.1647 -10.8882,2.7832 -3.5481,0.6184 -7.0307,0.9273 -10.4487,0.9273 z m -484.0342,-1.3184 v -72.9009 h 9.8643 v 30.8116 h 10.7417 c 3.9062,0 6.9824,-0.7986 9.2285,-2.3936 2.2787,-1.5951 4.6223,-4.8335 7.0313,-9.7163 l 9.3266,-18.7017 h 10.5952 l -10.0092,19.9219 c -2.0183,4.1015 -4.0375,7.3243 -6.0558,9.668 -1.9856,2.3438 -4.0363,3.8747 -6.1523,4.5908 4.069,1.1718 7.1624,3.2715 9.2783,6.2988 2.1485,3.0273 3.2227,6.8359 3.2227,11.4258 0,7.0313 -2.0507,12.2874 -6.1523,15.7705 -4.1016,3.4831 -10.32,5.2251 -18.6533,5.2251 z m 280.3711,-2.6851 v -15.5273 h -6.5918 v -6.9829 h 6.5918 v -29.688 c 0,-6.8359 1.3184,-11.555 3.9551,-14.1591 2.6367,-2.5716 7.4219,-3.8585 14.3554,-3.8585 h 9.2285 v 7.5206 h -9.2285 c -3.7435,0 -6.2337,0.6347 -7.4707,1.9042 -1.2044,1.2696 -1.8061,4.1332 -1.8061,8.5928 v 29.688 h 18.5053 v 6.9829 h -18.5053 v 15.5273 z m -270.5068,-5.4198 h 12.4014 c 4.7526,0 8.3343,-1.0915 10.7431,-3.2725 2.4414,-2.1485 3.6621,-5.3539 3.6621,-9.6182 0,-4.2643 -1.2207,-7.5042 -3.6621,-9.7178 -2.4088,-2.181 -5.9905,-3.271 -10.7431,-3.271 h -12.4014 z m 77.6367,-8.7891 c -8.2031,0 -14.7303,-2.6367 -19.5806,-7.9102 -4.8176,-5.2409 -7.2261,-12.3383 -7.2261,-21.29 0,-8.6589 2.5391,-15.5264 7.6172,-20.6045 5.1107,-5.0782 12.0271,-7.6172 20.751,-7.6172 3.4831,0 6.9183,0.3576 10.3037,1.0737 3.3855,0.7162 6.6885,1.7574 9.9112,3.1246 v 8.496 c -3.1902,-1.6927 -6.4128,-2.9622 -9.668,-3.8085 -3.2227,-0.8464 -6.5587,-1.2686 -10.0093,-1.2686 -5.957,0 -10.6115,1.6114 -13.9644,4.834 -3.3203,3.2552 -5.1758,7.9743 -5.5664,14.1592 h 41.3087 v 4.3945 c 0,8.138 -2.1486,14.5675 -6.4454,19.2875 -4.2643,4.7526 -10.0748,7.1295 -17.4316,7.1295 z m 56.0054,0 c -6.7058,0 -11.8816,-1.4002 -15.5274,-4.1997 -3.6458,-2.7994 -5.4683,-6.7704 -5.4683,-11.9136 0,-4.2318 1.2366,-7.5693 3.7105,-10.0107 2.474,-2.4089 6.4936,-4.1983 12.0601,-5.3702 l 3.1259,-0.7324 c 5.5664,-1.2044 9.1625,-2.4581 10.7901,-3.7602 1.6601,-1.3021 2.4902,-3.1734 2.4902,-5.6148 0,-2.6367 -1.1388,-4.6875 -3.4175,-6.1524 -2.2786,-1.4322 -5.5343,-2.1489 -9.7661,-2.1489 -3.1575,0 -6.3471,0.4237 -9.5698,1.2701 -3.2227,0.8789 -6.4942,2.1799 -9.8145,3.9052 v -9.2769 c 3.5156,-1.1393 6.8518,-1.9851 10.0093,-2.5385 3.1901,-0.586 6.2505,-0.8789 9.1802,-0.8789 7.0313,0 12.5488,1.4806 16.5527,4.4428 4.0365,2.9622 6.0543,6.982 6.0543,12.0601 0,4.4597 -1.35,7.9265 -4.0518,10.4004 -2.6693,2.5065 -7.1946,4.4438 -13.5747,5.8111 l -3.0762,0.6841 c -4.8178,1.0742 -8.0246,2.1972 -9.6196,3.369 -1.595,1.2045 -2.3921,2.8474 -2.3921,4.9308 0,2.7343 1.1073,4.7851 3.3207,6.1523 2.2462,1.3671 5.5981,2.0508 10.0577,2.0508 2.9297,0 5.7617,-0.3246 8.4961,-0.9756 2.7344,-0.6511 5.3711,-1.6277 7.9101,-2.9297 v 8.4961 c -2.4739,0.9766 -5.1752,1.709 -8.1049,2.1972 -2.9297,0.4884 -6.0547,0.7325 -9.375,0.7325 z m 55.9087,0 c -7.845,0 -13.9974,-2.5391 -18.4571,-7.6172 -4.4271,-5.0782 -6.6416,-12.1093 -6.6416,-21.0937 0,-8.9519 2.2145,-15.9831 6.6416,-21.0938 4.4597,-5.0782 10.6121,-7.6172 18.4571,-7.6172 7.8125,0 13.9476,2.539 18.4072,7.6172 4.4597,5.1107 6.6899,12.1419 6.6899,21.0938 0,8.9844 -2.2302,16.0155 -6.6899,21.0937 -4.4596,5.0781 -10.5947,7.6172 -18.4072,7.6172 z m 67.0898,0 c -4.3295,0 -8.0088,-0.8143 -11.0361,-2.442 -3.0274,-1.595 -5.4845,-4.0521 -7.3726,-7.3725 v 8.4961 h -9.0337 v -54.6885 h 9.0337 v 28.8091 c 0,6.1849 1.3514,10.9212 4.0532,14.209 2.7344,3.3204 6.6405,4.9805 11.7188,4.9805 1.4322,0 2.7333,-0.1465 3.9052,-0.4395 1.2045,-0.2604 2.3118,-0.684 3.3208,-1.27 l -0.048,9.2285 c -0.9115,0.1626 -1.7416,0.2775 -2.4902,0.3428 -0.7487,0.098 -1.4324,0.1465 -2.0508,0.1465 z m 284.4229,0 c -4.004,0 -7.4535,-0.7985 -10.3506,-2.3936 -2.8647,-1.5625 -5.2414,-3.9709 -7.1295,-7.2261 v 8.3013 h -9.0336 v -75.4892 h 9.0336 v 29.0038 c 1.8881,-3.2551 4.2648,-5.6793 7.1295,-7.2744 2.8971,-1.5625 6.3466,-2.3437 10.3506,-2.3437 6.6405,0 12.0289,2.6367 16.1631,7.9102 4.1666,5.2734 6.249,12.207 6.249,20.8008 0,8.5937 -2.0824,15.5272 -6.249,20.8007 -4.1342,5.2735 -9.5226,7.9102 -16.1631,7.9102 z m 56.4945,0 c -2.9296,0 -5.9412,-0.326 -9.0336,-0.9771 -3.0925,-0.6184 -6.2821,-1.562 -9.5698,-2.8315 v -8.3013 c 2.7343,1.4974 5.5821,2.6205 8.5444,3.3691 2.9622,0.7488 6.0069,1.1236 9.1318,1.1236 4.9154,0 8.724,-1.1403 11.4258,-3.4189 2.7344,-2.2462 4.1015,-5.4358 4.1015,-9.5699 v -0.8789 h -12.5976 c -8.1705,0 -14.3229,-1.5625 -18.457,-4.6875 -4.1015,-3.125 -6.1523,-7.7637 -6.1523,-13.916 0,-5.2735 1.6428,-9.4884 4.9306,-12.646 3.3203,-3.125 7.781,-4.6875 13.3799,-4.6875 4.4271,0 8.1696,0.7812 11.2295,2.3437 3.0598,1.5951 5.6161,4.0523 7.6669,7.3726 v -8.3013 h 8.984 v 31.2012 c 0,8.3333 -1.9532,14.5517 -5.8594,18.6533 -3.9062,4.1016 -9.8144,6.1524 -17.7247,6.1524 z m -58.6918,-7.5205 c 4.7526,0 8.4808,-1.8871 11.1826,-5.6631 2.7344,-3.7435 4.1016,-8.9192 4.1016,-15.5273 0,-6.6081 -1.3672,-11.8012 -4.1016,-15.5772 -2.7018,-3.7435 -6.43,-5.6148 -11.1826,-5.6148 -4.7526,0 -8.4951,1.8713 -11.2295,5.6148 -2.7018,3.776 -4.0533,8.9691 -4.0533,15.5772 0,6.6081 1.3515,11.7838 4.0533,15.5273 2.7344,3.776 6.4769,5.6631 11.2295,5.6631 z m -461.1329,-0.097 c 4.4271,0 7.9758,-1.4649 10.6451,-4.3945 2.7016,-2.9298 4.0846,-6.8532 4.1499,-11.7686 l -32.0303,-0.048 c 0.4557,5.1433 2.1805,9.1314 5.1753,11.9634 3.0274,2.832 7.047,4.2481 12.06,4.2481 z m 111.8175,0 c 4.7851,0 8.5765,-1.9043 11.376,-5.7129 2.7995,-3.776 4.1997,-8.9029 4.1997,-15.3808 0,-6.5105 -1.4002,-11.6547 -4.1997,-15.4308 -2.7995,-3.7759 -6.5909,-5.663 -11.376,-5.663 -4.8503,0 -8.6762,1.8713 -11.4756,5.6147 -2.7669,3.7761 -4.1499,8.9361 -4.1499,15.4791 0,6.543 1.4002,11.6856 4.1997,15.4291 2.7994,3.7761 6.608,5.6646 11.4258,5.6646 z m 166.9921,-9.1802 25.8779,-26.5136 c -2.3763,-2.0834 -4.9153,-3.6459 -7.6171,-4.6875 -2.7018,-1.0092 -5.5985,-1.5132 -8.6909,-1.5132 -5.2083,0 -9.5383,1.5783 -12.9888,4.7358 -3.4505,3.1575 -5.1753,7.1127 -5.1753,11.8652 0,2.8646 0.6837,5.599 2.0508,8.2032 1.3997,2.6366 3.5811,5.2734 6.5434,7.9101 z m 246.6797,-11.7188 h 8.9355 v -2.0024 c 0,-5.8594 -1.5136,-10.5627 -4.5409,-14.1109 -2.9948,-3.5156 -6.983,-5.2734 -11.9634,-5.2734 -3.6133,0 -6.4784,0.9277 -8.5943,2.7832 -2.0832,1.8881 -3.1245,4.4272 -3.1245,7.6172 0,4.004 1.4004,6.836 4.1997,8.4961 2.7996,1.6601 7.8288,2.4902 15.0879,2.4902 z"
       style="font-style:normal;font-weight:normal;font-size:213.33332825px;line-height:1.25;font-family:sans-serif;text-align:center;letter-spacing:0px;word-spacing:0px;text-anchor:middle;fill:#000000;fill-opacity:1;stroke:none;stroke-width:0.75" /></g></svg>