<?xml version="1.0" encoding="UTF-8" standalone="no"?>
<svg
   xmlns:dc="http://purl.org/dc/elements/1.1/"
   xmlns:cc="http://creativecommons.org/ns#"
   xmlns:rdf="http://www.w3.org/1999/02/22-rdf-syntax-ns#"
   xmlns:svg="http://www.w3.org/2000/svg"
   xmlns="http://www.w3.org/2000/svg"
   xmlns:sodipodi="http://sodipodi.sourceforge.net/DTD/sodipodi-0.dtd"
   xmlns:inkscape="http://www.inkscape.org/namespaces/inkscape"
   version="1.1"
   id="svg2"
   xml:space="preserve"
   width="4591.2837"
   height="2606.9421"
   viewBox="0 0 4591.2837 2606.9421"
   sodipodi:docname="hill_country_suites_logo.svg"
   inkscape:version="0.92.5 (2060ec1f9f, 2020-04-08)"><metadata
     id="metadata8"><rdf:RDF><cc:Work
         rdf:about=""><dc:format>image/svg+xml</dc:format><dc:type
           rdf:resource="http://purl.org/dc/dcmitype/StillImage" /><dc:title></dc:title></cc:Work></rdf:RDF></metadata><defs
     id="defs6"><clipPath
       clipPathUnits="userSpaceOnUse"
       id="clipPath18"><path
         d="M 0,5000 H 5000 V 0 H 0 Z"
         id="path16"
         inkscape:connector-curvature="0" /></clipPath></defs><sodipodi:namedview
     pagecolor="#ffffff"
     bordercolor="#666666"
     borderopacity="1"
     objecttolerance="10"
     gridtolerance="10"
     guidetolerance="10"
     inkscape:pageopacity="0"
     inkscape:pageshadow="2"
     inkscape:window-width="3840"
     inkscape:window-height="2086"
     id="namedview4"
     showgrid="false"
     fit-margin-top="0"
     fit-margin-left="0"
     fit-margin-right="0"
     fit-margin-bottom="0"
     inkscape:zoom="0.20025265"
     inkscape:cx="4031.0593"
     inkscape:cy="1577.7247"
     inkscape:window-x="0"
     inkscape:window-y="0"
     inkscape:window-maximized="1"
     inkscape:current-layer="g10" /><g
     id="g10"
     inkscape:groupmode="layer"
     inkscape:label="AdobeStock_275502434"
     transform="matrix(1.3333333,0,0,-1.3333333,-1037.6908,4759.1928)"><g
       id="g12"><g
         id="g14"
         clip-path="url(#clipPath18)"><g
           id="g20"
           transform="translate(778.2681,2350.8896)"><path
             d="M 0,0 C 394.543,-446.904 1297.241,-173.458 2111.058,-19.805 2386.437,32.17 3251.312,212.197 3443.463,-234.466 2614.333,312.041 549.936,-848.259 0,0"
             style="fill:#488f1a;fill-opacity:1;fill-rule:nonzero;stroke:none"
             id="path22"
             inkscape:connector-curvature="0" /></g><g
           id="g24"
           transform="translate(3975.0938,1922.1475)"><path
             d="m 0,0 c 90.521,314.263 -1069.972,174.811 -1229.809,152.35 181.621,63.228 648.669,143.654 978.775,111.822 C -123.947,251.902 253.979,158.146 -0.001,0.048 Z"
             style="fill:#7fc41c;fill-opacity:1;fill-rule:nonzero;stroke:none"
             id="path26"
             inkscape:connector-curvature="0" /></g><g
           id="g28"
           transform="translate(3779.5605,2686.8887)"><path
             d="m 0,0 c 2.608,0.193 4.106,0 4.3,-1.256 1.062,-5.796 6.52,-5.362 7.583,-7.632 1.014,-2.366 6.328,-1.642 5.99,0.58 -0.339,2.174 -9.274,11.544 -5.41,12.462 3.912,0.918 2.366,3.381 3.477,4.058 1.112,0.676 4.009,-2.657 4.589,-5.459 0.628,-2.801 2.802,-3.912 2.802,-3.236 0.048,0.676 -0.435,12.8 0.966,12.559 1.401,-0.242 2.077,1.884 2.415,2.801 0.29,0.966 3.962,0.677 3.962,0.677 0,0 2.125,7.535 5.748,2.705 3.671,-4.831 2.028,-6.762 2.028,-6.762 0,0 2.753,5.892 4.927,2.898 2.174,-2.995 1.739,-2.754 4.058,-5.845 2.367,-3.14 4.685,0.097 5.555,-1.981 0.869,-2.125 5.12,-2.125 5.12,-2.125 0,0 -0.676,9.709 1.207,9.66 1.933,-0.144 5.024,-0.917 5.024,-4.685 0,-3.671 2.898,-3.526 2.898,-3.526 0,0 -1.593,7.777 0.097,8.984 1.643,1.305 1.835,-1.738 3.815,-2.994 1.981,-1.256 3.382,3.575 4.058,-0.242 0.725,-3.816 2.754,-0.241 2.416,2.463 -0.29,2.754 -5.556,0.87 -5.507,4.155 0.048,3.236 0.289,4.54 0.289,4.54 0,0 4.638,0.967 6.135,3.14 1.449,2.174 4.01,-5.072 4.01,-5.072 0,0 4.492,6.328 0.579,9.275 -3.912,2.898 -1.546,6.955 0.967,8.211 2.511,1.304 2.415,-3.478 3.815,-3.719 1.4,-0.242 2.512,-4.396 2.512,-4.396 0,0 2.898,11.883 5.651,13.767 2.802,1.787 5.072,4.105 6.087,3.478 1.063,-0.774 4.782,-6.039 4.782,-6.039 0,0 -1.546,14.588 0.628,15.602 2.174,1.015 5.12,0.339 5.12,0.339 l 0.822,-6.135 c 0,0 3.912,10.096 5.554,10.434 1.643,0.338 4.734,-1.305 4.734,-1.305 0,0 -1.981,-5.313 -0.145,-6.086 1.835,-0.821 3.622,3.333 4.057,3.768 0.434,0.483 2.608,3.526 2.754,5.652 0.193,2.222 0.724,1.062 1.69,-2.078 0.966,-3.091 2.415,-1.062 2.609,2.319 0.193,3.333 -1.063,3.333 0.628,4.54 1.642,1.16 8.694,19.419 11.158,25.214 2.415,5.75 9.177,20.144 13.524,23.621 4.348,3.43 5.894,10.289 5.894,10.289 0,0 -5.314,-3.72 -5.12,0 0.192,3.719 1.98,5.7 2.607,7.535 0.628,1.884 1.305,6.956 0.628,15.747 -0.676,8.791 3.816,9.517 4.348,12.511 0.531,2.995 -4.009,5.99 -4.009,5.99 l 4.491,6.955 c 0,0 -12.848,1.643 -13.187,-5.313 -0.337,-6.956 5.411,-14.83 0.533,-18.549 -4.831,-3.719 -9.516,-7.825 -10.724,-12.511 -1.256,-4.636 -4.202,-11.592 -9.612,-12.945 -5.362,-1.4 -9.709,3.044 -5.893,5.555 3.863,2.56 6.086,7.874 8.163,10.386 2.076,2.56 4.83,13.862 5.893,13.862 1.062,0 1.932,2.126 3.671,2.126 1.739,0 4.347,-3.284 5.217,9.95 0.87,13.187 4.202,14.347 4.202,14.347 0,0 9.371,9.709 9.902,16.665 0.532,6.955 0.869,8.501 1.884,9.032 1.063,0.435 5.024,9.468 4.154,19.177 -0.869,9.757 -1.546,17.582 -1.546,17.582 0,0 -7.825,-6.714 -7.486,-16.423 0.338,-9.757 -5.748,-6.714 -13.38,-12.269 -7.633,-5.507 -10.435,-8.791 -12.85,-15.699 -2.415,-6.955 -11.302,-1.4 -12.124,-9.033 -0.869,-7.631 -6.762,-6.521 -7.148,-3.961 -0.338,2.561 -3.43,12.318 1.4,12.994 4.879,0.676 6.618,2.802 7.633,10.192 1.062,7.391 2.27,8.067 4.878,10.192 2.608,2.078 5.024,7.391 5.024,7.391 0,0 -6.667,0.483 -7.632,4.733 -0.966,4.3 1.883,2.802 2.415,4.3 0.531,1.545 3.816,12.752 2.801,15.795 -1.062,2.995 -4.443,-0.724 -4.443,-0.724 l 2.705,-1.498 c 0,0 -2.222,11.11 -0.677,13.525 1.546,2.415 5.217,2.077 5.217,2.077 0,0 3.381,8.501 -3.767,11.593 -7.15,2.995 -8.163,-0.483 -7.15,-1.642 1.063,-1.208 8.164,-1.45 8.164,-1.45 0,0 -5.893,16.713 -0.339,17.39 5.556,0.676 7.971,-2.802 8.696,0 0.676,2.753 -0.532,6.472 -1.546,12.269 -1.015,5.797 5.892,7.149 6.956,7.149 1.061,0 -6.956,2.077 -4.541,7.439 2.463,5.313 7.825,3.719 7.825,3.719 0,0 -3.623,23.379 0.531,26.18 4.155,2.802 2.609,9.951 5.555,12.752 2.995,2.754 6.811,10.144 6.811,10.144 0,0 -17.196,-3.236 -18.404,-6.907 -1.207,-3.768 -5.361,4.589 -5.554,5.989 -0.194,1.401 -10.242,-5.361 -11.449,-14.394 -1.256,-8.984 -9.419,-18.452 -19.659,-25.408 -10.241,-6.955 -15.265,0.725 -13.235,5.797 2.125,5.071 -4.348,-0.724 4.879,6.473 9.225,7.197 9.95,16.23 9.95,18.306 0,2.029 4.975,-6.472 4.975,-6.472 l 2.078,11.785 c 0,0 1.738,-3.719 4.878,-0.434 3.139,3.236 -2.222,13.332 0.87,15.409 3.139,2.077 6.134,-1.594 5.844,2.608 -0.338,4.106 -7.1,5.603 -6.231,8.647 0.869,2.995 7.197,5.893 7.197,5.893 0,0 -0.338,11.158 -4.105,5.796 -3.72,-5.313 -5.266,1.836 -7.873,-3.333 -2.61,-5.217 -1.402,-6.811 -0.194,-9.95 1.207,-3.14 0.338,-6.376 -1.401,-4.83 -1.738,1.497 -2.077,5.023 -4.009,3.091 -1.884,-1.981 -7.197,-5.459 -8.163,-2.319 -0.966,3.091 -4.492,3.333 -0.629,5.893 3.913,2.561 3.913,2.415 4.059,3.865 0.193,1.352 -7.44,-7.295 -9.516,-1.981 -2.078,5.313 -3.574,7.536 -0.628,9.854 2.947,2.27 2.609,4.975 5.555,4.975 2.946,0 6.859,0.917 3.043,4.058 -3.817,3.091 -4.444,8.115 -4.348,10.627 0.097,2.56 -1.884,14.297 2.271,17.051 4.153,2.802 -0.097,8.018 1.11,10.385 1.208,2.463 4.444,4.879 4.444,4.879 0,0 0.338,5.555 -2.85,5.313 -3.188,-0.241 -6.665,-1.545 -6.617,1.498 0.096,3.042 6.956,0.724 8.502,4.202 1.545,3.478 -1.836,7.294 -2.658,11.593 -0.917,4.25 -3.09,17.002 0.146,25.263 3.187,8.163 2.415,21.253 3.043,26.325 0.628,5.12 3.14,1.642 3.14,8.115 0,6.472 -1.305,11.593 -1.305,11.593 0,0 -4.444,-2.995 -4.25,-11.835 0.192,-8.791 -2.174,-12.849 -6.232,-6.956 -4.057,5.893 -4.251,8.067 -8.355,4.396 -4.059,-3.671 -6.667,-2.656 -7.198,2.657 -0.531,5.314 -8.598,9.516 1.352,8.115 9.999,-1.401 11.207,1.739 11.207,1.739 0,0 -10.966,3.719 -9.274,7.197 1.69,3.478 2.898,4.396 4.202,5.893 1.305,1.497 0,15.457 0,15.457 0,0 -5.12,-6.086 -5.217,-10.965 -0.097,-4.83 -3.767,-12.607 -5.989,-8.55 -2.271,4.106 -6.618,0.822 -7.294,6.473 -0.676,5.7 -1.159,5.411 0.29,9.854 1.353,4.444 1.449,7.198 0.338,10.434 -1.159,3.188 -0.097,14.926 -0.097,14.926 0,0 -11.255,-7.68 -10.578,-17.341 0.676,-9.758 0.53,-13.719 -2.27,-15.796 -2.802,-2.077 -4.493,2.415 -4.493,3.14 0,0.677 -1.98,2.319 -2.705,-3.574 -0.675,-5.845 1.497,-6.812 -1.352,-7.777 -2.899,-0.918 -5.99,-3.865 -5.99,-3.865 0,0 -3.236,8.55 -0.724,10.869 2.559,2.318 -2.657,13.09 0.386,14.395 3.044,1.255 7.439,2.317 8.26,5.989 0.773,3.719 4.057,23.378 0.966,32.894 -3.139,9.468 -5.941,10.82 -5.941,10.82 0,0 2.077,-10.82 -3.285,-16.664 -5.41,-5.748 -9.033,-14.588 -9.033,-14.588 0,0 -10.433,14.346 -4.685,20.094 5.748,5.797 5.556,15.989 5.556,15.989 0,0 8.694,8.115 11.109,33.136 2.415,24.973 0.339,31.494 0.339,31.494 0,0 -7.971,-26.856 -7.488,-32.412 0.532,-5.555 -8.695,-17.63 -11.303,-17.147 -2.609,0.482 -3.816,8.356 -4.685,12.51 -0.87,4.154 -7.295,-0.435 -4.203,6.28 3.14,6.713 0.725,4.637 4.348,3.478 3.623,-1.16 -0.725,8.742 2.753,14.587 3.478,5.748 0.87,15.023 3.816,25.456 2.946,10.386 -5.41,15.264 -5.41,15.264 0,0 -8.84,-21.108 -13.042,-25.021 -4.153,-3.961 -8.501,-6.666 -9.371,-0.918 -0.821,5.797 -9.902,0.242 -7.777,10.192 2.078,9.95 -8.502,10.869 -3.285,12.752 5.217,1.836 14.057,-0.483 14.057,-0.483 0,0 -14.057,13.187 -14.057,17.341 0,4.203 2.077,5.796 8.647,-1.594 6.618,-7.438 6.182,-2.125 6.182,-2.125 0,0 1.402,11.013 -1.738,13.863 -3.14,2.898 0.773,7.97 2.077,5.458 1.305,-2.56 3.768,-6.279 3.768,-6.279 0,0 -2.802,7.632 0.676,11.11 3.526,3.478 5.121,1.159 5.652,5.893 0.531,4.782 -0.387,9.854 -0.387,9.854 0,0 -2.028,-10.096 -6.087,-9.854 -4.057,0.241 -2.946,8.404 -2.415,11.11 0.532,2.656 -2.269,22.219 -2.269,22.219 0,0 -0.677,-16.037 -3.14,-14.201 -2.415,1.836 -5.556,7.052 -6.666,2.415 -1.159,-4.589 -2.995,-3.816 -4.251,-12.124 -1.304,-8.308 -5.797,-2.319 -6.52,0.676 -0.725,2.995 3.043,1.015 3.38,7.052 0.338,5.99 -2.173,22.8 0.338,24.684 2.513,1.787 2.513,9.805 2.513,9.805 0,0 -3.961,-2.898 -4.348,2.898 -0.338,5.797 1.256,9.275 1.256,9.275 l 1.159,9.95 c 0,0 -3.815,-7.825 -6.231,-3.333 -2.415,4.493 -6.811,7.584 -8.212,8.309 -1.351,0.676 -11.158,35.406 -11.158,35.406 0.145,-9.999 -11.834,-30.19 -12.413,-37.387 -1.692,-23.186 6.907,-39.367 0.531,-37.145 -5.7,1.98 2.076,-23.475 -0.918,-21.205 -2.947,2.318 -8.356,7.052 -7.922,3.67 0.435,-3.332 3.381,-4.636 3.043,-8.791 -0.387,-4.203 0.677,-10.095 -1.836,-8.549 -2.511,1.497 -4.878,8.308 -7.632,9.805 -2.801,1.546 -5.989,-5.748 -5.12,-7.825 0.87,-2.125 5.362,0.048 6.86,-9.516 1.497,-9.564 1.739,-11.544 2.849,-12.8 1.112,-1.256 7.488,-0.773 5.217,-8.695 -2.222,-7.825 -4.927,-0.87 -4.299,-4.734 0.58,-3.864 7.053,-2.898 8.937,-6.956 1.883,-4.057 -1.546,-4.878 -4.01,-5.119 -2.415,-0.291 -3.14,-4.686 -3.14,-4.686 0,0 4.009,1.691 4.589,-2.415 0.628,-4.057 3.768,-5.555 4.058,-9.709 0.338,-4.155 -3.382,-12.511 -6.038,-9.178 -2.705,3.333 -5.652,15.167 -8.598,19.66 -2.947,4.492 -2.126,6.134 -5.99,11.254 -3.912,5.072 -2.609,21.495 -2.609,21.495 0,0 -7.197,-2.656 -6.568,-7.728 0.579,-5.12 2.366,-17.727 0.435,-18.645 -1.885,-0.918 -4.589,-2.995 -3.044,-8.308 1.546,-5.362 3.623,-8.937 3.623,-10.772 0,-1.836 7.633,-8.405 4.879,-10.724 -2.802,-2.318 -9.709,-2.995 -8.502,-8.114 1.208,-5.12 9.177,0 8.841,-4.638 -0.339,-4.588 -6.57,0 -4.494,-8.984 2.029,-9.033 2.802,5.072 9.178,0.193 6.425,-4.83 0.387,-7.825 2.077,-12.704 1.74,-4.879 2.223,5.748 3.72,6.618 1.546,0.772 -1.208,-5.941 0.725,-9.274 1.932,-3.382 2.608,7.631 4.685,4.54 2.077,-3.14 0.338,-7.632 0.725,-9.033 0.338,-1.4 -3.478,-3.961 -3.043,-7.294 0.434,-3.333 4.878,-3.236 2.946,-5.168 -1.885,-1.98 -5.99,-5.7 -6.425,-9.661 -0.434,-3.913 -5.748,-5.555 -5.217,2.367 0.532,7.825 -2.125,17.921 -4.492,20.674 -2.366,2.802 -11.013,-5.314 -11.737,-7.631 -0.726,-2.319 -7.148,1.931 -5.361,11.93 1.738,9.95 -5.218,7.197 -8.02,8.598 -2.753,1.401 -7.437,2.319 -6.762,-6.763 0.676,-9.032 0.676,-34.73 0.676,-34.73 0,0 -5.748,-3.091 -7.294,-0.193 -1.545,2.85 -6.52,-2.801 -4.684,-5.555 1.835,-2.802 3.332,-3.623 3.671,-4.202 0.337,-0.58 3.38,-0.193 3.815,-6.569 0.435,-6.425 -5.651,-2.223 -3.236,-5.7 2.464,-3.43 3.768,-2.753 4.347,-5.169 0.628,-2.463 2.368,-6.617 2.368,-6.617 0,0 2.511,-2.705 0.434,-4.299 -2.077,-1.691 1.015,-5.121 0.338,-6.57 -0.725,-1.546 -7.148,-1.787 -7.729,1.16 -0.627,2.85 -1.11,4.299 -1.303,7.583 -0.194,3.382 -3.237,3.72 -4.107,8.502 -0.869,4.685 -2.415,11.544 -2.415,11.544 0,0 -3.284,0.097 -2.656,-5.217 0.58,-5.265 0.482,-11.109 0.097,-11.206 -0.435,-0.097 -3.237,-2.415 -2.705,-4.734 0.531,-2.318 1.932,-6.956 0.337,-9.757 -1.544,-2.753 -6.278,0 -0.869,-7.197 5.363,-7.15 9.709,-4.782 9.709,-8.067 0,-3.236 0.194,-2.077 -8.84,-13.187 -9.032,-11.158 -13.138,-4.299 -11.06,1.933 2.076,6.278 3.235,5.458 3.284,8.308 0.097,2.898 -1.208,3.622 -3.043,1.159 -1.787,-2.463 -9.709,-4.058 -9.661,-5.989 0.097,-2.03 0.338,-7.778 0.338,-9.758 0,-1.932 -5.168,-0.483 -6.521,4.589 -1.4,5.071 -7.631,3.719 -7.149,0.241 0.532,-3.478 3.816,-3.236 1.739,-6.714 -2.076,-3.477 -6.424,-4.299 -5.458,-6.231 0.966,-1.98 2.077,-1.159 3.14,-3.575 1.015,-2.463 5.651,1.353 7.294,-0.483 1.642,-1.883 0.339,-3.961 -2.705,-6.521 -3.043,-2.512 -3.188,-9.612 -1.207,-11.254 1.979,-1.595 7.776,-8.212 7.776,-13.139 0,-4.975 -1.642,-7.632 1.498,-9.033 3.14,-1.449 11.979,-7.197 13.911,-10.82 1.884,-3.526 3.14,-14.636 -1.593,-13.766 -4.687,0.966 -5.122,-0.725 -9.034,8.55 -3.912,9.274 -11.255,15.167 -11.255,15.167 0,0 -0.338,-7.922 1.256,-16.762 1.546,-8.791 -1.594,-12.365 1.159,-15.07 2.802,-2.657 6.86,-0.773 6.86,-5.845 0,-5.12 2.318,-8.357 4.54,-10.047 2.174,-1.739 -2.415,-0.145 2.657,-5.941 5.168,-5.797 5.748,-7.198 5.748,-7.198 l -7.294,-2.415 7.97,-4.299 c 0,0 -4.54,-3.478 -3.72,-4.589 0.726,-1.207 15.699,1.933 15.892,-1.545 0.145,-3.43 -1.545,-5.507 0.435,-6.328 1.981,-0.773 3.671,2.415 4.976,-2.56 1.305,-4.976 -0.967,-4.637 4.879,-4.976 5.796,-0.338 5.555,-0.724 6.23,-3.912 0.677,-3.285 4.058,-5.072 3.913,-9.95 -0.193,-4.879 -6.231,-6.28 -7.825,1.593 -1.546,7.874 -1.401,5.797 -8.694,5.072 -7.295,-0.676 -11.98,-2.077 -13.043,6.038 -1.062,8.115 -2.802,12.753 -11.641,18.742 -8.84,5.99 -0.531,5.99 -10.578,10.627 -10.096,4.637 -12.511,8.308 -12.848,13.187 -0.339,4.878 -3.961,16.471 -3.961,16.471 0,0 -6.086,-13.186 -4.204,-27.098 1.933,-13.912 6.764,-8.308 8.502,-19.031 1.739,-10.627 -4.154,-9.034 4.685,-18.984 8.841,-9.95 6.28,-16.906 6.28,-16.906 0,0 -10.965,-6.714 -15.458,-2.27 -4.54,4.395 -4.926,8.791 -1.303,10.53 3.67,1.69 -7.874,5.844 -7.97,10.868 -0.098,4.976 1.207,4.395 0.096,7.391 -1.16,3.043 -2.511,8.114 -2.463,9.177 0.096,1.014 -4.348,-2.995 -4.879,-7.535 -0.532,-4.493 3.285,-10.675 2.946,-13.429 -0.338,-2.753 -0.772,-14.201 -0.772,-14.201 0,0 -4.251,-2.366 -5.121,5.748 -0.87,8.116 -4.637,8.936 -4.637,8.936 0,0 1.063,-4.975 -0.338,-7.196 -1.401,-2.223 -3.381,-4.638 -3.526,-5.217 -0.193,-0.58 4.927,-3.575 4.927,-3.575 0,0 1.497,-2.898 3.719,-12.801 2.27,-9.95 -0.869,-9.95 7.826,-16.471 8.694,-6.473 10.578,-8.743 5.699,-9.226 -4.878,-0.435 -12.51,3.478 -12.51,0.725 0,-2.753 5.023,-4.155 7.969,-6.714 2.947,-2.609 0.87,-7.874 0.87,-9.951 0,-2.125 7.439,12.897 8.309,8.743 0.917,-4.202 -3.623,-14.588 1.062,-17.341 4.685,-2.754 6.617,1.642 6.956,-2.512 0.339,-4.154 1.4,-7.632 2.221,-7.632 0.87,0 2.271,19.418 4.01,9.468 1.739,-9.903 4.154,-8.985 1.594,-13.863 -2.609,-4.831 -11.979,-9.71 -12.849,-3.961 -0.869,5.796 -0.193,9.08 -8.163,14.587 -7.97,5.555 -15.07,6.715 -17.872,19.66 -2.802,12.993 -8.695,13.428 -8.695,13.428 0,0 0,-20.819 0.725,-32.846 0.724,-12.076 4.202,-10.675 7.632,-20.385 3.478,-9.708 6.279,-15.263 8.357,-16.664 2.076,-1.353 5.216,-3.671 4.541,-7.825 -0.726,-4.154 -2.802,-9.709 -1.74,-14.347 1.015,-4.636 12.8,0 12.8,0 0,0 2.271,-12.993 -3.815,-15.312 -6.087,-2.27 -11.834,7.198 -13.042,12.318 -1.208,5.072 -16.665,9.467 -17.341,16.665 -0.725,7.196 -6.474,9.032 -7.487,17.582 -1.063,8.598 -4.879,14.153 -4.879,14.153 0,0 -0.532,-7.294 -0.773,-9.613 -0.241,-2.318 1.305,-6.279 2.609,-11.834 1.303,-5.507 -4.589,-10.095 -1.45,-14.056 3.14,-3.912 6.232,-5.651 6.329,-6.811 0.047,-1.159 -2.996,-8.453 5.361,-29.32 8.356,-20.819 20.48,-27.775 20.48,-27.775 0,0 -6.617,-5.989 -18.017,0.966 -11.495,6.908 -14.249,9.226 -14.249,14.781 0,5.555 -9.709,12.946 -9.709,12.946 0,0 -0.725,-17.583 0.338,-21.302 1.014,-3.671 7.294,2.753 8.694,-8.792 1.353,-11.544 -5.94,-9.226 2.077,-15.698 8.019,-6.473 25.36,-2.802 25.36,-2.802 0,0 -15.458,-15.747 -22.268,-8.067 -6.763,7.632 -9.371,1.159 -8.163,-0.676 1.207,-1.835 1.738,-7.197 13.718,-9.709 11.689,-2.512 13.138,-1.014 11.448,-7.197 l -4.299,4.83 -20.239,-23.089 c 2.753,-1.787 6.134,-3.333 6.81,-3.574 1.208,-0.435 2.561,2.898 4.155,-0.532 1.593,-3.381 -3.189,-9.419 -3.189,-9.419 0,0 4.735,-1.111 7.777,-0.096 3.091,0.966 4.396,1.546 9.129,-2.03 3.817,-2.801 6.086,-3.284 8.888,-1.448 2.367,0.144 4.928,1.063 7.053,1.255 1.594,-1.932 2.753,-4.975 3.333,-5.989 0.097,-0.145 0.145,-0.339 0.193,-0.531 -0.918,-1.643 -2.56,-3.092 -4.202,-4.493 -1.062,-0.048 -2.223,0.339 -3.43,1.305 -4.782,3.912 -8.453,-7.053 -14.056,-4.976 -5.603,2.125 -9.419,1.691 -18.162,-1.546 -8.744,-3.139 -11.739,-10.24 -16.665,-4.057 -4.975,6.231 -14.491,3.526 -14.491,3.526 0,0 3.719,-5.362 8.308,-12.028 4.54,-6.617 12.462,-8.646 13.477,-8.018 1.013,0.628 2.173,-0.048 6.279,-3.816 4.154,-3.815 16.471,-1.594 16.471,-1.594 0,0 3.091,2.126 10.917,-5.12 7.728,-7.246 7.97,-3.043 9.274,-1.594 1.305,1.497 3.043,1.015 3.864,1.932 0.773,0.87 8.985,-3.623 11.931,-3.333 2.946,0.242 7.535,-1.062 11.738,0.676 0.145,0.049 0.29,0.097 0.483,0.145 0.627,-0.821 1.4,-1.787 2.173,-2.705 -0.434,-1.835 -1.835,-4.154 -4.008,-5.893 -4.831,-3.816 -10.772,-2.076 -14.202,-0.387 -3.43,1.788 -9.178,0.243 -14.83,-1.689 -5.65,-1.933 -5.554,7.728 -9.563,11.688 -4.009,3.913 -12.849,-8.114 -12.849,-8.114 l 7.149,-0.339 c 0,0 -1.787,-5.699 0.242,-7.052 2.028,-1.401 5.748,2.077 9.999,-3.864 4.202,-5.941 7.486,-8.405 8.935,-9.033 1.45,-0.579 3.913,-0.242 6.039,-2.367 2.125,-2.077 -3.865,-4.347 -3.865,-4.347 0,0 4.879,-2.802 10.047,-1.208 4.202,1.352 24.007,-44.149 44.874,-36.131 1.884,0.725 0.966,-0.338 2.899,-2.173 1.931,-1.884 4.105,-1.643 3.187,0.82 -0.869,2.464 -1.111,3.382 -0.482,3.093 11.737,-9.42 22.605,-9.42 33.329,-12.801 48.207,-15.168 20.626,-234.755 15.312,-295.425 L 4.64,-306.582 C 4.64,-249.295 -27.724,-16.665 0.051,0 Z"
             style="fill:#488f1a;fill-opacity:1;fill-rule:nonzero;stroke:none"
             id="path30"
             inkscape:connector-curvature="0" /></g><g
           id="g32"
           transform="translate(3397.1416,2591.4409)"><path
             d="m 0,0 c 2.125,0.193 3.382,0 3.526,-1.015 0.87,-4.781 5.362,-4.395 6.231,-6.278 0.869,-1.933 5.217,-1.353 4.928,0.482 -0.29,1.788 -7.633,9.516 -4.445,10.241 3.237,0.773 1.933,2.753 2.85,3.333 0.918,0.579 3.285,-2.174 3.767,-4.493 0.533,-2.27 2.32,-3.236 2.32,-2.656 0.048,0.579 -0.339,10.53 0.772,10.337 1.159,-0.194 1.739,1.545 1.981,2.318 0.241,0.822 3.236,0.58 3.236,0.58 0,0 1.738,6.231 4.733,2.222 2.996,-4.009 1.643,-5.555 1.643,-5.555 0,0 2.271,4.83 4.058,2.367 1.787,-2.464 1.401,-2.27 3.333,-4.831 1.932,-2.608 3.864,0.097 4.588,-1.594 0.725,-1.738 4.203,-1.738 4.203,-1.738 0,0 -0.579,8.018 1.014,7.921 1.594,-0.096 4.155,-0.772 4.155,-3.864 0,-2.995 2.366,-2.899 2.366,-2.899 0,0 -1.304,6.377 0.049,7.391 1.352,1.063 1.497,-1.4 3.139,-2.463 1.643,-1.063 2.802,2.946 3.333,-0.193 0.58,-3.14 2.271,-0.194 2.029,2.028 -0.242,2.27 -4.54,0.725 -4.54,3.43 0.047,2.657 0.241,3.72 0.241,3.72 0,0 3.816,0.82 5.023,2.608 1.208,1.787 3.284,-4.154 3.284,-4.154 0,0 3.72,5.216 0.484,7.631 -3.237,2.367 -1.256,5.7 0.821,6.763 2.077,1.063 1.981,-2.85 3.14,-3.043 1.159,-0.193 2.077,-3.623 2.077,-3.623 0,0 2.366,9.806 4.637,11.352 2.27,1.497 4.154,3.381 5.024,2.849 0.869,-0.628 3.912,-4.975 3.912,-4.975 0,0 -1.304,12.028 0.531,12.849 1.787,0.821 4.203,0.29 4.203,0.29 l 0.676,-5.072 c 0,0 3.237,8.308 4.54,8.598 1.353,0.289 3.913,-1.063 3.913,-1.063 0,0 -1.642,-4.347 -0.096,-5.024 1.497,-0.676 2.995,2.754 3.332,3.092 0.339,0.386 2.174,2.899 2.271,4.637 0.145,1.836 0.579,0.869 1.401,-1.691 0.772,-2.56 1.98,-0.869 2.125,1.884 0.144,2.754 -0.87,2.754 0.482,3.719 1.354,0.967 7.149,15.989 9.179,20.771 1.979,4.734 7.535,16.569 11.157,19.418 3.575,2.851 4.831,8.454 4.831,8.454 0,0 -4.348,-3.044 -4.203,0 0.145,3.091 1.643,4.685 2.126,6.182 0.531,1.546 1.062,5.7 0.531,12.945 -0.579,7.198 3.14,7.826 3.574,10.289 0.436,2.463 -3.284,4.927 -3.284,4.927 l 3.72,5.7 c 0,0 -10.579,1.353 -10.869,-4.396 -0.289,-5.748 4.444,-12.172 0.434,-15.264 -4.008,-3.043 -7.824,-6.472 -8.839,-10.288 -1.014,-3.816 -3.429,-9.516 -7.874,-10.676 -4.443,-1.11 -7.969,2.513 -4.83,4.589 3.14,2.077 5.024,6.473 6.715,8.55 1.69,2.126 4.009,11.4 4.83,11.4 0.869,0 1.594,1.739 2.994,1.739 1.45,0 3.576,-2.705 4.3,8.212 0.725,10.867 3.43,11.785 3.43,11.785 0,0 7.728,7.971 8.163,13.719 0.435,5.699 0.725,7.004 1.546,7.439 0.869,0.337 4.153,7.776 3.43,15.795 -0.725,8.018 -1.256,14.491 -1.256,14.491 0,0 -6.425,-5.555 -6.135,-13.526 0.289,-8.017 -4.733,-5.554 -11.014,-10.095 -6.279,-4.54 -8.598,-7.245 -10.578,-12.945 -2.029,-5.7 -9.323,-1.111 -9.999,-7.439 -0.724,-6.279 -5.556,-5.361 -5.892,-3.236 -0.29,2.077 -2.851,10.144 1.158,10.675 4.058,0.58 5.41,2.27 6.28,8.405 0.869,6.086 1.884,6.618 4.009,8.357 2.174,1.69 4.154,6.085 4.154,6.085 0,0 -5.507,0.387 -6.279,3.913 -0.774,3.526 1.546,2.319 1.979,3.526 0.436,1.256 3.141,10.53 2.32,12.994 -0.869,2.463 -3.671,-0.58 -3.671,-0.58 l 2.221,-1.208 c 0,0 -1.835,9.13 -0.579,11.11 1.304,1.981 4.299,1.74 4.299,1.74 0,0 2.801,7.004 -3.092,9.516 -5.844,2.463 -6.714,-0.387 -5.844,-1.353 0.869,-0.966 6.714,-1.208 6.714,-1.208 0,0 -4.831,13.718 -0.29,14.298 4.589,0.58 6.57,-2.27 7.149,0 0.531,2.27 -0.435,5.314 -1.305,10.095 -0.869,4.782 4.879,5.894 5.7,5.894 0.87,0 -5.7,1.69 -3.719,6.086 2.029,4.396 6.424,3.043 6.424,3.043 0,0 -2.995,19.225 0.435,21.543 3.43,2.271 2.174,8.164 4.541,10.483 2.464,2.27 5.603,8.356 5.603,8.356 0,0 -14.153,-2.657 -15.167,-5.7 -0.966,-3.091 -4.396,3.767 -4.54,4.927 -0.146,1.159 -8.455,-4.396 -9.42,-11.835 -1.015,-7.39 -7.729,-15.167 -16.182,-20.915 -8.453,-5.7 -12.559,0.58 -10.868,4.782 1.738,4.202 -3.574,-0.58 4.01,5.313 7.583,5.894 8.163,13.332 8.163,15.072 0,1.69 4.105,-5.314 4.105,-5.314 l 1.738,9.709 c 0,0 1.45,-3.043 4.01,-0.387 2.561,2.657 -1.836,10.965 0.725,12.656 2.56,1.69 5.071,-1.304 4.782,2.125 -0.29,3.381 -5.845,4.638 -5.12,7.101 0.725,2.464 5.941,4.83 5.941,4.83 0,0 -0.29,9.178 -3.382,4.783 -3.042,-4.396 -4.347,1.497 -6.472,-2.754 -2.174,-4.299 -1.159,-5.603 -0.146,-8.163 1.015,-2.608 0.29,-5.265 -1.159,-4.01 -1.4,1.208 -1.738,4.155 -3.284,2.56 -1.546,-1.642 -5.941,-4.491 -6.714,-1.932 -0.773,2.561 -3.72,2.754 -0.483,4.831 3.236,2.077 3.236,1.98 3.333,3.14 0.145,1.111 -6.135,-5.99 -7.825,-1.643 -1.691,4.396 -2.947,6.183 -0.532,8.115 2.415,1.884 2.126,4.106 4.589,4.106 2.415,0 5.652,0.773 2.512,3.333 -3.14,2.56 -3.671,6.714 -3.574,8.743 0.048,2.077 -1.546,11.738 1.883,14.008 3.43,2.319 -0.047,6.569 0.918,8.55 1.015,2.028 3.623,4.009 3.623,4.009 0,0 0.29,4.541 -2.367,4.396 -2.608,-0.194 -5.507,-1.257 -5.41,1.207 0.049,2.512 5.749,0.58 7.004,3.478 1.256,2.85 -1.497,6.038 -2.174,9.516 -0.724,3.478 -2.512,13.96 0.146,20.77 2.656,6.714 1.98,17.487 2.464,21.689 0.531,4.202 2.607,1.352 2.607,6.665 0,5.314 -1.062,9.516 -1.062,9.516 0,0 -3.671,-2.463 -3.526,-9.709 0.146,-7.245 -1.787,-10.578 -5.12,-5.7 -3.382,4.831 -3.526,6.667 -6.859,3.623 -3.381,-3.043 -5.507,-2.174 -5.942,2.174 -0.434,4.347 -7.1,7.825 1.112,6.666 8.259,-1.16 9.225,1.449 9.225,1.449 0,0 -8.984,3.043 -7.632,5.941 1.353,2.85 2.367,3.623 3.43,4.831 1.062,1.207 0,12.752 0,12.752 0,0 -4.202,-5.024 -4.3,-9.033 -0.048,-4.01 -3.091,-10.337 -4.927,-7.053 -1.835,3.382 -5.41,0.677 -6.038,5.314 -0.53,4.685 -0.917,4.444 0.242,8.115 1.111,3.623 1.208,5.893 0.29,8.598 -0.917,2.657 -0.096,12.318 -0.096,12.318 0,0 -9.275,-6.329 -8.695,-14.298 0.532,-8.019 0.435,-11.304 -1.884,-12.994 -2.27,-1.739 -3.719,1.98 -3.719,2.56 0,0.58 -1.643,1.884 -2.223,-2.947 -0.531,-4.83 1.208,-5.603 -1.111,-6.376 -2.366,-0.724 -4.927,-3.14 -4.927,-3.14 0,0 -2.656,7.053 -0.579,8.985 2.076,1.932 -2.223,10.772 0.289,11.834 2.513,1.063 6.135,1.884 6.811,4.927 0.628,3.044 3.333,19.225 0.772,27.05 -2.559,7.826 -4.878,8.937 -4.878,8.937 0,0 1.74,-8.937 -2.705,-13.67 -4.443,-4.734 -7.438,-11.98 -7.438,-11.98 0,0 -8.55,11.835 -3.865,16.568 4.734,4.782 4.541,13.139 4.541,13.139 0,0 7.149,6.666 9.129,27.292 1.981,20.528 0.29,25.89 0.29,25.89 0,0 -6.569,-22.123 -6.134,-26.664 0.434,-4.589 -7.149,-14.49 -9.275,-14.104 -2.125,0.435 -3.139,6.859 -3.864,10.289 -0.725,3.43 -5.989,-0.387 -3.43,5.168 2.609,5.507 0.579,3.816 3.575,2.85 2.995,-0.966 -0.58,7.197 2.27,12.027 2.85,4.735 0.725,12.366 3.14,20.965 2.416,8.549 -4.445,12.558 -4.445,12.558 0,0 -7.293,-17.341 -10.722,-20.577 -3.43,-3.236 -7.004,-5.507 -7.729,-0.773 -0.676,4.782 -8.114,0.193 -6.425,8.405 1.74,8.163 -7.004,8.936 -2.704,10.482 4.299,1.497 11.544,-0.387 11.544,-0.387 0,0 -11.544,10.869 -11.544,14.298 0,3.478 1.739,4.782 7.149,-1.304 5.458,-6.135 5.071,-1.739 5.071,-1.739 0,0 1.16,9.081 -1.448,11.399 -2.561,2.415 0.628,6.57 1.689,4.493 1.064,-2.078 3.093,-5.169 3.093,-5.169 0,0 -2.271,6.28 0.53,9.13 2.899,2.85 4.251,0.966 4.638,4.83 0.435,3.913 -0.338,8.115 -0.338,8.115 0,0 -1.643,-8.308 -5.023,-8.115 -3.382,0.193 -2.415,6.956 -2.03,9.13 0.436,2.222 -1.883,18.258 -1.883,18.258 0,0 -0.58,-13.235 -2.561,-11.689 -1.98,1.497 -4.589,5.796 -5.458,1.98 -0.966,-3.768 -2.463,-3.14 -3.526,-9.95 -1.062,-6.859 -4.782,-1.932 -5.362,0.58 -0.58,2.463 2.513,0.821 2.802,5.796 0.29,4.927 -1.787,18.742 0.29,20.287 2.077,1.498 2.077,8.067 2.077,8.067 0,0 -3.284,-2.367 -3.575,2.367 -0.289,4.782 1.015,7.632 1.015,7.632 l 0.966,8.212 c 0,0 -3.14,-6.473 -5.121,-2.754 -1.979,3.719 -5.602,6.232 -6.761,6.811 -1.111,0.58 -9.179,29.127 -9.179,29.127 0.145,-8.26 -9.757,-24.828 -10.191,-30.769 -1.401,-19.08 5.7,-32.412 0.434,-30.577 -4.684,1.643 1.692,-19.321 -0.724,-17.437 -2.416,1.884 -6.859,5.796 -6.521,3.043 0.338,-2.754 2.802,-3.816 2.512,-7.245 -0.289,-3.43 0.531,-8.308 -1.497,-7.053 -2.077,1.208 -4.009,6.859 -6.281,8.067 -2.317,1.256 -4.925,-4.733 -4.202,-6.473 0.677,-1.738 4.445,0.049 5.653,-7.825 1.255,-7.873 1.448,-9.516 2.366,-10.53 0.918,-1.015 6.135,-0.676 4.299,-7.149 -1.835,-6.473 -4.057,-0.725 -3.575,-3.864 0.484,-3.141 5.797,-2.415 7.343,-5.7 1.546,-3.334 -1.256,-4.01 -3.285,-4.203 -2.028,-0.241 -2.56,-3.864 -2.56,-3.864 0,0 3.285,1.353 3.768,-1.98 0.531,-3.333 3.092,-4.541 3.333,-7.971 0.29,-3.429 -2.802,-10.288 -4.976,-7.535 -2.222,2.754 -4.637,12.463 -7.052,16.182 -2.415,3.72 -1.739,5.072 -4.927,9.226 -3.236,4.202 -2.174,17.679 -2.174,17.679 0,0 -5.892,-2.174 -5.41,-6.328 0.483,-4.251 1.933,-14.587 0.339,-15.36 -1.546,-0.773 -3.769,-2.464 -2.513,-6.86 1.305,-4.395 2.995,-7.342 2.995,-8.887 0,-1.498 6.28,-6.908 4.009,-8.84 -2.269,-1.932 -8.018,-2.464 -7.004,-6.666 1.015,-4.202 7.584,0 7.294,-3.816 -0.29,-3.767 -5.409,0 -3.671,-7.39 1.691,-7.439 2.271,4.154 7.535,0.145 5.314,-3.961 0.29,-6.425 1.691,-10.434 1.449,-4.009 1.836,4.734 3.092,5.459 1.304,0.676 -1.015,-4.879 0.579,-7.633 1.594,-2.753 2.126,6.28 3.865,3.72 1.689,-2.609 0.289,-6.279 0.579,-7.439 0.29,-1.159 -2.85,-3.236 -2.512,-5.989 0.387,-2.754 4.009,-2.657 2.415,-4.251 -1.546,-1.594 -4.926,-4.686 -5.313,-7.922 -0.386,-3.236 -4.734,-4.54 -4.299,1.981 0.435,6.424 -1.739,14.732 -3.72,17.002 -1.931,2.319 -9.081,-4.395 -9.66,-6.28 -0.58,-1.883 -5.893,1.595 -4.444,9.806 1.401,8.213 -4.299,5.942 -6.57,7.052 -2.269,1.112 -6.133,1.885 -5.554,-5.554 0.58,-7.391 0.58,-28.595 0.58,-28.595 0,0 -4.734,-2.561 -5.99,-0.146 -1.304,2.367 -5.362,-2.27 -3.865,-4.588 1.498,-2.319 2.754,-2.947 2.995,-3.431 0.291,-0.482 2.802,-0.192 3.14,-5.409 0.338,-5.265 -4.685,-1.836 -2.657,-4.686 2.029,-2.849 3.093,-2.27 3.575,-4.25 0.531,-2.029 1.933,-5.41 1.933,-5.41 0,0 2.076,-2.222 0.385,-3.526 -1.738,-1.353 0.87,-4.203 0.29,-5.411 -0.58,-1.255 -5.844,-1.449 -6.375,0.967 -0.483,2.367 -0.918,3.526 -1.063,6.231 -0.145,2.802 -2.656,3.043 -3.381,7.004 -0.725,3.864 -1.98,9.516 -1.98,9.516 0,0 -2.706,0.096 -2.223,-4.299 0.482,-4.348 0.387,-9.13 0.049,-9.227 -0.387,-0.096 -2.656,-1.98 -2.223,-3.912 0.436,-1.932 1.595,-5.748 0.29,-8.019 -1.303,-2.27 -5.169,0 -0.724,-5.941 4.395,-5.844 7.97,-3.961 7.97,-6.617 0,-2.657 0.145,-1.691 -7.295,-10.82 -7.437,-9.178 -10.771,-3.526 -9.08,1.594 1.739,5.169 2.657,4.492 2.704,6.859 0.049,2.367 -1.014,2.946 -2.51,0.966 -1.498,-2.029 -8.02,-3.334 -7.923,-4.927 0.097,-1.643 0.29,-6.424 0.29,-8.018 0,-1.595 -4.251,-0.387 -5.361,3.767 -1.16,4.203 -6.28,3.091 -5.893,0.193 0.435,-2.85 3.14,-2.705 1.448,-5.506 -1.739,-2.85 -5.264,-3.526 -4.492,-5.169 0.821,-1.642 1.739,-0.966 2.561,-2.946 0.821,-2.029 4.636,1.111 5.989,-0.386 1.352,-1.546 0.29,-3.237 -2.222,-5.363 -2.512,-2.076 -2.608,-7.922 -0.967,-9.274 1.644,-1.304 6.425,-6.762 6.425,-10.819 0,-4.106 -1.352,-6.28 1.208,-7.391 2.609,-1.159 9.854,-5.941 11.447,-8.888 1.546,-2.898 2.561,-12.075 -1.303,-11.303 -3.865,0.773 -4.202,-0.58 -7.44,7.004 -3.235,7.632 -9.273,12.462 -9.273,12.462 0,0 -0.29,-6.521 1.014,-13.814 1.256,-7.198 -1.304,-10.144 0.966,-12.366 2.319,-2.174 5.652,-0.628 5.652,-4.831 0,-4.202 1.932,-6.859 3.719,-8.259 1.788,-1.449 -1.98,-0.145 2.222,-4.879 4.251,-4.782 4.733,-5.941 4.733,-5.941 l -5.989,-1.981 6.57,-3.526 c 0,0 -3.719,-2.898 -3.092,-3.768 0.628,-1.014 12.897,1.594 13.091,-1.255 0.144,-2.85 -1.305,-4.541 0.337,-5.217 1.643,-0.676 2.996,1.98 4.058,-2.126 1.063,-4.106 -0.821,-3.815 4.01,-4.106 4.782,-0.289 4.54,-0.579 5.12,-3.187 0.579,-2.706 3.381,-4.203 3.236,-8.212 -0.145,-4.009 -5.12,-5.168 -6.425,1.304 -1.255,6.473 -1.159,4.782 -7.148,4.202 -5.99,-0.579 -9.854,-1.69 -10.724,4.976 -0.869,6.666 -2.27,10.482 -9.564,15.408 -7.293,4.927 -0.435,4.927 -8.694,8.743 -8.308,3.817 -10.288,6.859 -10.578,10.82 -0.291,4.01 -3.286,13.526 -3.286,13.526 0,0 -5.022,-10.869 -3.429,-22.268 1.594,-11.449 5.603,-6.86 7.005,-15.651 1.448,-8.743 -3.43,-7.39 3.864,-15.602 7.293,-8.211 5.168,-13.911 5.168,-13.911 0,0 -9.032,-5.506 -12.703,-1.884 -3.72,3.623 -4.059,7.245 -1.064,8.646 3.044,1.401 -6.472,4.83 -6.569,8.936 -0.048,4.058 1.014,3.623 0.098,6.087 -0.967,2.511 -2.079,6.665 -2.03,7.584 0.049,0.82 -3.574,-2.464 -4.009,-6.232 -0.434,-3.72 2.705,-8.791 2.415,-11.061 -0.29,-2.27 -0.627,-11.689 -0.627,-11.689 0,0 -3.527,-1.933 -4.204,4.733 -0.723,6.666 -3.815,7.342 -3.815,7.342 0,0 0.869,-4.106 -0.29,-5.941 -1.159,-1.836 -2.753,-3.816 -2.899,-4.299 -0.144,-0.483 4.058,-2.947 4.058,-2.947 0,0 1.208,-2.366 3.092,-10.529 1.835,-8.165 -0.725,-8.165 6.424,-13.526 7.149,-5.313 8.695,-7.197 4.685,-7.584 -4.009,-0.386 -10.289,2.899 -10.289,0.58 0,-2.27 4.155,-3.429 6.57,-5.507 2.415,-2.125 0.725,-6.472 0.725,-8.163 0,-1.738 6.134,10.627 6.81,7.197 0.725,-3.429 -2.994,-11.979 0.87,-14.298 3.864,-2.27 5.458,1.353 5.699,-2.076 0.29,-3.43 1.16,-6.28 1.836,-6.28 0.725,0 1.836,15.989 3.285,7.826 1.448,-8.165 3.429,-7.391 1.304,-11.4 -2.125,-4.01 -9.854,-8.019 -10.578,-3.285 -0.725,4.782 -0.146,7.439 -6.715,12.028 -6.568,4.589 -12.414,5.554 -14.733,16.181 -2.27,10.675 -7.148,11.062 -7.148,11.062 0,0 0,-17.148 0.579,-27.05 0.58,-9.951 3.43,-8.792 6.279,-16.81 2.899,-7.97 5.169,-12.559 6.86,-13.718 1.69,-1.111 4.299,-3.044 3.72,-6.473 -0.581,-3.43 -2.271,-8.018 -1.402,-11.786 0.821,-3.815 10.53,0 10.53,0 0,0 1.884,-10.675 -3.139,-12.607 -5.024,-1.884 -9.709,5.941 -10.724,10.144 -1.014,4.154 -13.718,7.776 -14.297,13.718 -0.58,5.941 -5.313,7.438 -6.134,14.491 -0.871,7.052 -4.009,11.641 -4.009,11.641 0,0 -0.436,-5.99 -0.629,-7.921 -0.194,-1.884 1.063,-5.169 2.126,-9.71 1.062,-4.54 -3.769,-8.308 -1.208,-11.544 2.56,-3.236 5.12,-4.638 5.217,-5.604 0.048,-0.965 -2.464,-6.955 4.395,-24.103 6.859,-17.148 16.858,-22.847 16.858,-22.847 0,0 -5.41,-4.928 -14.829,0.773 -9.467,5.699 -11.738,7.583 -11.738,12.172 0,4.589 -7.97,10.675 -7.97,10.675 0,0 -0.58,-14.491 0.289,-17.534 0.822,-3.043 5.991,2.27 7.15,-7.245 1.111,-9.517 -4.879,-7.584 1.69,-12.946 6.57,-5.314 20.867,-2.319 20.867,-2.319 0,0 -12.704,-12.945 -18.306,-6.665 -5.556,6.279 -7.68,0.966 -6.714,-0.58 1.014,-1.498 1.4,-5.893 11.254,-8.018 9.612,-2.077 10.82,-0.822 9.419,-5.942 l -3.526,3.961 -16.665,-18.983 c 2.271,-1.449 5.024,-2.753 5.603,-2.946 1.015,-0.387 2.078,2.367 3.382,-0.435 1.304,-2.802 -2.609,-7.777 -2.609,-7.777 0,0 3.865,-0.918 6.424,-0.097 2.561,0.773 3.623,1.256 7.536,-1.69 3.14,-2.319 5.024,-2.706 7.294,-1.208 1.932,0.097 4.057,0.869 5.796,1.014 1.305,-1.594 2.271,-4.106 2.754,-4.927 0.096,-0.096 0.145,-0.29 0.145,-0.434 -0.773,-1.353 -2.125,-2.561 -3.478,-3.72 -0.869,-0.048 -1.835,0.29 -2.85,1.063 -3.913,3.236 -6.956,-5.797 -11.544,-4.106 -4.589,1.739 -7.729,1.401 -14.926,-1.256 -7.198,-2.608 -9.661,-8.404 -13.718,-3.333 -4.106,5.12 -11.932,2.898 -11.932,2.898 0,0 3.092,-4.395 6.86,-9.902 3.767,-5.458 10.24,-7.149 11.109,-6.617 0.821,0.531 1.787,-0.049 5.169,-3.14 3.429,-3.14 13.524,-1.304 13.524,-1.304 0,0 2.561,1.739 8.985,-4.202 6.376,-5.942 6.569,-2.512 7.633,-1.304 1.062,1.207 2.511,0.82 3.187,1.593 0.628,0.725 7.391,-2.947 9.806,-2.753 2.415,0.193 6.183,-0.87 9.66,0.579 0.145,0.049 0.242,0.097 0.387,0.145 0.532,-0.676 1.159,-1.449 1.787,-2.222 -0.338,-1.497 -1.497,-3.429 -3.332,-4.83 -3.961,-3.139 -8.889,-1.739 -11.69,-0.338 -2.801,1.497 -7.535,0.193 -12.221,-1.352 -4.637,-1.595 -4.589,6.327 -7.873,9.612 -3.286,3.236 -10.579,-6.666 -10.579,-6.666 l 5.893,-0.289 c 0,0 -1.449,-4.687 0.193,-5.797 1.643,-1.111 4.734,1.691 8.212,-3.14 3.478,-4.878 6.134,-6.956 7.342,-7.439 1.207,-0.483 3.188,-0.193 4.976,-1.932 1.739,-1.739 -3.189,-3.574 -3.189,-3.574 0,0 4.01,-2.27 8.261,-0.966 3.477,1.111 19.756,-36.325 36.952,-29.707 1.546,0.58 0.821,-0.29 2.415,-1.787 1.594,-1.546 3.382,-1.353 2.656,0.676 -0.723,2.028 -0.917,2.802 -0.385,2.56 9.66,-7.728 18.596,-7.777 27.435,-10.53 39.658,-12.51 16.955,-193.166 12.609,-243.064 l 54.05,-2.222 c 0,47.145 -26.615,238.571 -3.767,252.29 z"
             style="fill:#488f1a;fill-opacity:1;fill-rule:nonzero;stroke:none"
             id="path34"
             inkscape:connector-curvature="0" /></g><g
           id="g36"
           transform="translate(875.5029,2382.9629)"><path
             d="M 0,0 C 467.482,55.887 867.483,604.084 1422.346,565.2 1846.5,535.493 2057.828,206.594 2352.432,150.804 1979.19,127.956 1824.521,404.059 1412.106,440.239 893.23,485.789 745.614,28.354 0.001,0 Z"
             style="fill:#7fc41c;fill-opacity:1;fill-rule:nonzero;stroke:none"
             id="path38"
             inkscape:connector-curvature="0" /></g><g
           id="g40"
           transform="translate(1936.5874,2650.2744)"><path
             d="M 0,0 C 158.822,91.536 340.54,105.978 525.156,51.927 -88.009,-54.776 245.286,-258.762 32.798,-350.587 c -117.233,-50.671 -200.75,62.747 -309.915,4.54 -147.181,-78.395 -314.891,-60.041 -486.755,34.248 C -507.477,-286.778 -258.666,-149.113 0,0"
             style="fill:#e6f2cf;fill-opacity:1;fill-rule:nonzero;stroke:none"
             id="path42"
             inkscape:connector-curvature="0" /></g><g
           id="g44"
           transform="translate(2908.4063,3280.4912)"><path
             d="m 0,0 c 109.069,0 197.465,-88.396 197.465,-197.514 0,-109.069 -88.396,-197.464 -197.465,-197.464 -109.069,0 -197.513,88.395 -197.513,197.464 C -197.513,-88.444 -109.117,0 0,0"
             style="fill:#f1c50e;fill-opacity:1;fill-rule:nonzero;stroke:none"
             id="path46"
             inkscape:connector-curvature="0" /></g></g></g><path
       style="font-style:normal;font-variant:normal;font-weight:600;font-stretch:normal;font-size:213.33332825px;line-height:1.25;font-family:Raleway;-inkscape-font-specification:'Raleway Semi-Bold';text-align:center;letter-spacing:0px;word-spacing:0px;text-anchor:middle;fill:#000000;fill-opacity:1;stroke:none;stroke-width:0.8017171"
       d="m 1889.5596,1912.4863 v -20.6954 h 18.8144 v 20.6954 z m 41.5605,0 v -105.8702 c 0,-6.3852 1.8255,-11.4011 5.4741,-15.0498 3.6488,-3.5347 8.6646,-5.3027 15.0498,-5.3027 2.9646,0 6.3286,0.3986 10.0914,1.1968 3.7626,0.7981 7.0119,1.7675 9.7485,2.9077 l -2.7363,14.8799 c -1.4823,-0.6842 -3.2489,-1.2534 -5.3013,-1.7095 -1.9384,-0.4561 -4.0477,-0.6841 -6.3282,-0.6841 -2.0523,0 -3.763,0.6266 -5.1313,1.8809 -1.3682,1.2542 -2.0522,4.1622 -2.0522,8.7231 v 99.0279 z m 51.4805,0 v -105.8702 c 0,-6.3852 1.8253,-11.4011 5.4741,-15.0498 3.6487,-3.5347 8.6661,-5.3027 15.0513,-5.3027 2.9645,0 6.3271,0.3986 10.0898,1.1968 3.7628,0.7981 7.012,1.7675 9.7485,2.9077 l -2.7363,14.8799 c -1.4823,-0.6842 -3.2488,-1.2534 -5.3013,-1.7095 -1.9383,-0.4561 -4.0476,-0.6841 -6.3281,-0.6841 -2.0523,0 -3.7631,0.6266 -5.1314,1.8809 -1.3682,1.2542 -2.0522,4.1622 -2.0522,8.7231 v 99.0279 z m 980.5445,0 v -20.6954 h 18.8129 v 20.6954 z m -166.5367,-2.5665 c -8.3236,0 -15.8489,-1.4253 -22.5761,-4.2759 -6.6132,-2.7365 -11.8586,-6.8978 -15.7354,-12.4848 -3.8768,-5.4731 -5.814,-12.1996 -5.814,-20.1811 0,-6.2713 1.3106,-11.4592 3.9331,-15.564 2.7366,-3.9908 6.7846,-7.2974 12.1436,-9.92 5.359,-2.5084 12.0297,-4.8457 20.0112,-7.0122 6.9554,-1.7103 12.9406,-3.4209 17.9575,-5.1313 5.017,-1.7103 8.8371,-3.8196 11.4595,-6.3281 2.6225,-2.3945 3.9346,-5.6452 3.9346,-9.75 0,-5.017 -2.0534,-8.8929 -6.1583,-11.6294 -3.9906,-2.6224 -9.8052,-3.9346 -17.4447,-3.9346 -4.5609,0 -9.0649,0.5134 -13.5117,1.5396 -4.3329,1.1402 -8.3809,2.5081 -12.1437,4.1045 -3.6486,1.5962 -6.8979,3.2496 -9.7485,4.96 -2.7365,1.8243 -4.8458,3.4776 -6.3281,4.9599 l -8.7232,-16.418 c 4.5609,-3.5347 9.5209,-6.5575 14.88,-9.0659 5.4729,-2.3945 11.1744,-4.2185 17.1035,-5.4727 6.0432,-1.2542 12.0857,-1.8808 18.1288,-1.8808 6.1572,0 11.916,0.6266 17.275,1.8808 5.359,1.3682 10.091,3.4202 14.1958,6.1568 4.1048,2.8505 7.2967,6.4999 9.5771,10.9467 2.2805,4.4469 3.4219,9.7496 3.4219,15.9068 0,7.2974 -1.5974,13.1693 -4.79,17.6162 -3.1926,4.4469 -7.8099,7.9815 -13.8531,10.604 -6.0431,2.7366 -13.1697,5.0738 -21.3794,7.0122 -6.7273,1.7103 -12.3139,3.3063 -16.7607,4.7886 -4.4469,1.4823 -7.7535,3.3062 -9.9199,5.4726 -2.1664,2.2805 -3.2505,5.3591 -3.2505,9.2359 0,5.245 1.9387,9.3503 5.8154,12.3149 3.8768,2.9646 9.8061,4.4473 17.7876,4.4473 3.6487,0 7.1833,-0.4001 10.604,-1.1983 3.4207,-0.798 6.6141,-1.8233 9.5786,-3.0776 2.9646,-1.2542 5.5299,-2.6236 7.6963,-4.1059 2.1665,-1.3683 3.8198,-2.6789 4.96,-3.9331 l 8.7217,15.7353 c -3.5347,2.6225 -7.4679,4.9598 -11.8008,7.0122 -4.2188,2.0524 -8.7802,3.6484 -13.6831,4.7886 -4.903,1.2543 -10.0909,1.8808 -15.564,1.8808 z m -671.792,-0.1698 c -9.2358,0 -17.5024,-1.7682 -24.7998,-5.3028 -7.2974,-3.4206 -13.5106,-8.0954 -18.6416,-14.0244 -5.017,-5.8152 -8.837,-12.3137 -11.4595,-19.4971 -2.6225,-7.0694 -3.9346,-14.3107 -3.9346,-21.7222 0,-7.6393 1.4254,-15.2221 4.2759,-22.7475 2.8506,-7.4115 6.8412,-14.138 11.9722,-20.1811 5.131,-5.9292 11.231,-10.7186 18.3003,-14.3673 7.0693,-3.5346 14.8799,-5.3012 23.4317,-5.3012 6.3852,0 12.8278,1.0826 19.3271,3.249 6.6133,2.1664 12.5426,5.3583 17.7876,9.5771 5.359,4.2189 9.2923,9.351 11.8008,15.3941 l -15.9053,9.0644 c -2.0524,-4.7889 -4.9031,-8.6662 -8.5518,-11.6308 -3.5347,-2.8506 -7.4121,-4.9599 -11.6308,-6.3282 -4.2188,-1.3682 -8.2668,-2.0522 -12.1436,-2.0522 -5.7011,0 -10.9449,1.1973 -15.7339,3.5918 -4.7888,2.3945 -8.9516,5.6437 -12.4863,9.7485 -3.4207,4.2189 -6.0992,9.0081 -8.0376,14.3673 -1.9384,5.473 -2.9077,11.117 -2.9077,16.932 0,5.2451 0.7972,10.4904 2.3936,15.7354 1.7103,5.245 4.1623,9.977 7.3549,14.1958 3.3067,4.2189 7.3547,7.5829 12.1436,10.0913 4.7889,2.6225 10.3755,3.9332 16.7607,3.9332 3.8768,0 7.8101,-0.5694 11.8008,-1.7095 4.1048,-1.1402 7.8689,-3.1364 11.2896,-5.9869 3.5347,-2.8506 6.4412,-6.7279 8.7217,-11.6308 l 15.0512,10.0913 c -3.8768,7.7535 -9.8061,14.0815 -17.7876,18.9844 -7.9815,5.0169 -17.4455,7.5264 -28.3916,7.5264 z m -359.9399,-0.6842 v -121.4341 h 19.1557 v 53.5342 h 61.2305 v -53.5342 h 19.3271 v 121.4341 h -19.3271 v -50.7978 h -61.2305 v 50.7978 z m 736.3828,-2.5663 v -29.4171 h -11.8008 v -14.5385 h 11.8008 v -55.9278 c 0,-4.7889 0.9694,-8.7222 2.9077,-11.8007 2.0524,-2.9646 4.731,-5.1314 8.0376,-6.4996 3.3066,-1.3682 6.8987,-2.0522 10.7754,-2.0522 3.1926,0 6.2713,0.3427 9.2358,1.0269 3.0786,0.6841 5.816,1.4814 8.2105,2.3935 2.3945,0.9122 4.389,1.7683 5.9853,2.5664 l -3.9331,14.8799 c -1.1402,-0.5701 -2.9082,-1.3114 -5.3027,-2.2237 -2.3944,-0.9121 -4.9024,-1.3681 -7.5249,-1.3681 -2.6225,0 -4.8465,0.7413 -6.6709,2.2237 -1.7103,1.4822 -2.6797,3.7622 -2.9077,6.8408 v 49.9409 h 19.4985 v 14.5385 h -19.4985 v 29.4171 z m 507.8921,0 v -29.4171 h -11.8008 v -14.5385 h 11.8008 v -55.9278 c 0,-4.7889 0.9694,-8.7222 2.9077,-11.8007 2.0524,-2.9646 4.7325,-5.1314 8.0391,-6.4996 3.3066,-1.3682 6.8986,-2.0522 10.7753,-2.0522 3.1927,0 6.2714,0.3427 9.2359,1.0269 3.0786,0.6841 5.8145,1.4814 8.209,2.3935 2.3944,0.9122 4.3905,1.7683 5.9868,2.5664 l -3.9346,14.8799 c -1.1402,-0.5701 -2.9068,-1.3114 -5.3012,-2.2237 -2.3945,-0.9121 -4.9039,-1.3681 -7.5264,-1.3681 -2.6225,0 -4.845,0.7413 -6.6695,2.2237 -1.7103,1.4822 -2.6797,3.7622 -2.9077,6.8408 v 49.9409 h 19.4971 v 14.5385 h -19.4971 v 29.4171 z m -780.8731,-27.8775 c -6.9554,0 -13.2833,-1.2546 -18.9843,-3.7632 -5.5872,-2.3945 -10.4339,-5.7585 -14.5386,-10.0913 -3.9907,-4.2189 -7.0694,-9.1214 -9.2358,-14.7085 -2.1665,-5.5871 -3.2491,-11.5164 -3.2491,-17.7876 0,-6.2712 1.0826,-12.2005 3.2491,-17.7876 2.1664,-5.4731 5.2451,-10.3756 9.2358,-14.7085 4.1047,-4.3328 8.9514,-7.7542 14.5386,-10.2626 5.587,-2.3946 11.9149,-3.5904 18.9843,-3.5904 6.9554,0 13.226,1.1958 18.813,3.5904 5.7011,2.5084 10.5478,5.9298 14.5386,10.2626 4.1048,4.3329 7.2393,9.2354 9.4058,14.7085 2.1664,5.5871 3.2504,11.5164 3.2504,17.7876 0,6.2712 -1.084,12.2005 -3.2504,17.7876 -2.1665,5.5871 -5.301,10.4896 -9.4058,14.7085 -3.9908,4.3328 -8.8375,7.6968 -14.5386,10.0913 -5.587,2.5086 -11.8576,3.7632 -18.813,3.7632 z m 220.4605,0 c -5.245,0 -10.2049,-0.7987 -14.8799,-2.395 -4.6748,-1.5964 -8.8936,-3.8763 -12.6563,-6.8408 -3.6487,-2.8506 -6.6126,-6.272 -8.893,-10.2627 v 17.9589 h -17.1035 v -89.4507 h 18.813 v 53.1915 c 1.2542,4.1047 3.3075,7.6968 6.1581,10.7754 2.8506,3.1926 6.0426,5.7005 9.5772,7.5249 3.6486,1.8243 7.2981,2.7363 10.9468,2.7363 5.245,0 9.1782,-1.9372 11.8007,-5.814 2.7366,-3.8768 4.1046,-9.9782 4.1046,-18.3018 v -50.1123 h 18.8144 v 54.5596 c 0,4.903 -0.4001,9.5216 -1.1982,13.8545 -0.6842,4.4469 -2.0521,8.3228 -4.1045,11.6294 -1.9384,3.4207 -4.6743,6.1007 -8.209,8.0391 -3.4207,1.9384 -7.8113,2.9077 -13.1704,2.9077 z m 658.1103,0 c -9.3498,0 -17.5031,-2.1666 -24.4585,-6.4995 -6.9552,-4.2188 -12.3712,-9.8628 -16.248,-16.9321 -3.8767,-6.9554 -5.8155,-14.6528 -5.8155,-23.0903 0,-6.2712 1.0842,-12.2005 3.2505,-17.7876 2.2805,-5.4732 5.4724,-10.3758 9.5772,-14.7086 4.1048,-4.2187 8.9516,-7.5828 14.5386,-10.0912 5.7011,-2.3946 12.029,-3.5904 18.9844,-3.5904 6.2712,0 12.0858,0.9679 17.4448,2.9062 5.3591,2.0525 9.9778,4.7898 13.8545,8.2105 3.9908,3.5347 6.9547,7.4679 8.8931,11.8008 l -16.0767,4.6186 c -1.5963,-4.1048 -4.675,-7.4114 -9.2358,-9.9199 -4.4469,-2.5085 -9.1788,-3.7632 -14.1959,-3.7632 -4.5608,0 -8.8368,1.0826 -12.8276,3.2491 -3.9908,2.2804 -7.2974,5.3591 -9.92,9.2358 -2.5084,3.9908 -3.9337,8.6095 -4.2758,13.8545 h 71.6631 c 0.114,0.7982 0.2273,1.7675 0.3413,2.9077 0.114,1.2543 0.1714,2.5648 0.1714,3.9331 0,7.9814 -1.8813,15.4494 -5.644,22.4048 -3.7628,6.9554 -9.0641,12.5434 -15.9053,16.7622 -6.7273,4.3329 -14.7659,6.4995 -24.1158,6.4995 z m 94.4092,0 c -6.9553,0 -13.1125,-1.084 -18.4717,-3.2505 -5.2449,-2.1664 -9.3488,-5.301 -12.3134,-9.4058 -2.9646,-4.1047 -4.4473,-9.0647 -4.4473,-14.8798 0,-4.7889 1.0827,-8.7237 3.249,-11.8023 2.1664,-3.0786 5.4171,-5.7012 9.75,-7.8677 4.3329,-2.0524 9.6915,-4.0469 16.0767,-5.9853 4.5609,-1.2543 8.4368,-2.3942 11.6294,-3.4204 3.3067,-1.0262 5.816,-2.2236 7.5264,-3.5918 1.7103,-1.3683 2.5649,-3.4776 2.5649,-6.3281 0,-3.8768 -1.6533,-6.8422 -4.96,-8.8946 -3.3066,-1.9383 -7.5826,-2.9077 -12.8276,-2.9077 -5.131,0 -10.3189,1.0267 -15.564,3.0791 -5.131,2.0524 -10.2616,5.3591 -15.3925,9.92 l -7.0122,-12.6563 c 4.7889,-4.903 10.5475,-8.6097 17.2749,-11.1181 6.7272,-2.3946 13.8524,-3.5904 21.3779,-3.5904 10.7181,0 19.27,2.3933 25.6552,7.1821 6.4993,4.903 9.7486,11.6883 9.7486,20.354 0,5.4731 -1.368,9.7491 -4.1045,12.8277 -2.6225,3.1926 -6.3851,5.7579 -11.2881,7.6962 -4.9029,2.0525 -10.8323,4.1045 -17.7876,6.1568 -3.9907,1.2543 -7.3533,2.3942 -10.0898,3.4204 -2.7366,1.0262 -4.79,2.2809 -6.1582,3.7632 -1.3683,1.4823 -2.0522,3.4209 -2.0522,5.8154 0,2.9646 0.7986,5.2446 2.3949,6.8408 1.7104,1.7104 3.8197,2.8503 6.3282,3.4205 2.5084,0.6841 5.1311,1.0268 7.8676,1.0268 4.7889,0 9.2356,-0.8561 13.3404,-2.5664 4.2188,-1.7103 8.3227,-4.3889 12.3134,-8.0376 l 8.0391,12.4848 c -4.2188,4.2189 -9.1213,7.2975 -14.7085,9.2359 -5.4731,2.0524 -11.4598,3.0791 -17.959,3.0791 z m -596.354,-0.6841 c -5.5871,-0.342 -10.8882,-2.3954 -15.9053,-6.1582 -5.0169,-3.6487 -9.0649,-8.5513 -12.1435,-14.7085 v 20.0112 h -17.4448 v -89.4507 h 18.8129 v 54.731 c 2.3945,5.8151 6.3852,10.3192 11.9722,13.5118 5.7011,3.1926 12.2011,4.8459 19.4986,4.9599 v 16.9321 c -0.5701,0.114 -1.2541,0.1714 -2.0523,0.1714 z m -715.3447,-0.8555 v -89.4507 h 18.8144 v 89.4507 z m 400.6318,0 v -54.7309 c 0,-11.9723 2.3947,-21.0377 7.1836,-27.1949 4.7889,-6.1571 11.8583,-9.2343 21.208,-9.2343 7.6395,0 14.6528,1.6533 21.0381,4.9599 6.3853,3.4207 11.5732,8.3807 15.564,14.88 l 0.3413,-8.8946 c 0.342,-2.9645 1.6541,-5.4166 3.9346,-7.3549 2.2804,-1.8244 5.1296,-2.7364 8.5502,-2.7364 1.1403,0 2.3376,0.058 3.5918,0.1714 1.2543,0.114 2.8517,0.342 4.7901,0.684 v 15.0513 c -1.8244,0.114 -3.1365,0.6274 -3.9346,1.5396 -0.7981,0.9121 -1.1968,2.4507 -1.1968,4.6172 v 68.2426 h -18.8144 v -55.7563 c -1.7104,-4.1048 -3.9903,-7.6409 -6.8408,-10.6055 -2.7366,-2.8505 -5.8152,-5.0157 -9.2359,-6.498 -3.3066,-1.4823 -6.7265,-2.2236 -10.2612,-2.2236 -5.5871,0 -9.8631,1.9945 -12.8276,5.9853 -2.8506,4.1048 -4.2759,10.1488 -4.2759,18.1304 v 50.9677 z m 323.436,0 36.772,-89.4507 c -2.1664,-6.0431 -3.9904,-10.6603 -5.4727,-13.853 -1.4823,-3.1926 -2.9649,-5.3593 -4.4472,-6.4995 -1.3683,-1.2542 -3.0216,-1.8808 -4.9599,-1.8808 -1.0263,0 -2.3942,0.1706 -4.1046,0.5127 -1.5962,0.228 -3.2496,0.456 -4.9599,0.684 v -16.4194 c 1.8243,-0.4561 3.4777,-0.7988 4.9599,-1.0268 1.4824,-0.2281 2.9076,-0.3414 4.2759,-0.3414 4.7889,0 8.9502,0.7987 12.4849,2.3951 3.5347,1.5962 6.5,3.8188 8.8945,6.6694 2.3945,2.7366 4.2185,5.7579 5.4727,9.0645 l 40.5351,110.1459 h -18.1303 l -24.2857,-70.2948 -27.3662,70.2948 z m 244.503,0 v -54.7309 c 0,-11.9723 2.3946,-21.0377 7.1836,-27.1949 4.7889,-6.1571 11.8582,-9.2343 21.208,-9.2343 7.6395,0 14.6514,1.6533 21.0366,4.9599 6.3852,3.4207 11.5732,8.3807 15.564,14.88 l 0.3427,-8.8946 c 0.3421,-2.9645 1.6527,-5.4166 3.9332,-7.3549 2.2804,-1.8244 5.131,-2.7364 8.5517,-2.7364 1.1402,0 2.3375,0.058 3.5918,0.1714 1.2542,0.114 2.8502,0.342 4.7886,0.684 v 15.0513 c -1.8243,0.114 -3.135,0.6274 -3.9331,1.5396 -0.7982,0.9121 -1.1968,2.4507 -1.1968,4.6172 v 68.2426 h -18.8145 v -55.7563 c -1.7103,-4.1048 -3.9902,-7.6409 -6.8408,-10.6055 -2.7365,-2.8505 -5.8152,-5.0157 -9.2358,-6.498 -3.3067,-1.4823 -6.728,-2.2236 -10.2627,-2.2236 -5.5871,0 -9.863,1.9945 -12.8276,5.9853 -2.8506,4.1048 -4.2759,10.1488 -4.2759,18.1304 v 50.9677 z m 105.0147,0 v -89.4507 h 18.8129 v 89.4507 z m 143.5327,-12.3149 c 4.7889,0 9.1208,-1.1399 12.9975,-3.4204 3.9909,-2.1664 7.2416,-5.245 9.75,-9.2358 2.6226,-3.8768 4.1037,-8.3808 4.4458,-13.5117 h -54.0454 c 0.3421,5.1309 1.7674,9.6349 4.2758,13.5117 2.5086,3.9908 5.7005,7.0694 9.5773,9.2358 3.9907,2.2805 8.3241,3.4204 12.999,3.4204 z m -878.3995,-2.2236 c 4.9029,-10e-5 9.3496,-1.368 13.3404,-4.1045 4.1048,-2.6225 7.354,-6.2144 9.7485,-10.7754 2.3945,-4.5608 3.5918,-9.6914 3.5918,-15.3926 0,-5.5871 -1.1973,-10.7176 -3.5918,-15.3926 -2.3945,-4.5608 -5.6437,-8.2102 -9.7485,-10.9468 -3.9908,-2.6225 -8.4375,-3.933 -13.3404,-3.933 -5.0169,0 -9.5209,1.3105 -13.5117,3.933 -3.9907,2.6226 -7.1841,6.2146 -9.5786,10.7754 -2.3944,4.5609 -3.5918,9.6915 -3.5918,15.3927 0,5.8151 1.1974,10.9472 3.5918,15.3939 2.3945,4.5609 5.5879,8.2089 9.5786,10.9454 3.9908,2.7365 8.4948,4.1045 13.5117,4.1045 z m 328.2847,-152.4742 c -3.777,0 -7.1983,-0.749 -10.2627,-2.2455 -3.0643,-1.4966 -5.4869,-3.5625 -7.2685,-6.1992 -1.7104,-2.6368 -2.565,-5.7015 -2.565,-9.1935 0,-2.0665 0.3909,-4.0611 1.1748,-5.9853 0.7839,-1.9241 2.0666,-4.0272 3.8481,-6.3076 1.05,-1.3439 2.3513,-2.8814 3.8467,-4.5718 -1.4603,-1.0508 -2.9209,-2.1629 -4.3813,-3.3384 -2.8506,-2.2804 -5.2018,-4.9171 -7.0547,-7.9101 -1.7816,-2.9218 -2.6719,-6.3788 -2.6719,-10.3696 0,-4.0621 1.0329,-7.7317 3.0996,-11.0098 2.138,-3.2781 5.0957,-5.9147 8.8726,-7.9102 3.777,-1.9241 8.1243,-2.8857 13.0415,-2.8857 4.7747,0 9.2989,0.9616 13.5747,2.8857 3.0948,1.4207 5.9138,3.2653 8.4668,5.5166 l 6.9273,-7.3329 h 15.4995 l -15.1846,15.9037 c 1.4096,2.2704 2.6263,4.7329 3.6401,7.399 1.9953,5.0597 2.9927,10.7254 2.9927,16.9966 h -9.6211 c 0,-4.6322 -0.6763,-8.9082 -2.0302,-12.8277 -0.5104,-1.5594 -1.1091,-3.0369 -1.7886,-4.4385 l -17.1578,17.9707 c 1.7396,1.1801 3.3926,2.3702 4.9424,3.5714 2.8506,2.2091 5.132,4.6317 6.8423,7.2685 1.7104,2.6368 2.565,5.5944 2.565,8.8725 0,3.4919 -0.8903,6.4139 -2.6719,8.7656 -1.7816,2.4231 -4.1344,4.2393 -7.0561,5.4507 -2.922,1.2828 -6.1278,1.9248 -9.6197,1.9248 z m 104.1152,-0.4277 c -5.2023,0 -9.9048,-0.8903 -14.1093,-2.6719 -4.1334,-1.7103 -7.4121,-4.3126 -9.835,-7.8046 -2.423,-3.4206 -3.6343,-7.6239 -3.6343,-12.6123 0,-3.9195 0.8189,-7.1625 2.4581,-9.728 1.7103,-2.4943 4.2413,-4.5617 7.5908,-6.2007 3.3493,-1.5678 7.5183,-3.0288 12.5068,-4.3829 4.3471,-1.0689 8.088,-2.1376 11.2236,-3.2065 3.1356,-1.069 5.5225,-2.3873 7.1616,-3.9551 1.6391,-1.4965 2.4595,-3.5267 2.4595,-6.0923 0,-3.1355 -1.2826,-5.5582 -3.8482,-7.2686 -2.4942,-1.639 -6.1296,-2.4594 -10.9042,-2.4594 -2.8506,0 -5.6656,0.321 -8.4449,0.9624 -2.708,0.7126 -5.2377,1.5672 -7.5893,2.565 -2.2805,0.9977 -4.3122,2.0306 -6.0937,3.0996 -1.7104,1.1401 -3.0287,2.1746 -3.9552,3.101 l -5.4506,-10.2626 c 2.8506,-2.2092 5.9509,-4.0968 9.3002,-5.6646 3.4206,-1.4966 6.9832,-2.6379 10.689,-3.4219 3.777,-0.7838 7.5536,-1.1748 11.3306,-1.1748 3.8482,0 7.4479,0.391 10.7974,1.1748 3.3493,0.8552 6.3056,2.1378 8.871,3.8482 2.5656,1.7815 4.5616,4.0629 5.9869,6.8422 1.4253,2.7793 2.1372,6.0922 2.1372,9.9404 0,4.561 -0.9972,8.232 -2.9927,11.0113 -1.9953,2.7793 -4.8817,4.9879 -8.6587,6.6269 -3.7769,1.7104 -8.2298,3.1714 -13.3608,4.3829 -4.2046,1.0689 -7.6973,2.0662 -10.4766,2.9926 -2.7793,0.9265 -4.8452,2.0665 -6.1992,3.4204 -1.354,1.4254 -2.0317,3.35 -2.0317,5.773 0,3.2782 1.2112,5.8434 3.6342,7.6963 2.423,1.8528 6.1283,2.7803 11.1168,2.7803 2.2804,0 4.4904,-0.2497 6.6284,-0.7486 2.1378,-0.4988 4.1324,-1.1409 5.9853,-1.9248 1.8529,-0.7839 3.4566,-1.6384 4.8106,-2.5649 1.3539,-0.8552 2.3869,-1.6757 3.0996,-2.4595 l 5.4521,9.835 c -2.2091,1.639 -4.6674,3.1 -7.3755,4.3828 -2.6367,1.2827 -5.4874,2.28 -8.5517,2.9926 -3.0644,0.7839 -6.3074,1.1763 -9.7281,1.1763 z m -480.3413,-0.5347 v -75.8949 h 11.9722 v 26.4023 h 17.6382 l 16.4619,-26.4023 h 13.4692 l -17.852,28.8618 c 2.993,0.9976 5.594,2.5998 7.8032,4.809 2.2804,2.2092 4.0268,4.8459 5.2383,7.9102 1.2114,3.0644 1.8164,6.2717 1.8164,9.6211 0,3.0644 -0.605,6.0577 -1.8164,8.9794 -1.1403,2.9219 -2.7795,5.5585 -4.9175,7.9102 -2.0666,2.3517 -4.5249,4.2407 -7.3755,5.666 -2.8505,1.4253 -5.9866,2.1372 -9.4072,2.1372 z m 290.603,-1.604 v -18.3852 h -7.3769 v -9.0865 h 7.3769 v -34.954 c 0,-2.9931 0.6049,-5.4529 1.8165,-7.377 1.2827,-1.8529 2.9577,-3.2068 5.0244,-4.062 2.0667,-0.8552 4.3109,-1.2818 6.7338,-1.2818 1.9955,0 3.9202,0.2141 5.773,0.6417 1.9241,0.4275 3.6348,0.9255 5.1314,1.4955 1.4965,0.5702 2.7435,1.1052 3.7412,1.6041 l -2.4595,9.3003 c -0.7126,-0.3564 -1.8169,-0.82 -3.3135,-1.3902 -1.4965,-0.57 -3.0646,-0.8554 -4.7036,-0.8554 -1.6391,0 -3.0287,0.4637 -4.169,1.3901 -1.0689,0.9264 -1.6739,2.3517 -1.8163,4.2759 v 31.2128 h 12.186 v 9.0865 h -12.186 v 18.3852 z m 85.6231,-6.1992 c 2.4943,0 4.5245,-0.7133 6.0923,-2.1386 1.6391,-1.354 2.4594,-3.1703 2.4594,-5.4507 0,-1.8529 -0.642,-3.5993 -1.9248,-5.2383 -1.2827,-1.5678 -3.0647,-3.1358 -5.3451,-4.7036 -0.9211,-0.6045 -2.2207,-1.4294 -3.2813,-2.1153 -1.078,1.1664 -2.4598,2.6557 -3.2388,3.5054 -1.5678,1.7815 -2.6365,3.2069 -3.2065,4.2759 -0.5702,1.1402 -0.8555,2.2445 -0.8555,3.3135 0,1.5679 0.3924,2.9931 1.1763,4.2758 0.7838,1.2828 1.8524,2.3158 3.2065,3.0997 1.4253,0.7839 3.0646,1.1762 4.9175,1.1762 z m -364.2539,-2.7788 h 20.3101 c 2.1379,0 4.0983,-0.642 5.8798,-1.9248 1.853,-1.2827 3.3496,-2.9935 4.4898,-5.1314 1.1402,-2.0666 1.7095,-4.4178 1.7095,-7.0546 0,-2.5655 -0.498,-4.9525 -1.4957,-7.1616 -0.9977,-2.138 -2.3517,-3.8486 -4.062,-5.1314 -1.7103,-1.2827 -3.6707,-1.9233 -5.8798,-1.9233 h -20.9517 z m 80.7671,-8.4448 c -5.8436,0 -10.94,-1.354 -15.2872,-4.062 -4.347,-2.6368 -7.7313,-6.1651 -10.1542,-10.5835 -2.423,-4.3471 -3.6343,-9.1566 -3.6343,-14.4302 0,-3.9195 0.6762,-7.6262 2.0303,-11.1181 1.4252,-3.4207 3.4212,-6.4839 5.9868,-9.192 2.5655,-2.6367 5.5944,-4.7397 9.0864,-6.3075 3.5631,-1.4966 7.5181,-2.2442 11.8653,-2.2442 3.9194,0 7.5534,0.605 10.9028,1.8164 3.3494,1.2828 6.2356,2.9935 8.6587,5.1313 2.4942,2.2092 4.3476,4.6676 5.559,7.3755 l -10.0488,2.8872 c -0.9977,-2.5654 -2.9209,-4.6328 -5.7714,-6.2006 -2.7793,-1.5679 -5.7369,-2.3511 -8.8726,-2.3511 -2.8505,0 -5.5229,0.6762 -8.0171,2.0302 -2.4942,1.4253 -4.5616,3.35 -6.2007,5.773 -1.5678,2.4942 -2.4581,5.3806 -2.6718,8.6587 h 44.789 c 0.071,0.4989 0.1426,1.1038 0.2139,1.8164 0.071,0.7839 0.1069,1.6043 0.1069,2.4595 0,4.9885 -1.1756,9.6553 -3.5274,14.0024 -2.3516,4.3471 -5.666,7.8398 -9.9418,10.4766 -4.2046,2.708 -9.2282,4.062 -15.0718,4.062 z m 59.0054,0 c -4.3472,0 -8.1951,-0.6778 -11.5445,-2.0317 -3.278,-1.354 -5.8433,-3.3129 -7.6963,-5.8785 -1.8528,-2.5654 -2.7788,-5.6658 -2.7788,-9.3003 0,-2.993 0.6762,-5.4513 2.0303,-7.3755 1.354,-1.9241 3.3858,-3.5634 6.0937,-4.9174 2.708,-1.2827 6.0566,-2.5298 10.0474,-3.7412 2.8505,-0.7839 5.2747,-1.4973 7.27,-2.1387 2.0667,-0.6414 3.6333,-1.389 4.7022,-2.2441 1.0689,-0.8552 1.604,-2.1734 1.604,-3.9551 0,-2.423 -1.0331,-4.2764 -3.0996,-5.5591 -2.0667,-1.2116 -4.739,-1.8164 -8.0171,-1.8164 -3.2069,0 -6.4499,0.6406 -9.7281,1.9233 -3.2068,1.2828 -6.4142,3.3502 -9.621,6.2007 l -4.3814,-7.9101 c 2.9931,-3.0644 6.5914,-5.3814 10.7959,-6.9492 4.2046,-1.4966 8.6589,-2.2442 13.3623,-2.2442 6.6988,0 12.0435,1.4967 16.0342,4.4897 4.062,3.0645 6.0923,7.3047 6.0923,12.7207 0,3.4207 -0.8546,6.093 -2.5649,8.0171 -1.6392,1.9953 -3.9904,3.5976 -7.0548,4.8091 -3.0643,1.2827 -6.771,2.5669 -11.1181,3.8496 -2.4942,0.784 -4.5959,1.4958 -6.3062,2.1372 -1.7103,0.6413 -2.993,1.4247 -3.8481,2.3511 -0.8552,0.9265 -1.2832,2.1392 -1.2832,3.6357 0,1.8529 0.4994,3.2783 1.4971,4.2759 1.0689,1.0691 2.3871,1.781 3.955,2.1372 1.5678,0.4277 3.2072,0.6416 4.9175,0.6416 2.9931,0 5.7724,-0.5349 8.3379,-1.604 2.6367,-1.0689 5.202,-2.744 7.6963,-5.0244 l 5.0229,7.8047 c -2.6367,2.6367 -5.6999,4.56 -9.1918,5.7715 -3.4207,1.2827 -7.1631,1.9248 -11.2251,1.9248 z m 56.7627,0 c -4.3471,0 -8.3035,-0.7848 -11.8668,-2.3525 -3.4918,-1.4966 -6.5194,-3.5981 -9.0849,-6.3062 -2.4942,-2.6367 -4.419,-5.7014 -5.7729,-9.1934 -1.3542,-3.4918 -2.0304,-7.1972 -2.0304,-11.1166 0,-3.9197 0.6762,-7.6263 2.0304,-11.1182 1.3539,-3.4207 3.2787,-6.4838 5.7729,-9.1919 2.5655,-2.708 5.5931,-4.8467 9.0849,-6.4145 3.492,-1.4966 7.4484,-2.2442 11.8668,-2.2442 4.3471,0 8.2663,0.7476 11.7582,2.2442 3.5632,1.5678 6.5922,3.7065 9.0865,6.4145 2.5655,2.7081 4.5244,5.7712 5.8784,9.1919 1.3541,3.4919 2.0317,7.1985 2.0317,11.1182 0,3.9194 -0.6776,7.6248 -2.0317,11.1166 -1.354,3.492 -3.3129,6.5567 -5.8784,9.1934 -2.4943,2.7081 -5.5233,4.8096 -9.0865,6.3062 -3.4919,1.5677 -7.4111,2.3525 -11.7582,2.3525 z m 340.9409,0 c -4.2047,0 -8.0168,-0.9988 -11.4375,-2.9941 -3.4207,-1.9954 -6.2,-4.6677 -8.3379,-8.0172 v 10.0489 h -10.3682 v -78.6753 h 11.7583 v 33.2447 c 1.9953,-3.4207 4.7033,-6.2001 8.124,-8.3379 3.4207,-2.138 7.3757,-3.2066 11.8652,-3.2066 4.8461,0 9.1221,1.2827 12.8277,3.8481 3.777,2.6369 6.699,6.1637 8.7657,10.5821 2.1378,4.4183 3.2065,9.3007 3.2065,14.6455 0,3.8483 -0.6778,7.4822 -2.0317,10.9028 -1.2828,3.4919 -3.099,6.5922 -5.4507,9.3003 -2.3517,2.7081 -5.1311,4.8096 -8.3379,6.3062 -3.2069,1.5677 -6.7353,2.3525 -10.5835,2.3525 z m 58.8999,0 c -4.1333,0 -8.0882,-0.6064 -11.8652,-1.8178 -3.7057,-1.2115 -7.4111,-3.0649 -11.1168,-5.5592 l 3.9551,-7.9101 c 3.1356,1.9955 6.0919,3.5277 8.8711,4.5967 2.7793,1.1401 5.737,1.7109 8.8725,1.7109 4.4184,0 7.8042,-1.1043 10.1559,-3.3134 2.3517,-2.2092 3.5273,-5.2739 3.5273,-9.1935 v -3.5273 c -1.9955,0.7839 -4.311,1.3532 -6.9478,1.7095 -2.5654,0.3563 -5.0966,0.5347 -7.5908,0.5347 -4.7034,0 -8.8367,-0.7476 -12.3999,-2.2442 -3.5632,-1.4253 -6.3767,-3.4927 -8.4434,-6.2007 -1.9954,-2.6367 -2.9941,-5.7356 -2.9941,-9.2988 0,-3.2781 0.8203,-6.2358 2.4595,-8.8726 1.639,-2.6367 3.9191,-4.7397 6.8408,-6.3075 2.9218,-1.4966 6.2362,-2.2442 9.9419,-2.2442 3.8483,0 7.6605,0.8546 11.4375,2.5649 3.777,1.7103 6.8774,4.133 9.3003,7.2686 l 0.3193,-3.2066 c 0.2138,-1.639 0.9629,-3.0644 2.2456,-4.2759 1.2828,-1.2114 3.1718,-1.8163 5.6661,-1.8163 0.57,0 1.2819,0.036 2.1372,0.1069 0.855,0.071 1.8168,0.2139 2.8857,0.4278 v 9.4057 c -1.1402,0.071 -1.9592,0.3923 -2.458,0.9624 -0.4276,0.5702 -0.6416,1.5317 -0.6416,2.8857 v 20.8448 c 0,7.2688 -2.1729,12.8631 -6.52,16.7827 -4.2758,3.9907 -10.1555,5.9868 -17.6382,5.9868 z m -332.1768,-0.4277 c -3.4919,-0.2138 -6.8048,-1.4964 -9.9404,-3.8482 -3.1356,-2.2804 -5.6667,-5.3451 -7.5909,-9.1933 v 12.5068 h -10.9028 v -55.9057 h 11.7584 v 34.2055 c 1.4964,3.6344 3.9905,6.4494 7.4823,8.4448 3.5633,1.9954 7.6253,3.0283 12.1861,3.0997 v 10.5834 c -0.3563,0.071 -0.7829,0.107 -1.2817,0.107 z m -183.539,-8.231 c 2.993,0 5.701,-0.7134 8.124,-2.1387 2.4942,-1.3539 4.5245,-3.2772 6.0923,-5.7714 1.639,-2.423 2.5664,-5.238 2.7802,-8.4449 h -33.7793 c 0.2138,3.2069 1.104,6.0219 2.6719,8.4449 1.5677,2.4942 3.5638,4.4175 5.9869,5.7714 2.4942,1.4253 5.2021,2.1387 8.124,2.1387 z m 115.875,-1.3902 c 3.0643,0 5.8436,-0.8545 8.3379,-2.5649 2.5654,-1.639 4.5957,-3.8848 6.0922,-6.7353 1.4966,-2.8506 2.2457,-6.0565 2.2457,-9.6196 0,-3.492 -0.7491,-6.6993 -2.2457,-9.6211 -1.4965,-2.8506 -3.5268,-5.1305 -6.0922,-6.8408 -2.4943,-1.6392 -5.2736,-2.4595 -8.3379,-2.4595 -3.1356,0 -5.9507,0.8203 -8.4449,2.4595 -2.4943,1.639 -4.4902,3.8833 -5.9868,6.7338 -1.4965,2.8506 -2.2441,6.058 -2.2441,9.6211 0,3.6345 0.7476,6.8404 2.2441,9.6197 1.4966,2.8506 3.4925,5.1319 5.9868,6.8422 2.4942,1.7104 5.3093,2.5649 8.4449,2.5649 z m 337.8413,0 c 2.4943,0 4.7741,-0.4978 6.8408,-1.4955 2.1378,-0.9978 3.9913,-2.3518 5.5591,-4.062 1.639,-1.7104 2.886,-3.7064 3.7411,-5.9868 0.8552,-2.2805 1.2833,-4.7031 1.2833,-7.2686 0,-2.4229 -0.3924,-4.7757 -1.1763,-7.0561 -0.7839,-2.2806 -1.9238,-4.3108 -3.4204,-6.0924 -1.4253,-1.7816 -3.1716,-3.2069 -5.2383,-4.2759 -1.9953,-1.0689 -4.2396,-1.6039 -6.7339,-1.6039 -2.2092,0 -4.3836,0.535 -6.5214,1.6039 -2.138,1.1403 -4.0255,2.6013 -5.6646,4.3829 -1.6391,1.8529 -2.9574,3.9187 -3.9551,6.1992 v 14.6455 c 0.4275,1.4965 1.1752,2.9218 2.2442,4.2759 1.0689,1.3539 2.3159,2.5296 3.7412,3.5274 1.4252,0.9976 2.9576,1.7808 4.5967,2.351 1.639,0.5701 3.207,0.8554 4.7036,0.8554 z m -174.3501,-12.016 19.6391,-20.7905 c -1.5359,-1.3623 -3.1795,-2.5104 -4.9365,-3.4308 -2.9931,-1.5678 -6.1647,-2.3525 -9.5142,-2.3525 -2.7079,0 -5.202,0.4994 -7.4824,1.4971 -2.2805,1.069 -4.0967,2.53 -5.4507,4.3828 -1.354,1.9242 -2.0317,4.0971 -2.0317,6.52 0,2.423 0.6064,4.5974 1.8178,6.5215 1.2828,1.9955 3.0277,3.8488 5.2369,5.5591 0.8652,0.6977 1.7799,1.3955 2.7217,2.0933 z m 235.9219,-7.8662 c 2.1378,0 4.3108,-0.2141 6.5199,-0.6417 2.2092,-0.3563 4.3122,-0.9255 6.3077,-1.7094 v -6.4146 c 0,-0.7126 -0.2497,-1.5316 -0.7486,-2.458 -0.4988,-0.9265 -1.1751,-1.8538 -2.0302,-2.7803 -1.4253,-1.5677 -3.3144,-2.8503 -5.6661,-3.8481 -2.3517,-0.9978 -4.8099,-1.4956 -7.3755,-1.4956 -2.4942,0 -4.5972,0.4622 -6.3075,1.3887 -1.6391,0.9264 -2.9217,2.1376 -3.8482,3.6343 -0.8552,1.4964 -1.2818,3.0645 -1.2818,4.7035 0,2.9931 1.3184,5.3459 3.9552,7.0562 2.708,1.7103 6.1992,2.565 10.4751,2.565 z"
       id="path120"
       inkscape:connector-curvature="0" /></g></svg>